{
.appVersion = "850";
DisplayStrings = (
/grSA/grHAc2/grSA/grVAc2/grSA/grmUU.alt/grSA/grmU.alt/grSA/grSA/grmU/grSA/grmUU/grSA/grVirama/grSA/grUdaat/grSA/grYakash/grSA,
/grDDHA/grPHxA/grTA/grCA/grVA/grRA/grPHA/grNNA/grNYA/grKA/grDDA/grDA/grTTA/grNGA/grLA/grHA/grNA/grCHA/grLxA/grTTHA/grBHA/grRRA/grJHA,
/grGHA/grNukta/grGHA,
/grNGA/grGA_RAc2/grNGA_RAc2,
/grVAc2/grmUU/grmUU.alt/grRAc2/grmU.alt/grVirama/grHAc2/grmU/grYakash/grNukta/grBindi/grTippi/grAddak/grmEE_Bindi/grmEE/grmAU_Bindi/grmAU/grmOO_Bindi/grAdakbindi/grmAI_Bindi/grmAI/grmOO/grDDHA/grPHxA/grTA/grCA/grVA/grRA/grPHA/grA/grNNA/grNYA/grKA/grDDA/grUra/grDA/grTTA/grNGA/grLA/grHA/grNA/grCHA/grLxA/grTTHA/grBHA/grRRA/grJHA/grDDHA/grPHxA/grTA/grCA/grVA/grRA/grPHA/grA/grII/grNYA/grIri/grKA/grDDA/grEE/grDA/grI/grmAA/grTTA/grNGA/grLA/grHA/grNA/grCHA/grLxA/grTTHA/grBHA/grmI/grRRA/grAI/grAA/grJHA/grNNA,
/grRAc2,
/grBA_RAc2/grBHA_RAc2/grCA_RAc2/grCHA_RAc2/grDA_RAc2/grDDA_RAc2/grDDHA_RAc2/grDHA_RAc2/grPHxA_RAc2/grGA_RAc2/grGHA_RAc2/grGxA_RAc2/grHA_RAc2/grJA_RAc2/grJHA_RAc2/grKA_RAc2/grKHA_RAc2/grLA_RAc2/grLxA_RAc2/grMA_RAc2/grNA_RAc2/grNGA_RAc2/grNNA_RAc2/grNYA_RAc2/grPA_RAc2/grPHA_RAc2/grRA_RAc2/grRRA_RAc2/grSA_RAc2/grSxA_RAc2/grTA_RAc2/grTHA_RAc2/grTTHA_RAc2/grVA_RAc2/grYA_RAc2/grJxA_RAc2/grTTA_RAc2/grKHxA_RAc2
);
date = "2016-02-08 17:46:10 +0000";
designer = "Jonny Pinhorn";
designerURL = www.jonnypinhorn.com;
familyName = "Atithi";
fontMaster = (
{
ascender = 713;
capHeight = 605;
descender = -286;
guideLines = (
{
locked = 1;
position = "{-20, -292}";
},
{
locked = 1;
position = "{-179, 928}";
},
{
locked = 1;
position = "{-20, -321}";
},
{
locked = 1;
position = "{-20, -5}";
},
{
locked = 1;
position = "{-20, 844}";
}
);
id = "F84B2E81-E30C-4BCF-B175-C3D49BDC99D5";
userData = {
GSCornerRadius = 15;
GSOffsetHorizontal = -15;
GSOffsetMakeStroke = 1;
GSOffsetPosition = 0;
GSOffsetVertical = -12;
};
weight = Light;
weightValue = 200;
widthValue = 5;
xHeight = 439;
},
{
ascender = 713;
capHeight = 616;

glyphs = (
{
color = -1;
glyphname = grA;
lastChange = "2016-02-26 16:05:11 +0000";
layers = (
{
anchors = (
{
name = top;
position = "{400, 439}";
}
);
background = {
paths = (
{
closed = 1;
nodes = (
"567 0 LINE",
"567 601 LINE",
"657 601 LINE",
"657 626 LINE",
"537 626 LINE",
"537 0 LINE"
);
},
{
closed = 1;
nodes = (
"140 296 OFFCURVE",
"180 376 OFFCURVE",
"181 451 CURVE SMOOTH",
"182 535 OFFCURVE",
"135 626 OFFCURVE",
"52 626 CURVE SMOOTH",
"0 626 LINE",
"0 601 LINE",
"91 601 LINE",
"140 560 OFFCURVE",
"155 497 OFFCURVE",
"155 412 CURVE",
"89 324 OFFCURVE",
"67 280 OFFCURVE",
"65 259 CURVE SMOOTH",
"64 247 OFFCURVE",
"73 238 OFFCURVE",
"86 236 CURVE"
);
},
{
closed = 1;
nodes = (
"342 182 OFFCURVE",
"395 290 OFFCURVE",
"395 391 CURVE SMOOTH",
"395 447 OFFCURVE",
"375 521 OFFCURVE",
"356 521 CURVE SMOOTH",
"296 521 OFFCURVE",
"229 484 OFFCURVE",
"169 421 CURVE",
"169 406 LINE",
"232 461 OFFCURVE",
"283 484 OFFCURVE",
"350 492 CURVE",
"372 451 OFFCURVE",
"369 391 OFFCURVE",
"375 332 CURVE",
"309 231 OFFCURVE",
"273 155 OFFCURVE",
"272 131 CURVE SMOOTH",
"272 118 OFFCURVE",
"286 112 OFFCURVE",
"297 113 CURVE"
);
},
{
closed = 1;
nodes = (
"453 388 OFFCURVE",
"497 417 OFFCURVE",
"552 441 CURVE",
"558 488 LINE",
"495 451 OFFCURVE",
"441 413 OFFCURVE",
"387 341 CURVE",
"389 327 LINE"
);
}
);
};
layerId = "F84B2E81-E30C-4BCF-B175-C3D49BDC99D5";
paths = (
{
closed = 1;
nodes = (
"248 117 OFFCURVE",
"285 195 OFFCURVE",
"285 260 CURVE SMOOTH",
"285 302 OFFCURVE",
"276 352 OFFCURVE",
"264 360 CURVE SMOOTH",
"252 367 OFFCURVE",
"180 351 OFFCURVE",
"123 290 CURVE",
"123 279 LINE",
"167 314 OFFCURVE",
"205 334 OFFCURVE",
"254 341 CURVE",
"265 307 OFFCURVE",
"269 264 OFFCURVE",
"269 221 CURVE",
"223 148 OFFCURVE",
"199 97 OFFCURVE",
"197 80 CURVE SMOOTH",
"196 70 OFFCURVE",
"207 66 OFFCURVE",
"215 67 CURVE"
);
},
{
closed = 1;
nodes = (
"102 199 OFFCURVE",
"131 257 OFFCURVE",
"131 312 CURVE SMOOTH",
"132 373 OFFCURVE",
"98 439 OFFCURVE",
"44 439 CURVE SMOOTH",
"-29 439 LINE",
"-29 421 LINE",
"73 421 LINE",
"100 389 OFFCURVE",
"112 345 OFFCURVE",
"112 283 CURVE",
"65 220 OFFCURVE",
"49 188 OFFCURVE",
"47 173 CURVE SMOOTH",
"46 164 OFFCURVE",
"53 157 OFFCURVE",
"62 156 CURVE"
);
},
{
closed = 1;
nodes = (
"328 262 OFFCURVE",
"360 283 OFFCURVE",
"402 300 CURVE",
"402 334 LINE",
"359 307 OFFCURVE",
"320 280 OFFCURVE",
"281 228 CURVE",
"278 213 LINE"
);
},
{
closed = 1;
nodes = (
"411 0 LINE",
"411 421 LINE",
"498 421 LINE",
"498 439 LINE",
"389 439 LINE",
"389 0 LINE"
);
}
);
width = 469;
},
{
anchors = (
{
name = top;
position = "{469, 447}";
}
);
layerId = "3B941797-445E-47EC-B390-6B41EAFC9AF2";
paths = (
{
closed = 1;
nodes = (
"331 109 OFFCURVE",
"354 189 OFFCURVE",
"354 272 CURVE SMOOTH",
"354 344 OFFCURVE",
"333 394 OFFCURVE",
"295 394 CURVE SMOOTH",
"259 394 OFFCURVE",
"207 366 OFFCURVE",
"131 301 CURVE",
"157 245 LINE",
"187 266 OFFCURVE",
"220 281 OFFCURVE",
"251 289 CURVE",
"257 276 OFFCURVE",
"262 257 OFFCURVE",
"264 238 CURVE",
"221 186 OFFCURVE",
"194 128 OFFCURVE",
"194 100 CURVE SMOOTH",
"194 74 OFFCURVE",
"246 46 OFFCURVE",
"289 41 CURVE"
);
},
{
closed = 1;
nodes = (
"157 183 OFFCURVE",
"186 247 OFFCURVE",
"186 307 CURVE SMOOTH",
"186 389 OFFCURVE",
"129 447 OFFCURVE",
"28 447 CURVE SMOOTH",
"-29 447 LINE",
"-29 363 LINE",
"67 363 LINE",
"73 336 OFFCURVE",
"75 310 OFFCURVE",
"75 281 CURVE",
"47 252 OFFCURVE",
"31 223 OFFCURVE",
"31 205 CURVE SMOOTH",
"31 183 OFFCURVE",
"75 150 OFFCURVE",
"123 141 CURVE"
);
},
{
closed = 1;
nodes = (
"375 239 OFFCURVE",
"405 251 OFFCURVE",
"444 262 CURVE",
"443 361 LINE",
"397 335 OFFCURVE",
"357 300 OFFCURVE",
"318 261 CURVE",
"338 217 LINE"
);
},
{
closed = 1;
nodes = (
"519 0 LINE",
"519 363 LINE",
"592 363 LINE",
"592 447 LINE",
"410 447 LINE",
"410 0 LINE"
);
}
);
width = 563;
},
{
anchors = (
{
name = bottom;
position = "{562, 0}";
},
{
name = top;
position = "{562, 626}";
}
);
associatedMasterId = "F84B2E81-E30C-4BCF-B175-C3D49BDC99D5";
background = {
paths = (
{
closed = 1;
nodes = (
"577 0 LINE",
"577 601 LINE",
"667 601 LINE",
"667 626 LINE",
"547 626 LINE",
"547 0 LINE"
);
},
{
closed = 1;
nodes = (
"144 286 OFFCURVE",
"170 364 OFFCURVE",
"161 445 CURVE SMOOTH",
"151 529 OFFCURVE",
"117 626 OFFCURVE",
"22 626 CURVE SMOOTH",
"-20 626 LINE",
"-20 601 LINE",
"67 601 LINE",
"114 557 OFFCURVE",
"134 490 OFFCURVE",
"142 396 CURVE",
"82 276 OFFCURVE",
"73 241 OFFCURVE",
"75 222 CURVE SMOOTH",
"77 210 OFFCURVE",
"86 203 OFFCURVE",
"99 203 CURVE"
);
},
{
closed = 1;
nodes = (
"374 209 OFFCURVE",
"414 299 OFFCURVE",
"404 380 CURVE SMOOTH",
"398 434 OFFCURVE",
"377 513 OFFCURVE",
"294 513 CURVE SMOOTH",
"241 513 OFFCURVE",
"189 466 OFFCURVE",
"154 410 CURVE",
"154 395 LINE",
"211 460 OFFCURVE",
"245 490 OFFCURVE",
"289 490 CURVE SMOOTH",
"341 490 OFFCURVE",
"381 435 OFFCURVE",
"383 331 CURVE",
"322 229 OFFCURVE",
"304 179 OFFCURVE",
"307 155 CURVE SMOOTH",
"308 142 OFFCURVE",
"321 135 OFFCURVE",
"329 136 CURVE"
);
},
{
closed = 1;
nodes = (
"472 412 OFFCURVE",
"516 403 OFFCURVE",
"551 379 CURVE",
"550 422 LINE",
"513 438 OFFCURVE",
"462 429 OFFCURVE",
"397 341 CURVE",
"399 327 LINE"
);
}
);
};
guideLines = (
{
position = "{447, 626}";
},
{
position = "{447, 601}";
}
);
layerId = "E8BD7A95-A7ED-4A48-9CF7-D492348CD655";
name = Draft1;
paths = (
{
closed = 1;
nodes = (
"577 0 LINE",
"577 601 LINE",
"667 601 LINE",
"667 626 LINE",
"547 626 LINE",
"547 0 LINE"
);
},
{
closed = 1;
nodes = (
"144 286 OFFCURVE",
"170 364 OFFCURVE",
"161 445 CURVE SMOOTH",
"151 529 OFFCURVE",
"117 626 OFFCURVE",
"22 626 CURVE SMOOTH",
"-20 626 LINE",
"-20 601 LINE",
"67 601 LINE",
"114 557 OFFCURVE",
"134 490 OFFCURVE",
"142 396 CURVE",
"82 276 OFFCURVE",
"73 241 OFFCURVE",
"75 222 CURVE SMOOTH",
"77 210 OFFCURVE",
"86 203 OFFCURVE",
"99 203 CURVE"
);
},
{
closed = 1;
nodes = (
"361 177 OFFCURVE",
"414 299 OFFCURVE",
"404 380 CURVE SMOOTH",
"398 434 OFFCURVE",
"377 513 OFFCURVE",
"294 513 CURVE SMOOTH",
"241 513 OFFCURVE",
"189 466 OFFCURVE",
"154 410 CURVE",
"154 395 LINE",
"211 460 OFFCURVE",
"245 490 OFFCURVE",
"289 490 CURVE SMOOTH",
"341 490 OFFCURVE",
"380 445 OFFCURVE",
"385 332 CURVE",
"322 229 OFFCURVE",
"286 147 OFFCURVE",
"289 123 CURVE SMOOTH",
"290 110 OFFCURVE",
"303 103 OFFCURVE",
"311 104 CURVE"
);
},
{
closed = 1;
nodes = (
"472 412 OFFCURVE",
"516 403 OFFCURVE",
"551 379 CURVE",
"550 422 LINE",
"513 438 OFFCURVE",
"462 429 OFFCURVE",
"397 341 CURVE",
"399 327 LINE"
);
}
);
width = 647;
},
{
anchors = (
{
name = bottom;
position = "{636, 0}";
},
{
name = top;
position = "{636, 616}";
}
);
associatedMasterId = "3B941797-445E-47EC-B390-6B41EAFC9AF2";
background = {
paths = (
{
closed = 1;
nodes = (
"454 156 OFFCURVE",
"483 277 OFFCURVE",
"483 375 CURVE SMOOTH",
"483 460 OFFCURVE",
"464 520 OFFCURVE",
"430 537 CURVE SMOOTH",
"389 558 OFFCURVE",
"295 521 OFFCURVE",
"174 426 CURVE",
"212 334 LINE",
"253 363 OFFCURVE",
"298 383 OFFCURVE",
"341 395 CURVE",
"348 368 OFFCURVE",
"351 350 OFFCURVE",
"352 319 CURVE",
"295 248 OFFCURVE",
"262 177 OFFCURVE",
"262 138 CURVE SMOOTH",
"262 102 OFFCURVE",
"334 64 OFFCURVE",
"394 56 CURVE"
);
},
{
closed = 1;
nodes = (
"212 252 OFFCURVE",
"252 340 OFFCURVE",
"252 423 CURVE SMOOTH",
"252 536 OFFCURVE",
"173 616 OFFCURVE",
"33 616 CURVE SMOOTH",
"-35 616 LINE",
"-35 501 LINE",
"76 500 LINE",
"87 465 OFFCURVE",
"94 428 OFFCURVE",
"98 388 CURVE",
"60 348 OFFCURVE",
"38 308 OFFCURVE",
"38 283 CURVE SMOOTH",
"38 253 OFFCURVE",
"99 207 OFFCURVE",
"164 195 CURVE"
);
},
{
closed = 1;
nodes = (
"508 301 OFFCURVE",
"550 322 OFFCURVE",
"603 342 CURVE",
"606 518 LINE",
"542 471 OFFCURVE",
"490 427 OFFCURVE",
"434 363 CURVE",
"457 270 LINE"
);
},
{
closed = 1;
nodes = (
"711 0 LINE",
"711 501 LINE",
"787 501 LINE",
"787 616 LINE",
"561 616 LINE",
"561 0 LINE"
);
}
);
};
layerId = "354F3224-B9E2-4C8E-BF59-6003A0D0032B";
name = "Draft 1";
paths = (
{
closed = 1;
nodes = (
"454 156 OFFCURVE",
"483 277 OFFCURVE",
"483 375 CURVE SMOOTH",
"483 460 OFFCURVE",
"464 520 OFFCURVE",
"430 537 CURVE SMOOTH",
"389 558 OFFCURVE",
"295 521 OFFCURVE",
"174 426 CURVE",
"212 334 LINE",
"253 363 OFFCURVE",
"298 383 OFFCURVE",
"341 395 CURVE",
"348 368 OFFCURVE",
"351 350 OFFCURVE",
"352 319 CURVE",
"295 248 OFFCURVE",
"262 177 OFFCURVE",
"262 138 CURVE SMOOTH",
"262 102 OFFCURVE",
"334 64 OFFCURVE",
"394 56 CURVE"
);
},
{
closed = 1;
nodes = (
"212 252 OFFCURVE",
"252 340 OFFCURVE",
"252 423 CURVE SMOOTH",
"252 536 OFFCURVE",
"173 616 OFFCURVE",
"33 616 CURVE SMOOTH",
"-35 616 LINE",
"-35 501 LINE",
"76 500 LINE",
"87 465 OFFCURVE",
"94 428 OFFCURVE",
"98 388 CURVE",
"60 348 OFFCURVE",
"38 308 OFFCURVE",
"38 283 CURVE SMOOTH",
"38 253 OFFCURVE",
"99 207 OFFCURVE",
"164 195 CURVE"
);
},
{
closed = 1;
nodes = (
"508 301 OFFCURVE",
"550 322 OFFCURVE",
"603 342 CURVE",
"606 518 LINE",
"542 471 OFFCURVE",
"490 427 OFFCURVE",
"434 363 CURVE",
"457 270 LINE"
);
},
{
closed = 1;
nodes = (
"711 0 LINE",
"711 501 LINE",
"787 501 LINE",
"787 616 LINE",
"561 616 LINE",
"561 0 LINE"
);
}
);
width = 755;
},
{
anchors = (
{
name = bottom;
position = "{636, 0}";
},
{
name = top;
position = "{636, 616}";
}
);
associatedMasterId = "3B941797-445E-47EC-B390-6B41EAFC9AF2";
background = {
paths = (
{
closed = 0;
nodes = (
"649 502 LINE SMOOTH",
"615 502 OFFCURVE",
"561 475 OFFCURVE",
"434 354 CURVE",
"459 293 LINE",
"500 322 OFFCURVE",
"545 342 OFFCURVE",
"588 354 CURVE"
);
}
);
};
layerId = "1122E02E-F0DA-473C-AA49-12C0EB9BD2BD";
name = "Draft 2";
paths = (
{
closed = 1;
nodes = (
"452 151 OFFCURVE",
"483 260 OFFCURVE",
"483 375 CURVE SMOOTH",
"483 475 OFFCURVE",
"454 543 OFFCURVE",
"402 543 CURVE SMOOTH",
"368 543 OFFCURVE",
"314 516 OFFCURVE",
"187 395 CURVE",
"212 334 LINE",
"253 363 OFFCURVE",
"298 383 OFFCURVE",
"341 395 CURVE",
"348 368 OFFCURVE",
"351 350 OFFCURVE",
"352 319 CURVE",
"295 248 OFFCURVE",
"262 177 OFFCURVE",
"262 138 CURVE SMOOTH",
"262 102 OFFCURVE",
"334 64 OFFCURVE",
"394 56 CURVE"
);
},
{
closed = 1;
nodes = (
"212 252 OFFCURVE",
"252 340 OFFCURVE",
"252 423 CURVE SMOOTH",
"252 536 OFFCURVE",
"173 616 OFFCURVE",
"33 616 CURVE SMOOTH",
"-35 616 LINE",
"-35 501 LINE",
"88 500 LINE",
"95 464 OFFCURVE",
"98 428 OFFCURVE",
"98 388 CURVE",
"60 348 OFFCURVE",
"38 308 OFFCURVE",
"38 283 CURVE SMOOTH",
"38 253 OFFCURVE",
"99 207 OFFCURVE",
"164 195 CURVE"
);
},
{
closed = 1;
nodes = (
"512 330 OFFCURVE",
"554 346 OFFCURVE",
"607 361 CURVE",
"606 498 LINE",
"542 462 OFFCURVE",
"488 414 OFFCURVE",
"434 360 CURVE",
"461 299 LINE"
);
},
{
closed = 1;
nodes = (
"711 0 LINE",
"711 501 LINE",
"787 501 LINE",
"787 616 LINE",
"561 616 LINE",
"561 0 LINE"
);
}
);
width = 755;
visible = 1;
}
);
unicode = 0A05;
},
{
color = -1;
glyphname = grOO;
lastChange = "2016-02-26 16:05:11 +0000";
layers = (
{
background = {
paths = (
{
closed = 1;
nodes = (
"393 -5 OFFCURVE",
"508 78 OFFCURVE",
"508 211 CURVE SMOOTH",
"508 279 OFFCURVE",
"480 343 OFFCURVE",
"422 400 CURVE",
"401 392 LINE",
"449 349 OFFCURVE",
"478 287 OFFCURVE",
"478 219 CURVE SMOOTH",
"478 92 OFFCURVE",
"366 16 OFFCURVE",
"251 15 CURVE",
"127 75 OFFCURVE",
"63 248 OFFCURVE",
"63 428 CURVE SMOOTH",
"63 647 OFFCURVE",
"151 819 OFFCURVE",
"365 819 CURVE SMOOTH",
"431 819 OFFCURVE",
"493 797 OFFCURVE",
"569 762 CURVE",
"579 778 LINE",
"504 818 OFFCURVE",
"438 844 OFFCURVE",
"360 844 CURVE SMOOTH",
"143 844 OFFCURVE",
"31 673 OFFCURVE",
"31 439 CURVE SMOOTH",
"31 174 OFFCURVE",
"170 -5 OFFCURVE",
"273 -5 CURVE SMOOTH"
);
},
{
closed = 1;
nodes = (
"274 350 LINE SMOOTH",
"468 351 OFFCURVE",
"544 453 OFFCURVE",
"554 584 CURVE",
"525 584 LINE",
"513 460 OFFCURVE",
"442 374 OFFCURVE",
"274 374 CURVE SMOOTH",
"58 374 LINE",
"58 349 LINE"
);
},
{
closed = 1;
nodes = (
"604 580 LINE",
"604 605 LINE",
"-20 605 LINE",
"-20 580 LINE"
);
}
);
};
layerId = "F84B2E81-E30C-4BCF-B175-C3D49BDC99D5";
paths = (
{
closed = 1;
nodes = (
"307 -4 OFFCURVE",
"390 57 OFFCURVE",
"390 153 CURVE SMOOTH",
"390 202 OFFCURVE",
"370 249 OFFCURVE",
"328 290 CURVE",
"312 284 LINE",
"347 253 OFFCURVE",
"368 208 OFFCURVE",
"368 159 CURVE SMOOTH",
"368 67 OFFCURVE",
"287 12 OFFCURVE",
"204 11 CURVE",
"114 54 OFFCURVE",
"67 180 OFFCURVE",
"67 310 CURVE SMOOTH",
"67 469 OFFCURVE",
"131 594 OFFCURVE",
"286 594 CURVE SMOOTH",
"334 594 OFFCURVE",
"379 578 OFFCURVE",
"434 552 CURVE",
"442 564 LINE",
"387 593 OFFCURVE",
"339 612 OFFCURVE",
"283 612 CURVE SMOOTH",
"125 612 OFFCURVE",
"44 488 OFFCURVE",
"44 318 CURVE SMOOTH",
"44 126 OFFCURVE",
"145 -4 OFFCURVE",
"220 -4 CURVE SMOOTH"
);
},
{
closed = 1;
nodes = (
"220 254 LINE SMOOTH",
"361 254 OFFCURVE",
"416 328 OFFCURVE",
"423 423 CURVE",
"402 423 LINE",
"394 334 OFFCURVE",
"342 271 OFFCURVE",
"220 271 CURVE SMOOTH",
"64 271 LINE",
"64 253 LINE"
);
},
{
closed = 1;
nodes = (
"481 421 LINE",
"481 439 LINE",
"-29 439 LINE",
"-29 421 LINE"
);
}
);
width = 452;
},
{
background = {
components = (
{
name = grUra;
}
);
};
layerId = "3B941797-445E-47EC-B390-6B41EAFC9AF2";
paths = (
{
closed = 1;
nodes = (
"388 -4 OFFCURVE",
"438 54 OFFCURVE",
"438 119 CURVE SMOOTH",
"438 179 OFFCURVE",
"398 231 OFFCURVE",
"348 257 CURVE",
"300 214 LINE",
"317 195 OFFCURVE",
"326 170 OFFCURVE",
"326 147 CURVE SMOOTH",
"326 109 OFFCURVE",
"306 80 OFFCURVE",
"196 80 CURVE",
"165 140 OFFCURVE",
"145 215 OFFCURVE",
"145 309 CURVE SMOOTH",
"145 467 OFFCURVE",
"186 547 OFFCURVE",
"298 547 CURVE SMOOTH",
"344 547 OFFCURVE",
"386 536 OFFCURVE",
"448 511 CURVE",
"484 573 LINE",
"415 606 OFFCURVE",
"360 623 OFFCURVE",
"289 623 CURVE SMOOTH",
"125 623 OFFCURVE",
"32 508 OFFCURVE",
"32 315 CURVE SMOOTH",
"32 161 OFFCURVE",
"115 -4 OFFCURVE",
"289 -4 CURVE SMOOTH"
);
},
{
closed = 1;
nodes = (
"263 194 LINE SMOOTH",
"406 195 OFFCURVE",
"471 281 OFFCURVE",
"471 376 CURVE",
"363 376 LINE",
"363 327 OFFCURVE",
"346 277 OFFCURVE",
"263 277 CURVE SMOOTH",
"112 277 LINE",
"112 194 LINE"
);
},
{
closed = 1;
nodes = (
"527 363 LINE",
"527 447 LINE",
"-29 447 LINE",
"-29 363 LINE"
);
}
);
width = 498;
}
);
unicode = 0A13;
},
{
color = -1;
glyphname = grKA;
lastChange = "2016-02-26 16:05:11 +0000";
layers = (
{
anchors = (
{
name = bottom;
position = "{225, 0}";
},
{
name = top;
position = "{340, 439}";
}
);
guideLines = (
{
angle = 90;
position = "{265, 156}";
},
{
position = "{243, 261}";
}
);
layerId = "F84B2E81-E30C-4BCF-B175-C3D49BDC99D5";
paths = (
{
closed = 1;
nodes = (
"428 -2 LINE",
"363 190 OFFCURVE",
"303 298 OFFCURVE",
"176 298 CURVE SMOOTH",
"99 298 OFFCURVE",
"42 252 OFFCURVE",
"42 173 CURVE SMOOTH",
"42 100 OFFCURVE",
"102 49 OFFCURVE",
"178 49 CURVE SMOOTH",
"261 49 OFFCURVE",
"361 120 OFFCURVE",
"361 315 CURVE SMOOTH",
"361 352 OFFCURVE",
"357 387 OFFCURVE",
"352 427 CURVE",
"328 427 LINE",
"334 386 OFFCURVE",
"337 350 OFFCURVE",
"337 315 CURVE SMOOTH",
"337 136 OFFCURVE",
"249 69 OFFCURVE",
"173 69 CURVE SMOOTH",
"131 69 OFFCURVE",
"91 85 OFFCURVE",
"65 120 CURVE",
"64 131 OFFCURVE",
"62 141 OFFCURVE",
"62 153 CURVE SMOOTH",
"62 234 OFFCURVE",
"108 278 OFFCURVE",
"178 278 CURVE SMOOTH",
"233 278 OFFCURVE",
"279 251 OFFCURVE",
"322 192 CURVE",
"420 -6 LINE"
);
},
{
closed = 1;
nodes = (
"492 421 LINE",
"492 439 LINE",
"-29 439 LINE",
"-29 421 LINE"
);
}
);
width = 463;
},
{
associatedMasterId = "3B941797-445E-47EC-B390-6B41EAFC9AF2";
backgroundImage = {
crop = "{{0, 0}, {1221, 1093}}";
imagePath = FullSizeRender.jpg;
locked = "1";
transform = "{0.600, 0, 0, 0.650, -67, -47}";
};
layerId = "214B1719-34E8-458F-9A9C-03475877AEBE";
name = Draft1;
paths = (
{
closed = 1;
nodes = (
"513 -1 OFFCURVE",
"557 15 OFFCURVE",
"580 29 CURVE",
"432 375 OFFCURVE",
"334 429 OFFCURVE",
"206 429 CURVE SMOOTH",
"80 429 OFFCURVE",
"16 355 OFFCURVE",
"16 255 CURVE SMOOTH",
"16 130 OFFCURVE",
"125 55 OFFCURVE",
"244 55 CURVE SMOOTH",
"387 55 OFFCURVE",
"501 188 OFFCURVE",
"533 398 CURVE SMOOTH",
"553 529 LINE",
"403 529 LINE",
"383 398 LINE SMOOTH",
"355 215 OFFCURVE",
"271 155 OFFCURVE",
"224 155 CURVE SMOOTH",
"206 155 OFFCURVE",
"188 158 OFFCURVE",
"175 162 CURVE",
"169 181 OFFCURVE",
"166 199 OFFCURVE",
"166 223 CURVE SMOOTH",
"166 278 OFFCURVE",
"191 329 OFFCURVE",
"244 329 CURVE SMOOTH",
"259 329 OFFCURVE",
"271 327 OFFCURVE",
"285 323 CURVE",
"347 265 OFFCURVE",
"392 179 OFFCURVE",
"480 -1 CURVE"
);
},
{
closed = 1;
nodes = (
"678 501 LINE",
"678 616 LINE",
"-20 616 LINE",
"-20 501 LINE"
);
}
);
width = 600;
},
{
anchors = (
{
name = bottom;
position = "{232, 0}";
},
{
name = top;
position = "{331, 447}";
}
);
background = {
paths = (
{
closed = 1;
nodes = (
"513 273 OFFCURVE",
"547 307 OFFCURVE",
"547 350 CURVE SMOOTH",
"547 392 OFFCURVE",
"513 426 OFFCURVE",
"471 426 CURVE SMOOTH",
"428 426 OFFCURVE",
"394 392 OFFCURVE",
"394 350 CURVE SMOOTH",
"394 307 OFFCURVE",
"428 273 OFFCURVE",
"471 273 CURVE SMOOTH"
);
},
{
closed = 1;
nodes = (
"153 189 OFFCURVE",
"187 223 OFFCURVE",
"187 266 CURVE SMOOTH",
"187 308 OFFCURVE",
"153 342 OFFCURVE",
"111 342 CURVE SMOOTH",
"68 342 OFFCURVE",
"34 308 OFFCURVE",
"34 266 CURVE SMOOTH",
"34 223 OFFCURVE",
"68 189 OFFCURVE",
"111 189 CURVE SMOOTH"
);
},
{
closed = 1;
nodes = (
"447 103 OFFCURVE",
"481 137 OFFCURVE",
"481 180 CURVE SMOOTH",
"481 222 OFFCURVE",
"447 256 OFFCURVE",
"405 256 CURVE SMOOTH",
"362 256 OFFCURVE",
"328 222 OFFCURVE",
"328 180 CURVE SMOOTH",
"328 137 OFFCURVE",
"362 103 OFFCURVE",
"405 103 CURVE SMOOTH"
);
},
{
closed = 1;
nodes = (
"617 17 LINE",
"549 303 OFFCURVE",
"420 420 OFFCURVE",
"242 420 CURVE SMOOTH",
"112 420 OFFCURVE",
"31 345 OFFCURVE",
"31 237 CURVE SMOOTH",
"31 120 OFFCURVE",
"137 46 OFFCURVE",
"263 46 CURVE SMOOTH",
"446 46 OFFCURVE",
"549 169 OFFCURVE",
"549 361 CURVE SMOOTH",
"549 416 OFFCURVE",
"544 476 OFFCURVE",
"534 529 CURVE",
"379 529 LINE",
"391 472 OFFCURVE",
"395 413 OFFCURVE",
"395 361 CURVE SMOOTH",
"395 211 OFFCURVE",
"336 146 OFFCURVE",
"233 146 CURVE SMOOTH",
"215 146 OFFCURVE",
"193 149 OFFCURVE",
"180 153 CURVE",
"177 162 OFFCURVE",
"175 177 OFFCURVE",
"175 194 CURVE SMOOTH",
"175 269 OFFCURVE",
"214 305 OFFCURVE",
"278 305 CURVE SMOOTH",
"318 305 OFFCURVE",
"353 290 OFFCURVE",
"389 261 CURVE",
"539 -10 LINE"
);
},
{
closed = 1;
nodes = (
"655 501 LINE",
"655 616 LINE",
"-15 616 LINE",
"-15 501 LINE"
);
}
);
};
backgroundImage = {
crop = "{{0, 0}, {1221, 1093}}";
imagePath = FullSizeRender.jpg;
transform = "{0.600, 0, 0, 0.650, -7, 690}";
};
layerId = "3B941797-445E-47EC-B390-6B41EAFC9AF2";
paths = (
{
closed = 1;
nodes = (
"447 12 LINE",
"398 220 OFFCURVE",
"305 305 OFFCURVE",
"175 305 CURVE SMOOTH",
"81 305 OFFCURVE",
"22 250 OFFCURVE",
"22 172 CURVE SMOOTH",
"22 87 OFFCURVE",
"99 33 OFFCURVE",
"191 33 CURVE SMOOTH",
"330 33 OFFCURVE",
"397 128 OFFCURVE",
"397 271 CURVE SMOOTH",
"397 307 OFFCURVE",
"393 342 OFFCURVE",
"386 384 CURVE",
"275 384 LINE",
"282 341 OFFCURVE",
"286 300 OFFCURVE",
"286 263 CURVE SMOOTH",
"286 171 OFFCURVE",
"257 106 OFFCURVE",
"169 106 CURVE SMOOTH",
"156 106 OFFCURVE",
"140 108 OFFCURVE",
"131 111 CURVE",
"128 117 OFFCURVE",
"127 128 OFFCURVE",
"127 141 CURVE SMOOTH",
"127 195 OFFCURVE",
"155 221 OFFCURVE",
"202 221 CURVE SMOOTH",
"231 221 OFFCURVE",
"256 210 OFFCURVE",
"282 189 CURVE",
"391 -7 LINE"
);
},
{
closed = 1;
nodes = (
"500 363 LINE",
"500 447 LINE",
"-29 447 LINE",
"-29 363 LINE"
);
}
);
width = 471;
},
{
associatedMasterId = "F84B2E81-E30C-4BCF-B175-C3D49BDC99D5";
background = {
paths = (
{
closed = 1;
nodes = (
"489 572 OFFCURVE",
"496 579 OFFCURVE",
"496 589 CURVE SMOOTH",
"496 598 OFFCURVE",
"489 605 OFFCURVE",
"480 605 CURVE SMOOTH",
"470 605 OFFCURVE",
"463 598 OFFCURVE",
"463 589 CURVE SMOOTH",
"463 579 OFFCURVE",
"470 572 OFFCURVE",
"480 572 CURVE SMOOTH"
);
},
{
closed = 1;
nodes = (
"473 452 OFFCURVE",
"480 459 OFFCURVE",
"480 469 CURVE SMOOTH",
"480 478 OFFCURVE",
"473 485 OFFCURVE",
"464 485 CURVE SMOOTH",
"454 485 OFFCURVE",
"447 478 OFFCURVE",
"447 469 CURVE SMOOTH",
"447 459 OFFCURVE",
"454 452 OFFCURVE",
"464 452 CURVE SMOOTH"
);
},
{
closed = 1;
nodes = (
"449 336 OFFCURVE",
"456 343 OFFCURVE",
"456 353 CURVE SMOOTH",
"456 362 OFFCURVE",
"449 369 OFFCURVE",
"440 369 CURVE SMOOTH",
"430 369 OFFCURVE",
"423 362 OFFCURVE",
"423 353 CURVE SMOOTH",
"423 343 OFFCURVE",
"430 336 OFFCURVE",
"440 336 CURVE SMOOTH"
);
},
{
closed = 1;
nodes = (
"398 214 OFFCURVE",
"405 221 OFFCURVE",
"405 231 CURVE SMOOTH",
"405 240 OFFCURVE",
"398 247 OFFCURVE",
"389 247 CURVE SMOOTH",
"379 247 OFFCURVE",
"372 240 OFFCURVE",
"372 231 CURVE SMOOTH",
"372 221 OFFCURVE",
"379 214 OFFCURVE",
"389 214 CURVE SMOOTH"
);
},
{
closed = 1;
nodes = (
"149 373 OFFCURVE",
"156 380 OFFCURVE",
"156 390 CURVE SMOOTH",
"156 399 OFFCURVE",
"149 406 OFFCURVE",
"140 406 CURVE SMOOTH",
"130 406 OFFCURVE",
"123 399 OFFCURVE",
"123 390 CURVE SMOOTH",
"123 380 OFFCURVE",
"130 373 OFFCURVE",
"140 373 CURVE SMOOTH"
);
},
{
closed = 1;
nodes = (
"55 222 OFFCURVE",
"62 229 OFFCURVE",
"62 239 CURVE SMOOTH",
"62 248 OFFCURVE",
"55 255 OFFCURVE",
"46 255 CURVE SMOOTH",
"36 255 OFFCURVE",
"29 248 OFFCURVE",
"29 239 CURVE SMOOTH",
"29 229 OFFCURVE",
"36 222 OFFCURVE",
"46 222 CURVE SMOOTH"
);
}
);
};
guideLines = (
{
angle = 90;
position = "{234, 156}";
}
);
layerId = "EFB825C7-D332-4337-AD32-37452FEE1DEC";
name = Draft1;
paths = (
{
closed = 1;
nodes = (
"567 5 LINE",
"440 369 OFFCURVE",
"332 422 OFFCURVE",
"223 422 CURVE SMOOTH",
"103 422 OFFCURVE",
"30 343 OFFCURVE",
"30 238 CURVE SMOOTH",
"30 141 OFFCURVE",
"92 90 OFFCURVE",
"197 90 CURVE SMOOTH",
"336 90 OFFCURVE",
"466 208 OFFCURVE",
"498 610 CURVE",
"465 610 LINE",
"436 250 OFFCURVE",
"330 115 OFFCURVE",
"186 115 CURVE SMOOTH",
"144 115 OFFCURVE",
"107 125 OFFCURVE",
"78 146 CURVE",
"67 170 OFFCURVE",
"62 196 OFFCURVE",
"62 230 CURVE SMOOTH",
"62 334 OFFCURVE",
"130 395 OFFCURVE",
"226 395 CURVE SMOOTH",
"297 395 OFFCURVE",
"353 366 OFFCURVE",
"406 296 CURVE",
"554 0 LINE"
);
},
{
closed = 1;
nodes = (
"637 601 LINE",
"637 626 LINE",
"-11 626 LINE",
"-11 601 LINE"
);
}
);
width = 600;
},
{
associatedMasterId = "F84B2E81-E30C-4BCF-B175-C3D49BDC99D5";
background = {
paths = (
{
closed = 1;
nodes = (
"489 572 OFFCURVE",
"496 579 OFFCURVE",
"496 589 CURVE SMOOTH",
"496 598 OFFCURVE",
"489 605 OFFCURVE",
"480 605 CURVE SMOOTH",
"470 605 OFFCURVE",
"463 598 OFFCURVE",
"463 589 CURVE SMOOTH",
"463 579 OFFCURVE",
"470 572 OFFCURVE",
"480 572 CURVE SMOOTH"
);
},
{
closed = 1;
nodes = (
"473 452 OFFCURVE",
"480 459 OFFCURVE",
"480 469 CURVE SMOOTH",
"480 478 OFFCURVE",
"473 485 OFFCURVE",
"464 485 CURVE SMOOTH",
"454 485 OFFCURVE",
"447 478 OFFCURVE",
"447 469 CURVE SMOOTH",
"447 459 OFFCURVE",
"454 452 OFFCURVE",
"464 452 CURVE SMOOTH"
);
},
{
closed = 1;
nodes = (
"449 336 OFFCURVE",
"456 343 OFFCURVE",
"456 353 CURVE SMOOTH",
"456 362 OFFCURVE",
"449 369 OFFCURVE",
"440 369 CURVE SMOOTH",
"430 369 OFFCURVE",
"423 362 OFFCURVE",
"423 353 CURVE SMOOTH",
"423 343 OFFCURVE",
"430 336 OFFCURVE",
"440 336 CURVE SMOOTH"
);
},
{
closed = 1;
nodes = (
"398 214 OFFCURVE",
"405 221 OFFCURVE",
"405 231 CURVE SMOOTH",
"405 240 OFFCURVE",
"398 247 OFFCURVE",
"389 247 CURVE SMOOTH",
"379 247 OFFCURVE",
"372 240 OFFCURVE",
"372 231 CURVE SMOOTH",
"372 221 OFFCURVE",
"379 214 OFFCURVE",
"389 214 CURVE SMOOTH"
);
},
{
closed = 1;
nodes = (
"149 373 OFFCURVE",
"156 380 OFFCURVE",
"156 390 CURVE SMOOTH",
"156 399 OFFCURVE",
"149 406 OFFCURVE",
"140 406 CURVE SMOOTH",
"130 406 OFFCURVE",
"123 399 OFFCURVE",
"123 390 CURVE SMOOTH",
"123 380 OFFCURVE",
"130 373 OFFCURVE",
"140 373 CURVE SMOOTH"
);
},
{
closed = 1;
nodes = (
"55 222 OFFCURVE",
"62 229 OFFCURVE",
"62 239 CURVE SMOOTH",
"62 248 OFFCURVE",
"55 255 OFFCURVE",
"46 255 CURVE SMOOTH",
"36 255 OFFCURVE",
"29 248 OFFCURVE",
"29 239 CURVE SMOOTH",
"29 229 OFFCURVE",
"36 222 OFFCURVE",
"46 222 CURVE SMOOTH"
);
}
);
};
guideLines = (
{
angle = 90;
position = "{234, 156}";
}
);
layerId = "1D349EDD-2A79-4F63-AB35-372620F4FD85";
name = "Light Feb 16 16, 14:12";
paths = (
{
closed = 1;
nodes = (
"567 5 LINE",
"440 369 OFFCURVE",
"363 406 OFFCURVE",
"256 427 CURVE SMOOTH",
"138 451 OFFCURVE",
"51 388 OFFCURVE",
"30 286 CURVE SMOOTH",
"11 190 OFFCURVE",
"71 114 OFFCURVE",
"174 93 CURVE SMOOTH",
"310 65 OFFCURVE",
"512 178 OFFCURVE",
"454 610 CURVE",
"421 610 LINE",
"482 220 OFFCURVE",
"310 91 OFFCURVE",
"168 120 CURVE SMOOTH",
"127 128 OFFCURVE",
"83 159 OFFCURVE",
"59 186 CURVE",
"53 212 OFFCURVE",
"53 238 OFFCURVE",
"60 271 CURVE SMOOTH",
"81 373 OFFCURVE",
"159 419 OFFCURVE",
"254 400 CURVE SMOOTH",
"323 386 OFFCURVE",
"353 366 OFFCURVE",
"406 296 CURVE",
"554 0 LINE"
);
},
{
closed = 1;
nodes = (
"637 601 LINE",
"637 626 LINE",
"-11 626 LINE",
"-11 601 LINE"
);
}
);
width = 600;
},
{
associatedMasterId = "3B941797-445E-47EC-B390-6B41EAFC9AF2";
background = {
paths = (
{
closed = 1;
nodes = (
"507 273 OFFCURVE",
"541 307 OFFCURVE",
"541 350 CURVE SMOOTH",
"541 392 OFFCURVE",
"507 426 OFFCURVE",
"465 426 CURVE SMOOTH",
"422 426 OFFCURVE",
"388 392 OFFCURVE",
"388 350 CURVE SMOOTH",
"388 307 OFFCURVE",
"422 273 OFFCURVE",
"465 273 CURVE SMOOTH"
);
},
{
closed = 1;
nodes = (
"147 189 OFFCURVE",
"181 223 OFFCURVE",
"181 266 CURVE SMOOTH",
"181 308 OFFCURVE",
"147 342 OFFCURVE",
"105 342 CURVE SMOOTH",
"62 342 OFFCURVE",
"28 308 OFFCURVE",
"28 266 CURVE SMOOTH",
"28 223 OFFCURVE",
"62 189 OFFCURVE",
"105 189 CURVE SMOOTH"
);
},
{
closed = 1;
nodes = (
"441 103 OFFCURVE",
"475 137 OFFCURVE",
"475 180 CURVE SMOOTH",
"475 222 OFFCURVE",
"441 256 OFFCURVE",
"399 256 CURVE SMOOTH",
"356 256 OFFCURVE",
"322 222 OFFCURVE",
"322 180 CURVE SMOOTH",
"322 137 OFFCURVE",
"356 103 OFFCURVE",
"399 103 CURVE SMOOTH"
);
},
{
closed = 1;
nodes = (
"612 26 LINE",
"544 312 OFFCURVE",
"415 429 OFFCURVE",
"247 429 CURVE SMOOTH",
"97 429 OFFCURVE",
"26 334 OFFCURVE",
"26 246 CURVE SMOOTH",
"26 129 OFFCURVE",
"143 55 OFFCURVE",
"258 55 CURVE SMOOTH",
"441 55 OFFCURVE",
"558 230 OFFCURVE",
"558 529 CURVE",
"405 529 LINE",
"403 266 OFFCURVE",
"333 155 OFFCURVE",
"228 155 CURVE SMOOTH",
"210 155 OFFCURVE",
"188 158 OFFCURVE",
"175 162 CURVE",
"172 171 OFFCURVE",
"170 181 OFFCURVE",
"170 193 CURVE SMOOTH",
"170 268 OFFCURVE",
"219 314 OFFCURVE",
"276 314 CURVE SMOOTH",
"307 314 OFFCURVE",
"340 302 OFFCURVE",
"373 280 CURVE",
"533 -1 LINE"
);
},
{
closed = 1;
nodes = (
"650 501 LINE",
"650 616 LINE",
"-20 616 LINE",
"-20 501 LINE"
);
}
);
};
backgroundImage = {
crop = "{{0, 0}, {1221, 1093}}";
imagePath = FullSizeRender.jpg;
transform = "{0.600, 0, 0, 0.650, -12, 690}";
};
layerId = "B9E4F348-C51E-426A-844F-AF29AC8BB764";
name = Draft2;
paths = (
{
closed = 1;
nodes = (
"612 26 LINE",
"544 312 OFFCURVE",
"415 429 OFFCURVE",
"237 429 CURVE SMOOTH",
"107 429 OFFCURVE",
"26 354 OFFCURVE",
"26 246 CURVE SMOOTH",
"26 129 OFFCURVE",
"132 55 OFFCURVE",
"258 55 CURVE SMOOTH",
"441 55 OFFCURVE",
"558 230 OFFCURVE",
"558 529 CURVE",
"405 529 LINE",
"403 266 OFFCURVE",
"333 155 OFFCURVE",
"228 155 CURVE SMOOTH",
"210 155 OFFCURVE",
"188 158 OFFCURVE",
"175 162 CURVE",
"172 171 OFFCURVE",
"170 186 OFFCURVE",
"170 203 CURVE SMOOTH",
"170 278 OFFCURVE",
"209 314 OFFCURVE",
"273 314 CURVE SMOOTH",
"310 314 OFFCURVE",
"343 302 OFFCURVE",
"373 280 CURVE",
"533 -1 LINE"
);
},
{
closed = 1;
nodes = (
"650 501 LINE",
"650 616 LINE",
"-20 616 LINE",
"-20 501 LINE"
);
}
);
width = 630;
}
);
unicode = 0A15;
},
{
color = -1;
glyphname = grKHA;
lastChange = "2016-02-26 16:05:11 +0000";
layers = (
{
background = {
components = (
{
name = grDHA;
}
);
};
components = (
{
name = grPA;
}
);
layerId = "F84B2E81-E30C-4BCF-B175-C3D49BDC99D5";
paths = (
{
closed = 1;
nodes = (
"314 269 LINE",
"314 287 LINE",
"102 287 LINE",
"102 269 LINE"
);
}
);
width = 381;
},
{
components = (
{
name = grPA;
}
);
layerId = "3B941797-445E-47EC-B390-6B41EAFC9AF2";
paths = (
{
closed = 1;
nodes = (
"324 235 LINE",
"324 318 LINE",
"149 318 LINE",
"149 235 LINE"
);
}
);
width = 461;
}
);
unicode = 0A16;
},
{
color = -1;
glyphname = grGHA;
lastChange = "2016-02-26 16:05:11 +0000";
layers = (
{
background = {
components = (
{
name = grPA;
}
);
};
layerId = "F84B2E81-E30C-4BCF-B175-C3D49BDC99D5";
paths = (
{
closed = 1;
nodes = (
"426 0 LINE",
"426 421 LINE",
"513 421 LINE",
"513 439 LINE",
"405 439 LINE",
"405 162 LINE",
"368 134 OFFCURVE",
"351 122 OFFCURVE",
"318 122 CURVE SMOOTH",
"287 122 OFFCURVE",
"266 137 OFFCURVE",
"251 203 CURVE",
"245 186 LINE",
"257 124 OFFCURVE",
"286 101 OFFCURVE",
"325 101 CURVE SMOOTH",
"350 101 OFFCURVE",
"377 115 OFFCURVE",
"403 136 CURVE",
"406 136 LINE",
"405 75 LINE",
"405 0 LINE"
);
},
{
closed = 1;
nodes = (
"202 101 OFFCURVE",
"267 146 OFFCURVE",
"267 311 CURVE SMOOTH",
"267 346 OFFCURVE",
"265 383 OFFCURVE",
"262 418 CURVE",
"257 421 OFFCURVE",
"252 421 OFFCURVE",
"247 418 CURVE",
"244 383 OFFCURVE",
"242 346 OFFCURVE",
"242 311 CURVE SMOOTH",
"242 285 OFFCURVE",
"242 237 OFFCURVE",
"244 202 CURVE",
"223 147 OFFCURVE",
"192 122 OFFCURVE",
"139 122 CURVE SMOOTH",
"105 122 OFFCURVE",
"68 141 OFFCURVE",
"58 171 CURVE",
"102 235 OFFCURVE",
"115 272 OFFCURVE",
"115 323 CURVE SMOOTH",
"115 381 OFFCURVE",
"88 439 OFFCURVE",
"20 439 CURVE SMOOTH",
"-29 439 LINE",
"-29 421 LINE SMOOTH",
"20 421 LINE SMOOTH",
"42 421 OFFCURVE",
"59 418 OFFCURVE",
"75 409 CURVE",
"88 383 OFFCURVE",
"94 355 OFFCURVE",
"94 323 CURVE SMOOTH",
"94 279 OFFCURVE",
"80 238 OFFCURVE",
"44 191 CURVE SMOOTH",
"38 184 OFFCURVE",
"36 179 OFFCURVE",
"36 174 CURVE SMOOTH",
"36 141 OFFCURVE",
"85 101 OFFCURVE",
"139 101 CURVE SMOOTH"
);
}
);
width = 484;
},
{
background = {
components = (
{
name = grPA;
}
);
};
layerId = "3B941797-445E-47EC-B390-6B41EAFC9AF2";
paths = (
{
closed = 1;
nodes = (
"584 0 LINE",
"584 363 LINE",
"657 363 LINE",
"657 447 LINE",
"476 447 LINE",
"476 215 LINE",
"452 188 OFFCURVE",
"402 167 OFFCURVE",
"366 167 CURVE SMOOTH",
"352 167 OFFCURVE",
"341 170 OFFCURVE",
"333 176 CURVE",
"295 146 LINE",
"324 91 OFFCURVE",
"358 71 OFFCURVE",
"392 71 CURVE SMOOTH",
"417 71 OFFCURVE",
"455 83 OFFCURVE",
"477 95 CURVE",
"480 93 LINE",
"476 26 LINE",
"476 0 LINE"
);
},
{
closed = 1;
nodes = (
"300 71 OFFCURVE",
"392 183 OFFCURVE",
"392 327 CURVE SMOOTH",
"392 372 OFFCURVE",
"383 407 OFFCURVE",
"371 441 CURVE",
"341 455 OFFCURVE",
"307 455 OFFCURVE",
"278 441 CURVE",
"269 395 OFFCURVE",
"265 345 OFFCURVE",
"265 319 CURVE SMOOTH",
"265 276 OFFCURVE",
"268 240 OFFCURVE",
"274 209 CURVE",
"233 167 OFFCURVE",
"191 148 OFFCURVE",
"161 148 CURVE SMOOTH",
"146 148 OFFCURVE",
"135 152 OFFCURVE",
"128 161 CURVE",
"170 212 OFFCURVE",
"193 270 OFFCURVE",
"193 323 CURVE SMOOTH",
"193 392 OFFCURVE",
"112 447 OFFCURVE",
"21 447 CURVE SMOOTH",
"-29 447 LINE",
"-29 363 LINE",
"34 363 LINE SMOOTH",
"52 363 OFFCURVE",
"70 363 OFFCURVE",
"88 363 CURVE",
"92 355 OFFCURVE",
"94 345 OFFCURVE",
"94 335 CURVE SMOOTH",
"94 305 OFFCURVE",
"79 286 OFFCURVE",
"41 225 CURVE SMOOTH",
"20 191 OFFCURVE",
"19 186 OFFCURVE",
"19 175 CURVE SMOOTH",
"19 130 OFFCURVE",
"88 71 OFFCURVE",
"179 71 CURVE SMOOTH"
);
}
);
width = 628;
},
{
associatedMasterId = "3B941797-445E-47EC-B390-6B41EAFC9AF2";
background = {
paths = (
{
closed = 1;
nodes = (
"434 98 OFFCURVE",
"561 253 OFFCURVE",
"561 451 CURVE SMOOTH",
"561 513 OFFCURVE",
"548 561 OFFCURVE",
"532 608 CURVE",
"491 628 OFFCURVE",
"443 628 OFFCURVE",
"403 608 CURVE",
"391 545 OFFCURVE",
"386 476 OFFCURVE",
"386 440 CURVE SMOOTH",
"386 380 OFFCURVE",
"390 331 OFFCURVE",
"398 288 CURVE",
"341 230 OFFCURVE",
"284 204 OFFCURVE",
"242 204 CURVE SMOOTH",
"222 204 OFFCURVE",
"206 210 OFFCURVE",
"197 222 CURVE",
"255 293 OFFCURVE",
"286 373 OFFCURVE",
"286 445 CURVE SMOOTH",
"286 541 OFFCURVE",
"175 616 OFFCURVE",
"49 616 CURVE SMOOTH",
"-20 616 LINE",
"-20 501 LINE",
"67 501 LINE SMOOTH",
"92 501 OFFCURVE",
"117 501 OFFCURVE",
"142 501 CURVE",
"147 489 OFFCURVE",
"149 476 OFFCURVE",
"149 462 CURVE SMOOTH",
"149 421 OFFCURVE",
"129 395 OFFCURVE",
"77 311 CURVE SMOOTH",
"48 264 OFFCURVE",
"46 256 OFFCURVE",
"46 241 CURVE SMOOTH",
"46 179 OFFCURVE",
"142 98 OFFCURVE",
"267 98 CURVE SMOOTH"
);
},
{
closed = 1;
nodes = (
"826 0 LINE",
"826 501 LINE",
"902 501 LINE",
"902 616 LINE",
"676 616 LINE",
"676 297 LINE",
"643 259 OFFCURVE",
"575 230 OFFCURVE",
"525 230 CURVE SMOOTH",
"506 230 OFFCURVE",
"490 234 OFFCURVE",
"479 243 CURVE",
"427 201 LINE",
"467 126 OFFCURVE",
"514 98 OFFCURVE",
"560 98 CURVE SMOOTH",
"595 98 OFFCURVE",
"648 114 OFFCURVE",
"678 131 CURVE",
"682 128 LINE",
"676 36 LINE",
"676 0 LINE"
);
}
);
};
backgroundImage = {
imagePath = "kha-gurmukhi.jpg";
locked = "1";
transform = "{5.400, 0, 0, 5.400, 85, -23}";
};
layerId = "E79E71B7-9627-42A1-BAD2-50659723B090";
name = "Bold Dec 11 15, 13:47";
paths = (
{
closed = 1;
nodes = (
"422 98 OFFCURVE",
"536 241 OFFCURVE",
"536 451 CURVE SMOOTH",
"536 513 OFFCURVE",
"523 561 OFFCURVE",
"507 608 CURVE",
"466 628 OFFCURVE",
"418 628 OFFCURVE",
"378 608 CURVE",
"366 545 OFFCURVE",
"361 476 OFFCURVE",
"361 440 CURVE SMOOTH",
"361 380 OFFCURVE",
"365 331 OFFCURVE",
"373 288 CURVE",
"340 230 OFFCURVE",
"284 204 OFFCURVE",
"242 204 CURVE SMOOTH",
"222 204 OFFCURVE",
"206 210 OFFCURVE",
"197 222 CURVE",
"255 293 OFFCURVE",
"286 373 OFFCURVE",
"286 445 CURVE SMOOTH",
"286 541 OFFCURVE",
"175 616 OFFCURVE",
"49 616 CURVE SMOOTH",
"-20 616 LINE",
"-20 501 LINE",
"67 501 LINE SMOOTH",
"92 501 OFFCURVE",
"117 501 OFFCURVE",
"142 501 CURVE",
"147 489 OFFCURVE",
"149 476 OFFCURVE",
"149 462 CURVE SMOOTH",
"149 421 OFFCURVE",
"129 395 OFFCURVE",
"77 311 CURVE SMOOTH",
"48 264 OFFCURVE",
"46 256 OFFCURVE",
"46 241 CURVE SMOOTH",
"46 179 OFFCURVE",
"142 98 OFFCURVE",
"267 98 CURVE SMOOTH"
);
},
{
closed = 1;
nodes = (
"794 0 LINE",
"794 501 LINE",
"870 501 LINE",
"870 616 LINE",
"644 616 LINE",
"644 297 LINE",
"602 248 OFFCURVE",
"529 218 OFFCURVE",
"449 253 CURVE",
"397 211 LINE",
"434 98 OFFCURVE",
"561 67 OFFCURVE",
"646 131 CURVE",
"650 128 LINE",
"644 36 LINE",
"644 0 LINE"
);
}
);
width = 882;
}
);
unicode = 0A18;
},
{
color = -1;
glyphname = grNGA;
lastChange = "2016-02-26 16:05:11 +0000";
layers = (
{
anchors = (
{
name = bottom;
position = "{222, 0}";
},
{
name = top;
position = "{318, 439}";
}
);
background = {
paths = (
{
closed = 1;
nodes = (
"536 234 OFFCURVE",
"543 241 OFFCURVE",
"543 251 CURVE SMOOTH",
"543 260 OFFCURVE",
"536 267 OFFCURVE",
"527 267 CURVE SMOOTH",
"517 267 OFFCURVE",
"510 260 OFFCURVE",
"510 251 CURVE SMOOTH",
"510 241 OFFCURVE",
"517 234 OFFCURVE",
"527 234 CURVE SMOOTH"
);
},
{
closed = 1;
nodes = (
"272 -10 OFFCURVE",
"279 -3 OFFCURVE",
"279 7 CURVE SMOOTH",
"279 16 OFFCURVE",
"272 23 OFFCURVE",
"263 23 CURVE SMOOTH",
"253 23 OFFCURVE",
"246 16 OFFCURVE",
"246 7 CURVE SMOOTH",
"246 -3 OFFCURVE",
"253 -10 OFFCURVE",
"263 -10 CURVE SMOOTH"
);
},
{
closed = 1;
nodes = (
"392 14 OFFCURVE",
"399 21 OFFCURVE",
"399 31 CURVE SMOOTH",
"399 40 OFFCURVE",
"392 47 OFFCURVE",
"383 47 CURVE SMOOTH",
"373 47 OFFCURVE",
"366 40 OFFCURVE",
"366 31 CURVE SMOOTH",
"366 21 OFFCURVE",
"373 14 OFFCURVE",
"383 14 CURVE SMOOTH"
);
},
{
closed = 1;
nodes = (
"517 145 OFFCURVE",
"524 152 OFFCURVE",
"524 162 CURVE SMOOTH",
"524 171 OFFCURVE",
"517 178 OFFCURVE",
"508 178 CURVE SMOOTH",
"498 178 OFFCURVE",
"491 171 OFFCURVE",
"491 162 CURVE SMOOTH",
"491 152 OFFCURVE",
"498 145 OFFCURVE",
"508 145 CURVE SMOOTH"
);
},
{
closed = 1;
nodes = (
"466 69 OFFCURVE",
"473 76 OFFCURVE",
"473 86 CURVE SMOOTH",
"473 95 OFFCURVE",
"466 102 OFFCURVE",
"457 102 CURVE SMOOTH",
"447 102 OFFCURVE",
"440 95 OFFCURVE",
"440 86 CURVE SMOOTH",
"440 76 OFFCURVE",
"447 69 OFFCURVE",
"457 69 CURVE SMOOTH"
);
}
);
};
layerId = "F84B2E81-E30C-4BCF-B175-C3D49BDC99D5";
paths = (
{
closed = 1;
nodes = (
"280 -4 OFFCURVE",
"372 86 OFFCURVE",
"372 181 CURVE SMOOTH",
"372 235 OFFCURVE",
"339 268 OFFCURVE",
"292 268 CURVE SMOOTH",
"123 268 LINE",
"123 426 LINE",
"101 426 LINE",
"101 249 LINE",
"318 249 LINE",
"338 236 OFFCURVE",
"348 210 OFFCURVE",
"348 181 CURVE SMOOTH",
"348 99 OFFCURVE",
"270 16 OFFCURVE",
"165 16 CURVE SMOOTH",
"134 16 OFFCURVE",
"107 22 OFFCURVE",
"80 36 CURVE",
"74 51 OFFCURVE",
"72 64 OFFCURVE",
"72 81 CURVE SMOOTH",
"72 121 OFFCURVE",
"100 150 OFFCURVE",
"147 150 CURVE SMOOTH",
"166 150 OFFCURVE",
"182 146 OFFCURVE",
"203 137 CURVE",
"378 -7 LINE",
"381 -6 OFFCURVE",
"384 -3 OFFCURVE",
"386 2 CURVE",
"236 132 LINE SMOOTH",
"202 161 OFFCURVE",
"168 170 OFFCURVE",
"137 170 CURVE SMOOTH",
"88 170 OFFCURVE",
"48 139 OFFCURVE",
"48 88 CURVE SMOOTH",
"48 38 OFFCURVE",
"86 -4 OFFCURVE",
"173 -4 CURVE SMOOTH"
);
},
{
closed = 1;
nodes = (
"451 421 LINE",
"451 439 LINE",
"-29 439 LINE",
"-29 421 LINE"
);
}
);
width = 422;
},
{
anchors = (
{
name = bottom;
position = "{232, 0}";
},
{
name = top;
position = "{304, 447}";
}
);
layerId = "3B941797-445E-47EC-B390-6B41EAFC9AF2";
paths = (
{
closed = 1;
nodes = (
"294 -4 OFFCURVE",
"408 70 OFFCURVE",
"408 175 CURVE SMOOTH",
"408 249 OFFCURVE",
"353 308 OFFCURVE",
"263 308 CURVE SMOOTH",
"181 308 LINE",
"181 375 LINE",
"73 375 LINE",
"73 232 LINE",
"292 232 LINE",
"298 215 OFFCURVE",
"301 195 OFFCURVE",
"301 175 CURVE SMOOTH",
"301 115 OFFCURVE",
"262 69 OFFCURVE",
"179 69 CURVE SMOOTH",
"166 69 OFFCURVE",
"156 70 OFFCURVE",
"144 73 CURVE",
"141 79 OFFCURVE",
"141 86 OFFCURVE",
"141 91 CURVE SMOOTH",
"141 110 OFFCURVE",
"156 118 OFFCURVE",
"176 118 CURVE SMOOTH",
"189 118 OFFCURVE",
"201 116 OFFCURVE",
"217 111 CURVE",
"370 -7 LINE",
"385 -4 OFFCURVE",
"398 8 OFFCURVE",
"409 28 CURVE",
"283 135 LINE SMOOTH",
"239 173 OFFCURVE",
"199 191 OFFCURVE",
"148 191 CURVE SMOOTH",
"72 191 OFFCURVE",
"32 148 OFFCURVE",
"32 94 CURVE SMOOTH",
"32 39 OFFCURVE",
"83 -4 OFFCURVE",
"180 -4 CURVE SMOOTH"
);
},
{
closed = 1;
nodes = (
"465 363 LINE",
"465 447 LINE",
"-29 447 LINE",
"-29 363 LINE"
);
}
);
width = 436;
},
{
associatedMasterId = "F84B2E81-E30C-4BCF-B175-C3D49BDC99D5";
guideLines = (
{
angle = 140.574;
position = "{563, 13}";
},
{
angle = 141.427;
position = "{432, 97}";
}
);
layerId = "B73FF2C7-B453-4D1E-BB28-2A973A8AC10D";
name = Draft2;
paths = (
{
closed = 1;
nodes = (
"430 0 OFFCURVE",
"553 136 OFFCURVE",
"553 249 CURVE SMOOTH",
"553 332 OFFCURVE",
"507 369 OFFCURVE",
"442 369 CURVE SMOOTH",
"209 369 LINE",
"209 609 LINE",
"179 609 LINE",
"179 344 LINE",
"475 344 LINE",
"505 326 OFFCURVE",
"520 289 OFFCURVE",
"520 249 CURVE SMOOTH",
"520 150 OFFCURVE",
"415 27 OFFCURVE",
"267 27 CURVE SMOOTH",
"222 27 OFFCURVE",
"190 32 OFFCURVE",
"152 46 CURVE",
"142 68 OFFCURVE",
"139 85 OFFCURVE",
"139 107 CURVE SMOOTH",
"139 162 OFFCURVE",
"178 202 OFFCURVE",
"243 202 CURVE SMOOTH",
"269 202 OFFCURVE",
"291 196 OFFCURVE",
"320 184 CURVE",
"553 0 LINE",
"563 13 LINE",
"365 176 LINE SMOOTH",
"318 215 OFFCURVE",
"272 229 OFFCURVE",
"229 229 CURVE SMOOTH",
"162 229 OFFCURVE",
"106 185 OFFCURVE",
"106 117 CURVE SMOOTH",
"106 44 OFFCURVE",
"159 0 OFFCURVE",
"278 0 CURVE SMOOTH"
);
},
{
closed = 1;
nodes = (
"612 601 LINE",
"612 626 LINE",
"-11 626 LINE",
"-11 601 LINE"
);
}
);
width = 600;
},
{
associatedMasterId = "3B941797-445E-47EC-B390-6B41EAFC9AF2";
layerId = "9905E224-66BD-4FD9-9429-6E64AE36EEE8";
name = Draft2;
paths = (
{
closed = 1;
nodes = (
"355 0 OFFCURVE",
"543 103 OFFCURVE",
"543 248 CURVE SMOOTH",
"543 349 OFFCURVE",
"461 425 OFFCURVE",
"338 425 CURVE SMOOTH",
"230 425 LINE",
"230 517 LINE",
"80 517 LINE",
"80 320 LINE",
"374 320 LINE",
"388 300 OFFCURVE",
"393 284 OFFCURVE",
"393 255 CURVE SMOOTH",
"393 196 OFFCURVE",
"301 101 OFFCURVE",
"227 101 CURVE SMOOTH",
"208 101 OFFCURVE",
"193 104 OFFCURVE",
"182 107 CURVE",
"176 115 OFFCURVE",
"174 123 OFFCURVE",
"174 133 CURVE SMOOTH",
"174 153 OFFCURVE",
"189 169 OFFCURVE",
"222 169 CURVE SMOOTH",
"281 169 OFFCURVE",
"368 92 OFFCURVE",
"493 -16 CURVE",
"547 33 LINE",
"335 235 OFFCURVE",
"286 270 OFFCURVE",
"184 270 CURVE SMOOTH",
"79 270 OFFCURVE",
"24 210 OFFCURVE",
"24 135 CURVE SMOOTH",
"24 60 OFFCURVE",
"94 0 OFFCURVE",
"228 0 CURVE SMOOTH"
);
},
{
closed = 1;
nodes = (
"582 501 LINE",
"582 616 LINE",
"-20 616 LINE",
"-20 501 LINE"
);
}
);
width = 562;
}
);
unicode = 0A19;
},
{
color = -1;
glyphname = grCA;
lastChange = "2016-02-26 16:05:11 +0000";
layers = (
{
anchors = (
{
name = bottom;
position = "{232, 0}";
},
{
name = top;
position = "{329, 439}";
}
);
layerId = "F84B2E81-E30C-4BCF-B175-C3D49BDC99D5";
paths = (
{
closed = 1;
nodes = (
"310 -4 OFFCURVE",
"340 28 OFFCURVE",
"340 92 CURVE SMOOTH",
"340 421 LINE",
"427 421 LINE",
"427 439 LINE",
"-29 439 LINE",
"-29 421 LINE",
"318 421 LINE",
"318 268 LINE",
"84 268 LINE",
"24 320 LINE",
"17 318 OFFCURVE",
"15 315 OFFCURVE",
"12 310 CURVE",
"12 295 OFFCURVE",
"30 269 OFFCURVE",
"72 248 CURVE",
"79 73 OFFCURVE",
"169 -4 OFFCURVE",
"258 -4 CURVE SMOOTH"
);
},
{
closed = 1;
nodes = (
"175 15 OFFCURVE",
"102 94 OFFCURVE",
"89 208 CURVE SMOOTH",
"85 249 LINE",
"318 249 LINE",
"318 92 LINE SMOOTH",
"318 38 OFFCURVE",
"296 15 OFFCURVE",
"257 15 CURVE SMOOTH"
);
}
);
width = 398;
},
{
anchors = (
{
name = bottom;
position = "{260, 0}";
},
{
name = top;
position = "{339, 447}";
}
);
background = {
paths = (
{
closed = 1;
nodes = (
"468 0 OFFCURVE",
"542 73 OFFCURVE",
"542 229 CURVE SMOOTH",
"542 501 LINE",
"632 501 LINE",
"632 616 LINE",
"-30 616 LINE",
"-30 501 LINE",
"392 501 LINE",
"392 375 LINE",
"218 375 LINE",
"116 440 LINE",
"73 440 OFFCURVE",
"37 407 OFFCURVE",
"22 357 CURVE",
"32 308 OFFCURVE",
"64 268 OFFCURVE",
"115 252 CURVE",
"125 96 OFFCURVE",
"218 0 OFFCURVE",
"365 0 CURVE SMOOTH"
);
},
{
closed = 1;
nodes = (
"302 120 OFFCURVE",
"264 145 OFFCURVE",
"257 204 CURVE SMOOTH",
"250 260 LINE",
"392 260 LINE",
"392 207 LINE SMOOTH",
"392 145 OFFCURVE",
"384 115 OFFCURVE",
"333 111 CURVE"
);
}
);
};
color = 4;
layerId = "3B941797-445E-47EC-B390-6B41EAFC9AF2";
paths = (
{
closed = 1;
nodes = (
"340 -4 OFFCURVE",
"393 47 OFFCURVE",
"393 146 CURVE SMOOTH",
"393 363 LINE",
"465 363 LINE",
"465 447 LINE",
"-29 447 LINE",
"-29 363 LINE",
"284 363 LINE",
"284 272 LINE",
"158 272 LINE",
"84 319 LINE",
"53 319 OFFCURVE",
"27 295 OFFCURVE",
"16 259 CURVE",
"23 223 OFFCURVE",
"46 194 OFFCURVE",
"83 183 CURVE",
"92 65 OFFCURVE",
"159 -4 OFFCURVE",
"260 -4 CURVE SMOOTH"
);
},
{
closed = 1;
nodes = (
"214 82 OFFCURVE",
"193 101 OFFCURVE",
"186 151 CURVE SMOOTH",
"181 189 LINE",
"284 189 LINE",
"284 141 LINE SMOOTH",
"284 101 OFFCURVE",
"276 80 OFFCURVE",
"241 76 CURVE"
);
}
);
width = 436;
},
{
associatedMasterId = "3B941797-445E-47EC-B390-6B41EAFC9AF2";
color = 4;
layerId = "8FAE6C61-A835-441D-83CA-ACB3F1537E1D";
name = Draft1;
paths = (
{
closed = 1;
nodes = (
"478 0 OFFCURVE",
"552 73 OFFCURVE",
"552 229 CURVE SMOOTH",
"552 501 LINE",
"642 501 LINE",
"642 616 LINE",
"-20 616 LINE",
"-20 501 LINE",
"402 501 LINE",
"402 375 LINE",
"228 375 LINE",
"126 440 LINE",
"83 440 OFFCURVE",
"47 407 OFFCURVE",
"32 357 CURVE",
"42 308 OFFCURVE",
"74 268 OFFCURVE",
"125 252 CURVE",
"136 68 OFFCURVE",
"228 0 OFFCURVE",
"365 0 CURVE SMOOTH"
);
},
{
closed = 1;
nodes = (
"291 125 OFFCURVE",
"274 146 OFFCURVE",
"267 204 CURVE SMOOTH",
"260 260 LINE",
"402 260 LINE",
"402 207 LINE SMOOTH",
"402 145 OFFCURVE",
"394 110 OFFCURVE",
"323 110 CURVE"
);
}
);
width = 622;
}
);
unicode = 0A1A;
},
{
color = -1;
glyphname = grCHA;
lastChange = "2016-02-26 16:05:11 +0000";
layers = (
{
anchors = (
{
name = bottom;
position = "{217, 0}";
},
{
name = top;
position = "{328, 439}";
}
);
background = {
paths = (
{
closed = 1;
nodes = (
"243 267 LINE SMOOTH",
"120 267 OFFCURVE",
"59 217 OFFCURVE",
"59 132 CURVE SMOOTH",
"59 46 OFFCURVE",
"120 -5 OFFCURVE",
"243 -5 CURVE SMOOTH",
"356 -5 LINE SMOOTH",
"478 -5 OFFCURVE",
"539 46 OFFCURVE",
"539 132 CURVE SMOOTH",
"539 217 OFFCURVE",
"478 267 OFFCURVE",
"356 267 CURVE SMOOTH"
);
},
{
closed = 0;
nodes = (
"236 267 LINE SMOOTH",
"172 267 OFFCURVE",
"144 297 OFFCURVE",
"144 344 CURVE SMOOTH"
);
},
{
closed = 0;
nodes = (
"114 344 LINE SMOOTH",
"114 283 OFFCURVE",
"155 242 OFFCURVE",
"232 242 CURVE SMOOTH"
);
}
);
};
guideLines = (
{
angle = 90;
position = "{299, 152}";
},
{
angle = 180;
position = "{299, 131}";
},
{
position = "{274, 344}";
}
);
layerId = "F84B2E81-E30C-4BCF-B175-C3D49BDC99D5";
paths = (
{
closed = 1;
nodes = (
"360 -4 OFFCURVE",
"391 50 OFFCURVE",
"391 95 CURVE SMOOTH",
"391 152 OFFCURVE",
"357 194 OFFCURVE",
"217 194 CURVE SMOOTH",
"129 194 LINE",
"112 208 OFFCURVE",
"104 225 OFFCURVE",
"104 249 CURVE SMOOTH",
"104 283 OFFCURVE",
"125 305 OFFCURVE",
"171 305 CURVE SMOOTH",
"339 305 LINE",
"339 431 LINE",
"316 431 LINE",
"316 323 LINE",
"168 323 LINE SMOOTH",
"112 323 OFFCURVE",
"83 294 OFFCURVE",
"83 249 CURVE SMOOTH",
"83 205 OFFCURVE",
"112 175 OFFCURVE",
"168 175 CURVE SMOOTH",
"217 175 LINE SMOOTH",
"284 175 OFFCURVE",
"320 168 OFFCURVE",
"351 156 CURVE",
"363 138 OFFCURVE",
"368 120 OFFCURVE",
"368 95 CURVE SMOOTH",
"368 53 OFFCURVE",
"336 15 OFFCURVE",
"217 15 CURVE SMOOTH",
"149 15 OFFCURVE",
"114 22 OFFCURVE",
"83 34 CURVE",
"70 51 OFFCURVE",
"66 70 OFFCURVE",
"66 95 CURVE SMOOTH",
"66 139 OFFCURVE",
"91 170 OFFCURVE",
"141 186 CURVE",
"126 191 LINE",
"83 182 OFFCURVE",
"43 153 OFFCURVE",
"43 95 CURVE SMOOTH",
"43 38 OFFCURVE",
"76 -4 OFFCURVE",
"217 -4 CURVE SMOOTH"
);
},
{
closed = 1;
nodes = (
"225 8 LINE",
"225 181 LINE",
"204 181 LINE",
"204 8 LINE"
);
},
{
closed = 1;
nodes = (
"457 421 LINE",
"457 439 LINE",
"-29 439 LINE",
"-29 421 LINE"
);
}
);
width = 428;
},
{
anchors = (
{
name = bottom;
position = "{239, 0}";
},
{
name = top;
position = "{349, 447}";
}
);
background = {
paths = (
{
closed = 1;
nodes = (
"528 0 OFFCURVE",
"618 59 OFFCURVE",
"618 149 CURVE SMOOTH",
"618 239 OFFCURVE",
"528 279 OFFCURVE",
"410 279 CURVE SMOOTH",
"256 279 LINE",
"252 287 OFFCURVE",
"250 296 OFFCURVE",
"250 306 CURVE SMOOTH",
"250 323 OFFCURVE",
"260 339 OFFCURVE",
"290 339 CURVE SMOOTH",
"557 339 LINE",
"557 546 LINE",
"407 546 LINE",
"407 439 LINE",
"240 439 LINE SMOOTH",
"142 439 OFFCURVE",
"88 384 OFFCURVE",
"88 317 CURVE SMOOTH",
"88 243 OFFCURVE",
"152 179 OFFCURVE",
"250 179 CURVE SMOOTH",
"405 179 LINE SMOOTH",
"429 179 OFFCURVE",
"450 177 OFFCURVE",
"464 174 CURVE",
"467 166 OFFCURVE",
"467 158 OFFCURVE",
"467 151 CURVE SMOOTH",
"467 119 OFFCURVE",
"438 100 OFFCURVE",
"333 100 CURVE SMOOTH",
"274 100 OFFCURVE",
"214 103 OFFCURVE",
"184 112 CURVE",
"179 123 OFFCURVE",
"178 127 OFFCURVE",
"178 140 CURVE SMOOTH",
"178 160 OFFCURVE",
"185 174 OFFCURVE",
"197 192 CURVE",
"128 246 LINE",
"66 229 OFFCURVE",
"31 190 OFFCURVE",
"31 133 CURVE SMOOTH",
"31 32 OFFCURVE",
"169 0 OFFCURVE",
"333 0 CURVE SMOOTH"
);
},
{
closed = 1;
nodes = (
"392 56 LINE",
"392 219 LINE",
"276 219 LINE",
"276 56 LINE"
);
},
{
closed = 1;
nodes = (
"632 501 LINE",
"632 616 LINE",
"-10 616 LINE",
"-10 501 LINE"
);
}
);
};
backgroundImage = {
imagePath = "cha-gurmukhi.jpg";
transform = "{0.500, 0, 0, 0.500, -264, -316}";
};
layerId = "3B941797-445E-47EC-B390-6B41EAFC9AF2";
paths = (
{
closed = 1;
nodes = (
"383 -4 OFFCURVE",
"448 38 OFFCURVE",
"448 104 CURVE SMOOTH",
"448 170 OFFCURVE",
"390 202 OFFCURVE",
"297 202 CURVE SMOOTH",
"186 202 LINE",
"183 208 OFFCURVE",
"181 215 OFFCURVE",
"181 222 CURVE SMOOTH",
"181 234 OFFCURVE",
"189 246 OFFCURVE",
"210 246 CURVE SMOOTH",
"404 246 LINE",
"404 396 LINE",
"295 396 LINE",
"295 318 LINE",
"174 318 LINE SMOOTH",
"103 318 OFFCURVE",
"64 278 OFFCURVE",
"64 230 CURVE SMOOTH",
"64 176 OFFCURVE",
"110 130 OFFCURVE",
"181 130 CURVE SMOOTH",
"294 130 LINE SMOOTH",
"311 130 OFFCURVE",
"326 128 OFFCURVE",
"336 126 CURVE",
"338 120 OFFCURVE",
"339 114 OFFCURVE",
"339 107 CURVE SMOOTH",
"339 82 OFFCURVE",
"320 68 OFFCURVE",
"241 68 CURVE SMOOTH",
"191 68 OFFCURVE",
"155 72 OFFCURVE",
"133 77 CURVE",
"131 84 OFFCURVE",
"129 92 OFFCURVE",
"129 102 CURVE SMOOTH",
"129 116 OFFCURVE",
"133 128 OFFCURVE",
"141 141 CURVE",
"93 178 LINE",
"51 165 OFFCURVE",
"22 138 OFFCURVE",
"22 96 CURVE SMOOTH",
"22 19 OFFCURVE",
"123 -4 OFFCURVE",
"241 -4 CURVE SMOOTH"
);
},
{
closed = 1;
nodes = (
"282 41 LINE",
"282 159 LINE",
"198 159 LINE",
"198 41 LINE"
);
},
{
closed = 1;
nodes = (
"496 363 LINE",
"496 447 LINE",
"-29 447 LINE",
"-29 363 LINE"
);
}
);
width = 467;
},
{
associatedMasterId = "F84B2E81-E30C-4BCF-B175-C3D49BDC99D5";
background = {
paths = (
{
closed = 0;
nodes = (
"59 136 LINE SMOOTH",
"59 211 OFFCURVE",
"101 277 OFFCURVE",
"298 277 CURVE SMOOTH"
);
},
{
closed = 0;
nodes = (
"298 252 LINE SMOOTH",
"134 252 OFFCURVE",
"92 190 OFFCURVE",
"92 136 CURVE SMOOTH"
);
}
);
};
guideLines = (
{
angle = 90;
position = "{300, 116}";
},
{
angle = 180;
position = "{299, 136}";
}
);
layerId = "921984E4-8C78-44C5-BB6C-417F14161F66";
name = "Draft 1";
paths = (
{
closed = 1;
nodes = (
"497 -5 OFFCURVE",
"539 61 OFFCURVE",
"539 136 CURVE SMOOTH",
"539 209 OFFCURVE",
"505 276 OFFCURVE",
"298 276 CURVE SMOOTH",
"184 276 LINE",
"157 293 OFFCURVE",
"144 315 OFFCURVE",
"144 353 CURVE SMOOTH",
"144 402 OFFCURVE",
"178 436 OFFCURVE",
"248 436 CURVE SMOOTH",
"468 436 LINE",
"468 615 LINE",
"436 615 LINE",
"436 461 LINE",
"238 461 LINE SMOOTH",
"155 461 OFFCURVE",
"111 418 OFFCURVE",
"111 358 CURVE SMOOTH",
"111 298 OFFCURVE",
"152 251 OFFCURVE",
"221 251 CURVE SMOOTH",
"298 251 LINE SMOOTH",
"404 251 OFFCURVE",
"443 242 OFFCURVE",
"490 216 CURVE",
"501 194 OFFCURVE",
"507 170 OFFCURVE",
"507 136 CURVE SMOOTH",
"507 82 OFFCURVE",
"468 20 OFFCURVE",
"300 20 CURVE SMOOTH",
"194 20 OFFCURVE",
"155 29 OFFCURVE",
"108 55 CURVE",
"97 77 OFFCURVE",
"92 100 OFFCURVE",
"92 136 CURVE SMOOTH",
"92 199 OFFCURVE",
"136 241 OFFCURVE",
"221 258 CURVE",
"217 271 LINE",
"121 259 OFFCURVE",
"59 211 OFFCURVE",
"59 136 CURVE SMOOTH",
"59 62 OFFCURVE",
"93 -5 OFFCURVE",
"300 -5 CURVE SMOOTH"
);
},
{
closed = 1;
nodes = (
"311 8 LINE",
"311 267 LINE",
"281 267 LINE",
"281 8 LINE"
);
},
{
closed = 1;
nodes = (
"610 601 LINE",
"610 626 LINE",
"-20 626 LINE",
"-20 601 LINE"
);
}
);
width = 590;
}
);
unicode = 0A1B;
},
{
color = -1;
glyphname = grJA;
lastChange = "2016-02-26 16:05:11 +0000";
layers = (
{
color = 4;
layerId = "F84B2E81-E30C-4BCF-B175-C3D49BDC99D5";
paths = (
{
closed = 1;
nodes = (
"107 0 LINE",
"107 249 LINE",
"307 249 LINE",
"307 0 LINE",
"328 0 LINE",
"328 421 LINE",
"415 421 LINE",
"415 439 LINE",
"-29 439 LINE",
"-29 421 LINE",
"307 421 LINE",
"307 268 LINE",
"106 268 LINE",
"46 320 LINE",
"39 318 OFFCURVE",
"36 315 OFFCURVE",
"34 310 CURVE",
"34 297 OFFCURVE",
"49 274 OFFCURVE",
"85 254 CURVE",
"85 0 LINE"
);
}
);
width = 386;
},
{
layerId = "3B941797-445E-47EC-B390-6B41EAFC9AF2";
paths = (
{
closed = 1;
nodes = (
"178 0 LINE",
"178 189 LINE",
"270 189 LINE",
"270 0 LINE",
"378 0 LINE",
"378 363 LINE",
"451 363 LINE",
"451 447 LINE",
"-29 447 LINE",
"-29 363 LINE",
"270 363 LINE",
"270 272 LINE",
"154 272 LINE",
"80 319 LINE",
"49 319 OFFCURVE",
"23 295 OFFCURVE",
"12 259 CURVE",
"20 223 OFFCURVE",
"43 198 OFFCURVE",
"69 183 CURVE",
"69 0 LINE"
);
}
);
width = 422;
}
);
unicode = 0A1C;
},
{
color = -1;
glyphname = grJHA;
lastChange = "2016-02-26 16:05:11 +0000";
layers = (
{
anchors = (
{
name = bottom;
position = "{187, 0}";
},
{
name = top;
position = "{346, 439}";
}
);
color = 4;
guideLines = (
{
angle = 180;
position = "{337, 411}";
},
{
angle = 153.682;
position = "{401, 2}";
}
);
layerId = "F84B2E81-E30C-4BCF-B175-C3D49BDC99D5";
paths = (
{
closed = 1;
nodes = (
"264 46 OFFCURVE",
"343 78 OFFCURVE",
"343 153 CURVE SMOOTH",
"343 220 OFFCURVE",
"292 255 OFFCURVE",
"220 265 CURVE",
"188 258 LINE",
"168 266 LINE",
"128 265 OFFCURVE",
"95 254 OFFCURVE",
"54 236 CURVE",
"59 225 LINE",
"103 241 OFFCURVE",
"139 249 OFFCURVE",
"181 249 CURVE SMOOTH",
"235 249 OFFCURVE",
"269 237 OFFCURVE",
"302 221 CURVE",
"314 200 OFFCURVE",
"320 180 OFFCURVE",
"320 158 CURVE SMOOTH",
"320 91 OFFCURVE",
"268 65 OFFCURVE",
"182 55 CURVE",
"70 116 LINE",
"62 116 OFFCURVE",
"54 111 OFFCURVE",
"54 101 CURVE SMOOTH",
"54 99 OFFCURVE",
"55 96 OFFCURVE",
"56 94 CURVE",
"80 72 OFFCURVE",
"140 46 OFFCURVE",
"189 46 CURVE SMOOTH"
);
},
{
closed = 1;
nodes = (
"281 -2 OFFCURVE",
"285 1 OFFCURVE",
"286 4 CURVE",
"196 49 LINE",
"157 53 LINE",
"278 -3 LINE"
);
},
{
closed = 1;
nodes = (
"243 252 OFFCURVE",
"330 306 OFFCURVE",
"357 425 CURVE",
"334 425 LINE",
"307 331 OFFCURVE",
"254 286 OFFCURVE",
"187 263 CURVE",
"128 286 OFFCURVE",
"74 341 OFFCURVE",
"52 425 CURVE",
"35 425 LINE",
"61 312 OFFCURVE",
"153 252 OFFCURVE",
"191 252 CURVE SMOOTH"
);
},
{
closed = 1;
nodes = (
"414 421 LINE",
"414 439 LINE",
"-29 439 LINE",
"-29 421 LINE"
);
}
);
width = 385;
},
{
anchors = (
{
name = bottom;
position = "{236, 0}";
},
{
name = top;
position = "{362, 447}";
}
);
layerId = "3B941797-445E-47EC-B390-6B41EAFC9AF2";
paths = (
{
closed = 1;
nodes = (
"309 52 OFFCURVE",
"394 90 OFFCURVE",
"394 167 CURVE SMOOTH",
"394 218 OFFCURVE",
"357 263 OFFCURVE",
"283 286 CURVE",
"199 247 LINE",
"149 290 LINE",
"107 285 OFFCURVE",
"70 274 OFFCURVE",
"27 252 CURVE",
"53 189 LINE",
"91 202 OFFCURVE",
"141 209 OFFCURVE",
"188 209 CURVE SMOOTH",
"225 209 OFFCURVE",
"261 204 OFFCURVE",
"286 192 CURVE",
"287 183 OFFCURVE",
"288 176 OFFCURVE",
"287 169 CURVE SMOOTH",
"284 136 OFFCURVE",
"260 117 OFFCURVE",
"186 112 CURVE",
"131 159 LINE",
"86 162 OFFCURVE",
"51 143 OFFCURVE",
"51 109 CURVE SMOOTH",
"51 94 OFFCURVE",
"57 75 OFFCURVE",
"75 66 CURVE",
"117 57 OFFCURVE",
"167 52 OFFCURVE",
"204 52 CURVE SMOOTH"
);
},
{
closed = 1;
nodes = (
"265 -5 OFFCURVE",
"283 7 OFFCURVE",
"291 23 CURVE",
"218 80 LINE",
"119 70 LINE",
"239 -7 LINE"
);
},
{
closed = 1;
nodes = (
"320 224 OFFCURVE",
"406 299 OFFCURVE",
"418 431 CURVE",
"305 431 LINE",
"306 344 OFFCURVE",
"232 281 OFFCURVE",
"195 272 CURVE",
"160 294 OFFCURVE",
"111 344 OFFCURVE",
"109 431 CURVE",
"11 431 LINE",
"25 312 OFFCURVE",
"114 224 OFFCURVE",
"214 224 CURVE SMOOTH"
);
},
{
closed = 1;
nodes = (
"447 363 LINE",
"447 447 LINE",
"-29 447 LINE",
"-29 363 LINE"
);
}
);
width = 418;
},
{
associatedMasterId = "3B941797-445E-47EC-B390-6B41EAFC9AF2";
background = {
paths = (
{
closed = 1;
nodes = (
"410 -29 OFFCURVE",
"436 -16 OFFCURVE",
"463 8 CURVE",
"382 77 LINE",
"468 111 OFFCURVE",
"514 153 OFFCURVE",
"514 222 CURVE SMOOTH",
"514 299 OFFCURVE",
"451 365 OFFCURVE",
"347 383 CURVE",
"282 358 LINE",
"214 383 LINE",
"139 375 OFFCURVE",
"77 358 OFFCURVE",
"32 342 CURVE",
"57 258 LINE",
"149 276 OFFCURVE",
"217 281 OFFCURVE",
"281 281 CURVE SMOOTH",
"313 281 OFFCURVE",
"336 277 OFFCURVE",
"352 273 CURVE",
"360 261 OFFCURVE",
"365 250 OFFCURVE",
"365 227 CURVE SMOOTH",
"365 220 OFFCURVE",
"366 176 OFFCURVE",
"294 167 CURVE",
"193 230 LINE",
"146 230 OFFCURVE",
"108 193 OFFCURVE",
"98 147 CURVE",
"118 68 OFFCURVE",
"194 44 OFFCURVE",
"265 51 CURVE",
"383 -31 LINE"
);
},
{
closed = 1;
nodes = (
"598 501 LINE",
"598 616 LINE",
"-50 616 LINE",
"-50 501 LINE"
);
},
{
closed = 1;
nodes = (
"406 284 OFFCURVE",
"512 412 OFFCURVE",
"529 595 CURVE",
"386 595 LINE",
"387 474 OFFCURVE",
"310 387 OFFCURVE",
"259 375 CURVE",
"211 405 OFFCURVE",
"166 474 OFFCURVE",
"163 595 CURVE",
"28 595 LINE",
"48 431 OFFCURVE",
"158 284 OFFCURVE",
"285 284 CURVE SMOOTH"
);
}
);
};
layerId = "3D413A4F-6EC0-4DAB-877A-D88EA149A37A";
name = "Draft 1";
paths = (
{
closed = 1;
nodes = (
"398 -13 OFFCURVE",
"424 0 OFFCURVE",
"451 24 CURVE",
"350 93 LINE",
"463 121 OFFCURVE",
"514 167 OFFCURVE",
"514 236 CURVE SMOOTH",
"514 313 OFFCURVE",
"427 383 OFFCURVE",
"319 383 CURVE",
"262 358 LINE",
"190 376 LINE",
"47 376 LINE",
"47 298 LINE",
"261 298 LINE SMOOTH",
"299 298 OFFCURVE",
"325 296 OFFCURVE",
"347 291 CURVE",
"359 275 OFFCURVE",
"365 253 OFFCURVE",
"365 236 CURVE SMOOTH",
"365 201 OFFCURVE",
"326 172 OFFCURVE",
"267 165 CURVE",
"163 230 LINE",
"116 230 OFFCURVE",
"78 193 OFFCURVE",
"68 147 CURVE",
"88 88 OFFCURVE",
"152 64 OFFCURVE",
"233 67 CURVE",
"371 -15 LINE"
);
},
{
closed = 1;
nodes = (
"419 309 OFFCURVE",
"525 412 OFFCURVE",
"542 595 CURVE",
"386 595 LINE",
"387 474 OFFCURVE",
"310 387 OFFCURVE",
"259 375 CURVE",
"211 405 OFFCURVE",
"166 474 OFFCURVE",
"163 595 CURVE",
"28 595 LINE",
"48 431 OFFCURVE",
"158 309 OFFCURVE",
"285 309 CURVE SMOOTH"
);
},
{
closed = 1;
nodes = (
"598 501 LINE",
"598 616 LINE",
"-50 616 LINE",
"-50 501 LINE"
);
}
);
width = 560;
},
{
associatedMasterId = "F84B2E81-E30C-4BCF-B175-C3D49BDC99D5";
background = {
paths = (
{
closed = 1;
nodes = (
"382 -5 OFFCURVE",
"373 -6 OFFCURVE",
"383 2 CURVE",
"270 83 LINE",
"379 120 OFFCURVE",
"431 165 OFFCURVE",
"431 263 CURVE SMOOTH",
"431 340 OFFCURVE",
"367 399 OFFCURVE",
"251 399 CURVE SMOOTH",
"175 399 OFFCURVE",
"105 389 OFFCURVE",
"30 365 CURVE",
"34 354 LINE",
"107 367 OFFCURVE",
"173 374 OFFCURVE",
"241 374 CURVE SMOOTH",
"273 374 OFFCURVE",
"332 370 OFFCURVE",
"358 363 CURVE",
"387 340 OFFCURVE",
"401 313 OFFCURVE",
"401 263 CURVE SMOOTH",
"401 171 OFFCURVE",
"348 127 OFFCURVE",
"256 100 CURVE",
"121 177 LINE",
"113 172 OFFCURVE",
"104 164 OFFCURVE",
"107 159 CURVE",
"138 115 OFFCURVE",
"182 94 OFFCURVE",
"237 84 CURVE",
"372 -7 LINE"
);
},
{
closed = 1;
nodes = (
"347 379 OFFCURVE",
"440 452 OFFCURVE",
"463 610 CURVE",
"433 610 LINE",
"412 477 OFFCURVE",
"339 404 OFFCURVE",
"216 404 CURVE SMOOTH",
"187 404 OFFCURVE",
"148 415 OFFCURVE",
"122 430 CURVE",
"92 463 OFFCURVE",
"57 513 OFFCURVE",
"37 606 CURVE",
"7 606 LINE",
"41 460 OFFCURVE",
"115 379 OFFCURVE",
"250 379 CURVE SMOOTH"
);
},
{
closed = 1;
nodes = (
"573 601 LINE",
"573 626 LINE",
"-60 626 LINE",
"-60 601 LINE"
);
}
);
};
color = 4;
guideLines = (
{
angle = 180;
position = "{309, 411}";
}
);
layerId = "504C2351-1A3C-4EEC-B9DD-5048FC0DAF2D";
name = "Draft 1";
paths = (
{
closed = 1;
nodes = (
"367 -6 OFFCURVE",
"372 -2 OFFCURVE",
"373 2 CURVE",
"250 83 LINE",
"366 107 OFFCURVE",
"431 170 OFFCURVE",
"431 261 CURVE SMOOTH",
"431 334 OFFCURVE",
"382 391 OFFCURVE",
"281 398 CURVE",
"238 389 LINE",
"203 399 LINE",
"82 399 LINE",
"82 374 LINE",
"250 374 LINE SMOOTH",
"297 374 OFFCURVE",
"332 370 OFFCURVE",
"358 363 CURVE",
"387 340 OFFCURVE",
"401 308 OFFCURVE",
"401 263 CURVE SMOOTH",
"401 176 OFFCURVE",
"333 123 OFFCURVE",
"231 103 CURVE",
"101 177 LINE",
"95 174 OFFCURVE",
"89 167 OFFCURVE",
"87 159 CURVE",
"118 115 OFFCURVE",
"162 94 OFFCURVE",
"219 83 CURVE",
"362 -7 LINE"
);
},
{
closed = 1;
nodes = (
"307 381 OFFCURVE",
"403 443 OFFCURVE",
"441 607 CURVE",
"409 607 LINE",
"386 495 OFFCURVE",
"331 426 OFFCURVE",
"231 394 CURVE",
"151 426 OFFCURVE",
"98 492 OFFCURVE",
"68 607 CURVE",
"46 607 LINE",
"82 453 OFFCURVE",
"177 381 OFFCURVE",
"235 381 CURVE SMOOTH"
);
},
{
closed = 1;
nodes = (
"573 601 LINE",
"573 626 LINE",
"-60 626 LINE",
"-60 601 LINE"
);
}
);
width = 483;
},
{
associatedMasterId = "F84B2E81-E30C-4BCF-B175-C3D49BDC99D5";
color = 4;
guideLines = (
{
angle = 180;
position = "{309, 411}";
}
);
layerId = "3234880D-6B0D-4A6D-B5F4-2EE47119C5E8";
name = "Alternate tail";
paths = (
{
closed = 0;
nodes = (
"323 -117 LINE SMOOTH",
"355 -48 OFFCURVE",
"319 54 OFFCURVE",
"202 120 CURVE",
"238 133 OFFCURVE",
"268 160 OFFCURVE",
"282 189 CURVE SMOOTH",
"316 260 OFFCURVE",
"280 321 OFFCURVE",
"222 350 CURVE SMOOTH",
"214 354 OFFCURVE",
"207 355 OFFCURVE",
"198 358 CURVE",
"192 343 LINE",
"246 319 OFFCURVE",
"285 275 OFFCURVE",
"250 196 CURVE SMOOTH",
"236 164 OFFCURVE",
"215 146 OFFCURVE",
"185 128 CURVE",
"62 171 LINE",
"59 169 OFFCURVE",
"56 165 OFFCURVE",
"54 161 CURVE SMOOTH",
"47 148 OFFCURVE",
"50 130 OFFCURVE",
"76 118 CURVE SMOOTH",
"102 106 OFFCURVE",
"140 102 OFFCURVE",
"188 110 CURVE",
"285 48 OFFCURVE",
"323 -40 OFFCURVE",
"292 -105 CURVE SMOOTH"
);
}
);
width = 483;
},
{
associatedMasterId = "3B941797-445E-47EC-B390-6B41EAFC9AF2";
background = {
paths = (
{
closed = 1;
nodes = (
"395 72 OFFCURVE",
"506 114 OFFCURVE",
"513 212 CURVE SMOOTH",
"518 282 OFFCURVE",
"467 355 OFFCURVE",
"360 387 CURVE",
"284 340 LINE",
"218 397 LINE",
"156 391 OFFCURVE",
"106 376 OFFCURVE",
"46 345 CURVE",
"82 261 LINE",
"140 280 OFFCURVE",
"211 293 OFFCURVE",
"271 288 CURVE SMOOTH",
"308 286 OFFCURVE",
"338 277 OFFCURVE",
"363 265 CURVE",
"365 253 OFFCURVE",
"366 243 OFFCURVE",
"365 233 CURVE SMOOTH",
"361 188 OFFCURVE",
"327 162 OFFCURVE",
"261 155 CURVE",
"185 219 LINE",
"123 223 OFFCURVE",
"75 197 OFFCURVE",
"75 150 CURVE SMOOTH",
"75 133 OFFCURVE",
"80 115 OFFCURVE",
"91 101 CURVE",
"143 80 OFFCURVE",
"200 72 OFFCURVE",
"251 72 CURVE SMOOTH"
);
},
{
closed = 1;
nodes = (
"391 -7 OFFCURVE",
"416 10 OFFCURVE",
"426 32 CURVE",
"325 110 LINE",
"179 96 LINE",
"355 -10 LINE"
);
},
{
closed = 1;
nodes = (
"419 309 OFFCURVE",
"525 412 OFFCURVE",
"542 595 CURVE",
"386 595 LINE",
"387 474 OFFCURVE",
"310 387 OFFCURVE",
"259 375 CURVE",
"211 405 OFFCURVE",
"166 474 OFFCURVE",
"163 595 CURVE",
"28 595 LINE",
"48 431 OFFCURVE",
"158 309 OFFCURVE",
"285 309 CURVE SMOOTH"
);
},
{
closed = 1;
nodes = (
"598 501 LINE",
"598 616 LINE",
"-50 616 LINE",
"-50 501 LINE"
);
}
);
};
guideLines = (
{
angle = -37.729;
position = "{158, 235}";
}
);
layerId = "A322C042-98E7-48B2-ABD7-6DB80706549F";
name = "Draft 2";
paths = (
{
closed = 1;
nodes = (
"400 72 OFFCURVE",
"513 117 OFFCURVE",
"513 221 CURVE SMOOTH",
"513 288 OFFCURVE",
"462 356 OFFCURVE",
"360 387 CURVE",
"258 344 LINE",
"198 394 LINE",
"156 390 OFFCURVE",
"106 376 OFFCURVE",
"46 345 CURVE",
"82 261 LINE",
"132 277 OFFCURVE",
"191 289 OFFCURVE",
"244 289 CURVE SMOOTH",
"294 289 OFFCURVE",
"332 280 OFFCURVE",
"363 265 CURVE",
"364 256 OFFCURVE",
"365 249 OFFCURVE",
"365 241 CURVE SMOOTH",
"365 186 OFFCURVE",
"323 162 OFFCURVE",
"261 155 CURVE",
"179 219 LINE",
"123 223 OFFCURVE",
"75 197 OFFCURVE",
"75 150 CURVE SMOOTH",
"75 133 OFFCURVE",
"80 115 OFFCURVE",
"91 101 CURVE",
"143 80 OFFCURVE",
"200 72 OFFCURVE",
"251 72 CURVE SMOOTH"
);
},
{
closed = 1;
nodes = (
"391 -7 OFFCURVE",
"416 10 OFFCURVE",
"426 32 CURVE",
"325 110 LINE",
"179 96 LINE",
"355 -10 LINE"
);
},
{
closed = 1;
nodes = (
"419 309 OFFCURVE",
"525 412 OFFCURVE",
"542 595 CURVE",
"386 595 LINE",
"387 474 OFFCURVE",
"310 387 OFFCURVE",
"259 375 CURVE",
"211 405 OFFCURVE",
"166 474 OFFCURVE",
"163 595 CURVE",
"28 595 LINE",
"48 431 OFFCURVE",
"158 309 OFFCURVE",
"285 309 CURVE SMOOTH"
);
},
{
closed = 1;
nodes = (
"598 501 LINE",
"598 616 LINE",
"-50 616 LINE",
"-50 501 LINE"
);
}
);
width = 560;
}
);
unicode = 0A1D;
},
{
color = -1;
glyphname = grNYA;
lastChange = "2016-02-26 16:05:11 +0000";
layers = (
{
anchors = (
{
name = bottom;
position = "{206, 0}";
},
{
name = top;
position = "{310, 439}";
}
);
background = {
paths = (
{
closed = 1;
nodes = (
"439 -5 OFFCURVE",
"484 6 OFFCURVE",
"516 21 CURVE",
"504 51 LINE",
"459 35 OFFCURVE",
"428 28 OFFCURVE",
"393 28 CURVE SMOOTH",
"320 28 OFFCURVE",
"276 49 OFFCURVE",
"276 117 CURVE SMOOTH",
"276 129 OFFCURVE",
"278 143 OFFCURVE",
"281 158 CURVE",
"351 159 OFFCURVE",
"415 174 OFFCURVE",
"468 196 CURVE",
"468 219 OFFCURVE",
"457 231 OFFCURVE",
"442 234 CURVE",
"280 173 LINE",
"175 179 OFFCURVE",
"115 226 OFFCURVE",
"115 294 CURVE SMOOTH",
"115 349 OFFCURVE",
"150 370 OFFCURVE",
"213 370 CURVE SMOOTH",
"442 370 LINE",
"442 580 LINE",
"560 580 LINE",
"560 605 LINE",
"-20 605 LINE",
"-20 580 LINE",
"73 580 LINE",
"83 492 OFFCURVE",
"124 428 OFFCURVE",
"205 398 CURVE",
"205 395 LINE",
"132 395 OFFCURVE",
"85 359 OFFCURVE",
"85 294 CURVE SMOOTH",
"85 219 OFFCURVE",
"154 166 OFFCURVE",
"268 158 CURVE",
"261 138 OFFCURVE",
"256 117 OFFCURVE",
"256 91 CURVE SMOOTH",
"256 32 OFFCURVE",
"306 -5 OFFCURVE",
"396 -5 CURVE SMOOTH"
);
},
{
closed = 1;
nodes = (
"201 395 OFFCURVE",
"117 459 OFFCURVE",
"107 580 CURVE",
"412 580 LINE",
"412 395 LINE",
"285 395 LINE SMOOTH"
);
}
);
};
layerId = "F84B2E81-E30C-4BCF-B175-C3D49BDC99D5";
paths = (
{
closed = 1;
nodes = (
"318 -4 OFFCURVE",
"344 2 OFFCURVE",
"374 14 CURVE",
"365 37 LINE",
"331 25 OFFCURVE",
"307 20 OFFCURVE",
"280 20 CURVE SMOOTH",
"223 20 OFFCURVE",
"200 44 OFFCURVE",
"200 83 CURVE SMOOTH",
"200 92 OFFCURVE",
"202 103 OFFCURVE",
"204 115 CURVE",
"247 115 OFFCURVE",
"301 126 OFFCURVE",
"339 142 CURVE",
"339 159 OFFCURVE",
"331 167 OFFCURVE",
"320 170 CURVE",
"200 125 LINE",
"124 131 OFFCURVE",
"83 164 OFFCURVE",
"83 213 CURVE SMOOTH",
"83 253 OFFCURVE",
"109 268 OFFCURVE",
"154 268 CURVE SMOOTH",
"320 268 LINE",
"320 421 LINE",
"428 421 LINE",
"428 439 LINE",
"-29 439 LINE",
"-29 421 LINE",
"53 421 LINE",
"60 357 OFFCURVE",
"90 310 OFFCURVE",
"149 289 CURVE",
"149 286 LINE",
"96 286 OFFCURVE",
"62 260 OFFCURVE",
"62 215 CURVE SMOOTH",
"62 159 OFFCURVE",
"112 120 OFFCURVE",
"195 115 CURVE",
"189 97 OFFCURVE",
"186 82 OFFCURVE",
"186 68 CURVE SMOOTH",
"186 21 OFFCURVE",
"221 -4 OFFCURVE",
"287 -4 CURVE SMOOTH"
);
},
{
closed = 1;
nodes = (
"146 286 OFFCURVE",
"85 333 OFFCURVE",
"78 421 CURVE",
"299 421 LINE",
"299 286 LINE",
"207 286 LINE SMOOTH"
);
}
);
width = 399;
},
{
anchors = (
{
name = bottom;
position = "{232, 0}";
},
{
name = top;
position = "{317, 447}";
}
);
background = {
paths = (
{
closed = 1;
nodes = (
"464 -6 OFFCURVE",
"513 8 OFFCURVE",
"552 25 CURVE",
"520 121 LINE",
"479 111 OFFCURVE",
"447 108 OFFCURVE",
"421 108 CURVE SMOOTH",
"355 108 OFFCURVE",
"319 127 OFFCURVE",
"319 155 CURVE SMOOTH",
"319 156 OFFCURVE",
"319 166 OFFCURVE",
"319 168 CURVE",
"390 170 OFFCURVE",
"456 183 OFFCURVE",
"506 200 CURVE",
"527 245 OFFCURVE",
"504 306 OFFCURVE",
"452 316 CURVE",
"266 252 LINE",
"211 249 OFFCURVE",
"194 280 OFFCURVE",
"194 305 CURVE SMOOTH",
"194 331 OFFCURVE",
"211 354 OFFCURVE",
"248 354 CURVE SMOOTH",
"512 354 LINE",
"512 501 LINE",
"588 501 LINE",
"588 616 LINE",
"-20 616 LINE",
"-20 501 LINE",
"40 501 LINE",
"48 451 OFFCURVE",
"80 422 OFFCURVE",
"121 405 CURVE",
"121 399 LINE",
"70 377 OFFCURVE",
"44 340 OFFCURVE",
"44 290 CURVE SMOOTH",
"44 215 OFFCURVE",
"105 181 OFFCURVE",
"221 171 CURVE",
"218 160 OFFCURVE",
"217 141 OFFCURVE",
"217 129 CURVE SMOOTH",
"217 65 OFFCURVE",
"271 -6 OFFCURVE",
"404 -6 CURVE SMOOTH"
);
},
{
closed = 1;
nodes = (
"204 446 OFFCURVE",
"190 466 OFFCURVE",
"190 501 CURVE",
"362 501 LINE",
"362 432 LINE",
"223 432 LINE"
);
}
);
};
guideLines = (
{
position = "{264, 280}";
}
);
layerId = "3B941797-445E-47EC-B390-6B41EAFC9AF2";
paths = (
{
closed = 1;
nodes = (
"336 -4 OFFCURVE",
"372 6 OFFCURVE",
"400 18 CURVE",
"377 88 LINE",
"347 80 OFFCURVE",
"324 78 OFFCURVE",
"305 78 CURVE SMOOTH",
"265 78 OFFCURVE",
"231 88 OFFCURVE",
"231 115 CURVE SMOOTH",
"231 117 OFFCURVE",
"231 120 OFFCURVE",
"231 122 CURVE",
"283 123 OFFCURVE",
"331 133 OFFCURVE",
"367 145 CURVE",
"382 178 OFFCURVE",
"365 222 OFFCURVE",
"328 229 CURVE",
"193 183 LINE",
"153 181 OFFCURVE",
"141 203 OFFCURVE",
"141 221 CURVE SMOOTH",
"141 240 OFFCURVE",
"153 257 OFFCURVE",
"180 257 CURVE SMOOTH",
"371 257 LINE",
"371 363 LINE",
"447 363 LINE",
"447 447 LINE",
"-29 447 LINE",
"-29 363 LINE",
"29 363 LINE",
"35 327 OFFCURVE",
"58 306 OFFCURVE",
"88 294 CURVE",
"88 289 LINE",
"51 273 OFFCURVE",
"32 247 OFFCURVE",
"32 210 CURVE SMOOTH",
"32 156 OFFCURVE",
"76 131 OFFCURVE",
"160 124 CURVE",
"158 116 OFFCURVE",
"157 102 OFFCURVE",
"157 94 CURVE SMOOTH",
"157 47 OFFCURVE",
"186 -4 OFFCURVE",
"293 -4 CURVE SMOOTH"
);
},
{
closed = 1;
nodes = (
"148 323 OFFCURVE",
"138 338 OFFCURVE",
"138 363 CURVE",
"262 363 LINE",
"262 313 LINE",
"162 313 LINE"
);
}
);
width = 418;
}
);
unicode = 0A1E;
},
{
color = -1;
glyphname = grTTA;
lastChange = "2016-02-26 16:05:11 +0000";
layers = (
{
anchors = (
{
name = bottom;
position = "{218, 0}";
},
{
name = top;
position = "{300, 439}";
}
);
guideLines = (
{
position = "{493, 386}";
},
{
position = "{493, 411}";
}
);
layerId = "F84B2E81-E30C-4BCF-B175-C3D49BDC99D5";
paths = (
{
closed = 1;
nodes = (
"277 -4 OFFCURVE",
"329 30 OFFCURVE",
"359 64 CURVE",
"336 74 LINE",
"310 49 OFFCURVE",
"283 28 OFFCURVE",
"249 15 CURVE",
"159 15 OFFCURVE",
"51 97 OFFCURVE",
"51 186 CURVE SMOOTH",
"51 239 OFFCURVE",
"79 265 OFFCURVE",
"149 265 CURVE SMOOTH",
"311 265 LINE",
"311 421 LINE",
"415 421 LINE",
"415 439 LINE",
"-29 439 LINE",
"-29 421 LINE",
"289 421 LINE",
"289 283 LINE",
"142 283 LINE SMOOTH",
"69 283 OFFCURVE",
"28 248 OFFCURVE",
"28 189 CURVE SMOOTH",
"28 87 OFFCURVE",
"157 -4 OFFCURVE",
"251 -4 CURVE SMOOTH"
);
}
);
width = 386;
},
{
anchors = (
{
name = bottom;
position = "{225, 0}";
},
{
name = top;
position = "{302, 447}";
}
);
background = {
paths = (
{
closed = 1;
nodes = (
"393 0 OFFCURVE",
"469 30 OFFCURVE",
"522 112 CURVE",
"402 181 LINE",
"368 152 OFFCURVE",
"329 124 OFFCURVE",
"293 111 CURVE",
"230 119 OFFCURVE",
"179 169 OFFCURVE",
"179 228 CURVE SMOOTH",
"179 273 OFFCURVE",
"212 293 OFFCURVE",
"258 293 CURVE SMOOTH",
"492 293 LINE",
"492 501 LINE",
"572 501 LINE",
"572 616 LINE",
"-10 616 LINE",
"-10 501 LINE",
"342 501 LINE",
"342 408 LINE",
"202 408 LINE SMOOTH",
"101 408 OFFCURVE",
"29 351 OFFCURVE",
"29 261 CURVE SMOOTH",
"29 115 OFFCURVE",
"198 0 OFFCURVE",
"325 0 CURVE SMOOTH"
);
}
);
};
color = 4;
layerId = "3B941797-445E-47EC-B390-6B41EAFC9AF2";
paths = (
{
closed = 1;
nodes = (
"285 -4 OFFCURVE",
"340 21 OFFCURVE",
"378 77 CURVE",
"291 127 LINE",
"267 106 OFFCURVE",
"239 86 OFFCURVE",
"212 76 CURVE",
"165 89 OFFCURVE",
"130 123 OFFCURVE",
"130 165 CURVE SMOOTH",
"130 198 OFFCURVE",
"154 212 OFFCURVE",
"187 212 CURVE SMOOTH",
"357 212 LINE",
"357 363 LINE",
"429 363 LINE",
"429 447 LINE",
"-29 447 LINE",
"-29 363 LINE",
"248 363 LINE",
"248 296 LINE",
"146 296 LINE SMOOTH",
"73 296 OFFCURVE",
"21 254 OFFCURVE",
"21 189 CURVE SMOOTH",
"21 83 OFFCURVE",
"144 -4 OFFCURVE",
"236 -4 CURVE SMOOTH"
);
}
);
width = 400;
}
);
unicode = 0A1F;
},
{
color = -1;
glyphname = grTTHA;
lastChange = "2016-02-26 16:05:11 +0000";
layers = (
{
anchors = (
{
name = bottom;
position = "{236, 0}";
},
{
name = top;
position = "{363, 439}";
}
);
background = {
paths = (
{
closed = 1;
nodes = (
"484 -5 OFFCURVE",
"578 71 OFFCURVE",
"578 198 CURVE SMOOTH",
"578 326 OFFCURVE",
"484 401 OFFCURVE",
"325 401 CURVE SMOOTH",
"165 401 OFFCURVE",
"70 326 OFFCURVE",
"70 198 CURVE SMOOTH",
"70 71 OFFCURVE",
"165 -5 OFFCURVE",
"325 -5 CURVE SMOOTH"
);
},
{
closed = 1;
nodes = (
"268 19 OFFCURVE",
"217 27 OFFCURVE",
"160 50 CURVE",
"124 89 OFFCURVE",
"102 131 OFFCURVE",
"102 198 CURVE SMOOTH",
"102 311 OFFCURVE",
"169 377 OFFCURVE",
"323 377 CURVE SMOOTH",
"380 377 OFFCURVE",
"431 369 OFFCURVE",
"488 346 CURVE",
"524 307 OFFCURVE",
"546 266 OFFCURVE",
"546 198 CURVE SMOOTH",
"546 86 OFFCURVE",
"479 19 OFFCURVE",
"325 19 CURVE SMOOTH"
);
},
{
closed = 1;
nodes = (
"338 393 LINE",
"338 580 LINE",
"668 580 LINE",
"668 605 LINE",
"-20 605 LINE",
"-20 580 LINE",
"308 580 LINE",
"308 393 LINE"
);
}
);
};
guideLines = (
{
angle = 90;
position = "{325, 218}";
},
{
angle = 180;
position = "{324, 198}";
}
);
layerId = "F84B2E81-E30C-4BCF-B175-C3D49BDC99D5";
paths = (
{
closed = 1;
nodes = (
"351 -4 OFFCURVE",
"419 51 OFFCURVE",
"419 144 CURVE SMOOTH",
"419 236 OFFCURVE",
"351 291 OFFCURVE",
"236 291 CURVE SMOOTH",
"120 291 OFFCURVE",
"51 236 OFFCURVE",
"51 144 CURVE SMOOTH",
"51 51 OFFCURVE",
"120 -4 OFFCURVE",
"236 -4 CURVE SMOOTH"
);
},
{
closed = 1;
nodes = (
"194 15 OFFCURVE",
"156 20 OFFCURVE",
"115 37 CURVE",
"88 67 OFFCURVE",
"74 99 OFFCURVE",
"74 144 CURVE SMOOTH",
"74 223 OFFCURVE",
"123 273 OFFCURVE",
"234 273 CURVE SMOOTH",
"276 273 OFFCURVE",
"313 268 OFFCURVE",
"355 250 CURVE",
"381 220 OFFCURVE",
"396 189 OFFCURVE",
"396 144 CURVE SMOOTH",
"396 65 OFFCURVE",
"347 15 OFFCURVE",
"236 15 CURVE SMOOTH"
);
},
{
closed = 1;
nodes = (
"499 421 LINE",
"499 439 LINE",
"-29 439 LINE",
"-29 421 LINE"
);
},
{
closed = 1;
nodes = (
"225 426 LINE",
"225 286 LINE",
"247 286 LINE",
"247 426 LINE"
);
}
);
width = 470;
},
{
anchors = (
{
name = bottom;
position = "{239, 0}";
},
{
name = top;
position = "{338, 447}";
}
);
background = {
paths = (
{
closed = 1;
nodes = (
"253 446 LINE",
"330 446 LINE",
"330 523 LINE",
"253 523 LINE"
);
}
);
};
guideLines = (
{
position = "{330, 213}";
showMeasurement = 1;
},
{
angle = 90;
position = "{330, 207}";
}
);
layerId = "3B941797-445E-47EC-B390-6B41EAFC9AF2";
paths = (
{
closed = 1;
nodes = (
"365 -4 OFFCURVE",
"449 57 OFFCURVE",
"449 150 CURVE SMOOTH",
"449 242 OFFCURVE",
"365 304 OFFCURVE",
"239 304 CURVE SMOOTH",
"113 304 OFFCURVE",
"29 242 OFFCURVE",
"29 150 CURVE SMOOTH",
"29 57 OFFCURVE",
"113 -4 OFFCURVE",
"239 -4 CURVE SMOOTH"
);
},
{
closed = 1;
nodes = (
"204 80 OFFCURVE",
"180 84 OFFCURVE",
"152 92 CURVE",
"145 108 OFFCURVE",
"140 126 OFFCURVE",
"140 150 CURVE SMOOTH",
"140 204 OFFCURVE",
"168 226 OFFCURVE",
"239 226 CURVE SMOOTH",
"274 226 OFFCURVE",
"298 223 OFFCURVE",
"326 215 CURVE",
"333 199 OFFCURVE",
"338 177 OFFCURVE",
"338 150 CURVE SMOOTH",
"338 101 OFFCURVE",
"310 80 OFFCURVE",
"239 80 CURVE SMOOTH"
);
},
{
closed = 1;
nodes = (
"507 363 LINE",
"507 447 LINE",
"-29 447 LINE",
"-29 363 LINE"
);
},
{
closed = 1;
nodes = (
"183 375 LINE",
"183 278 LINE",
"296 278 LINE",
"296 375 LINE"
);
}
);
width = 478;
},
{
associatedMasterId = "3B941797-445E-47EC-B390-6B41EAFC9AF2";
background = {
components = (
{
name = grNA;
}
);
};
layerId = "E482CFE3-7428-4F7B-AEEB-89B0A249F250";
name = "Draft 1";
paths = (
{
closed = 1;
nodes = (
"510 0 OFFCURVE",
"616 73 OFFCURVE",
"616 196 CURVE SMOOTH",
"616 297 OFFCURVE",
"514 425 OFFCURVE",
"332 425 CURVE SMOOTH",
"115 425 OFFCURVE",
"37 318 OFFCURVE",
"37 214 CURVE SMOOTH",
"37 72 OFFCURVE",
"146 0 OFFCURVE",
"330 0 CURVE SMOOTH"
);
},
{
closed = 1;
nodes = (
"284 117 OFFCURVE",
"223 125 OFFCURVE",
"194 137 CURVE",
"181 155 OFFCURVE",
"172 178 OFFCURVE",
"172 212 CURVE SMOOTH",
"172 276 OFFCURVE",
"212 318 OFFCURVE",
"330 318 CURVE SMOOTH",
"368 318 OFFCURVE",
"406 312 OFFCURVE",
"432 301 CURVE",
"453 274 OFFCURVE",
"463 233 OFFCURVE",
"463 199 CURVE SMOOTH",
"463 133 OFFCURVE",
"415 118 OFFCURVE",
"335 117 CURVE SMOOTH"
);
},
{
closed = 1;
nodes = (
"414 384 LINE",
"414 534 LINE",
"259 534 LINE",
"259 384 LINE"
);
},
{
closed = 1;
nodes = (
"670 501 LINE",
"670 616 LINE",
"-20 616 LINE",
"-20 501 LINE"
);
}
);
width = 650;
}
);
unicode = 0A20;
},
{
color = -1;
glyphname = grDDA;
lastChange = "2016-02-26 16:05:11 +0000";
layers = (
{
anchors = (
{
name = bottom;
position = "{210, 0}";
},
{
name = top;
position = "{341, 439}";
}
);
background = {
paths = (
{
closed = 1;
nodes = (
"451 -5 OFFCURVE",
"549 88 OFFCURVE",
"549 196 CURVE SMOOTH",
"549 302 OFFCURVE",
"460 399 OFFCURVE",
"256 399 CURVE SMOOTH",
"118 399 OFFCURVE",
"108 384 OFFCURVE",
"108 374 CURVE SMOOTH",
"108 371 OFFCURVE",
"108 368 OFFCURVE",
"109 365 CURVE",
"138 358 OFFCURVE",
"200 353 OFFCURVE",
"254 353 CURVE SMOOTH",
"310 353 OFFCURVE",
"338 357 OFFCURVE",
"382 367 CURVE",
"472 333 OFFCURVE",
"516 276 OFFCURVE",
"516 201 CURVE SMOOTH",
"516 102 OFFCURVE",
"427 20 OFFCURVE",
"239 20 CURVE SMOOTH",
"185 20 OFFCURVE",
"131 28 OFFCURVE",
"87 41 CURVE",
"73 58 OFFCURVE",
"65 80 OFFCURVE",
"65 105 CURVE SMOOTH",
"65 157 OFFCURVE",
"111 200 OFFCURVE",
"214 200 CURVE SMOOTH",
"308 200 OFFCURVE",
"414 152 OFFCURVE",
"493 102 CURVE",
"503 115 LINE",
"414 174 OFFCURVE",
"322 225 OFFCURVE",
"207 225 CURVE SMOOTH",
"88 225 OFFCURVE",
"32 175 OFFCURVE",
"32 110 CURVE SMOOTH",
"32 45 OFFCURVE",
"87 -5 OFFCURVE",
"239 -5 CURVE SMOOTH"
);
},
{
closed = 1;
nodes = (
"443 444 OFFCURVE",
"465 514 OFFCURVE",
"474 605 CURVE",
"436 605 LINE",
"433 513 OFFCURVE",
"415 455 OFFCURVE",
"372 381 CURVE",
"391 373 LINE"
);
},
{
closed = 1;
nodes = (
"686 601 LINE",
"686 626 LINE",
"0 626 LINE",
"0 601 LINE"
);
}
);
};
guideLines = (
{
position = "{226, 110}";
}
);
layerId = "F84B2E81-E30C-4BCF-B175-C3D49BDC99D5";
paths = (
{
closed = 1;
nodes = (
"339 -4 OFFCURVE",
"410 64 OFFCURVE",
"410 142 CURVE SMOOTH",
"410 219 OFFCURVE",
"345 289 OFFCURVE",
"197 289 CURVE SMOOTH",
"97 289 OFFCURVE",
"90 278 OFFCURVE",
"90 271 CURVE SMOOTH",
"90 269 OFFCURVE",
"90 267 OFFCURVE",
"91 265 CURVE",
"112 260 OFFCURVE",
"157 256 OFFCURVE",
"196 256 CURVE SMOOTH",
"229 256 OFFCURVE",
"257 260 OFFCURVE",
"291 268 CURVE",
"354 241 OFFCURVE",
"386 200 OFFCURVE",
"386 146 CURVE SMOOTH",
"386 74 OFFCURVE",
"321 15 OFFCURVE",
"185 15 CURVE SMOOTH",
"146 15 OFFCURVE",
"107 20 OFFCURVE",
"75 30 CURVE",
"65 42 OFFCURVE",
"59 58 OFFCURVE",
"59 76 CURVE SMOOTH",
"59 114 OFFCURVE",
"92 145 OFFCURVE",
"167 145 CURVE SMOOTH",
"235 145 OFFCURVE",
"312 110 OFFCURVE",
"369 74 CURVE",
"376 83 LINE",
"312 126 OFFCURVE",
"245 163 OFFCURVE",
"162 163 CURVE SMOOTH",
"75 163 OFFCURVE",
"35 127 OFFCURVE",
"35 80 CURVE SMOOTH",
"35 33 OFFCURVE",
"75 -4 OFFCURVE",
"185 -4 CURVE SMOOTH"
);
},
{
closed = 1;
nodes = (
"331 319 OFFCURVE",
"347 368 OFFCURVE",
"354 428 CURVE",
"327 428 LINE",
"324 368 OFFCURVE",
"311 327 OFFCURVE",
"281 276 CURVE",
"295 270 LINE"
);
},
{
closed = 1;
nodes = (
"479 421 LINE",
"479 439 LINE",
"-29 439 LINE",
"-29 421 LINE"
);
}
);
width = 450;
},
{
anchors = (
{
name = bottom;
position = "{242, 0}";
},
{
name = top;
position = "{349, 447}";
}
);
background = {
paths = (
{
closed = 0;
nodes = (
"597 251 LINE SMOOTH",
"597 363 OFFCURVE",
"463 437 OFFCURVE",
"282 437 CURVE SMOOTH",
"105 437 OFFCURVE",
"86 395 OFFCURVE",
"86 349 CURVE SMOOTH",
"86 336 OFFCURVE",
"88 325 OFFCURVE",
"92 314 CURVE",
"132 296 OFFCURVE",
"189 287 OFFCURVE",
"246 287 CURVE SMOOTH",
"311 287 OFFCURVE",
"377 301 OFFCURVE",
"423 322 CURVE",
"437 307 OFFCURVE",
"447 286 OFFCURVE",
"447 264 CURVE SMOOTH"
);
}
);
};
layerId = "3B941797-445E-47EC-B390-6B41EAFC9AF2";
paths = (
{
closed = 1;
nodes = (
"347 -4 OFFCURVE",
"447 61 OFFCURVE",
"447 151 CURVE SMOOTH",
"447 237 OFFCURVE",
"375 308 OFFCURVE",
"202 308 CURVE SMOOTH",
"90 308 OFFCURVE",
"63 283 OFFCURVE",
"63 254 CURVE SMOOTH",
"63 244 OFFCURVE",
"65 236 OFFCURVE",
"69 227 CURVE",
"97 217 OFFCURVE",
"155 212 OFFCURVE",
"191 212 CURVE SMOOTH",
"228 212 OFFCURVE",
"273 219 OFFCURVE",
"314 230 CURVE",
"329 212 OFFCURVE",
"339 189 OFFCURVE",
"339 163 CURVE SMOOTH",
"339 107 OFFCURVE",
"286 65 OFFCURVE",
"205 65 CURVE SMOOTH",
"173 65 OFFCURVE",
"157 66 OFFCURVE",
"139 69 CURVE",
"135 75 OFFCURVE",
"133 80 OFFCURVE",
"133 88 CURVE SMOOTH",
"133 102 OFFCURVE",
"152 114 OFFCURVE",
"187 114 CURVE SMOOTH",
"233 114 OFFCURVE",
"267 103 OFFCURVE",
"325 78 CURVE",
"356 125 LINE",
"301 156 OFFCURVE",
"244 180 OFFCURVE",
"162 180 CURVE SMOOTH",
"79 180 OFFCURVE",
"25 144 OFFCURVE",
"25 89 CURVE SMOOTH",
"25 35 OFFCURVE",
"75 -4 OFFCURVE",
"210 -4 CURVE SMOOTH"
);
},
{
closed = 1;
nodes = (
"376 286 OFFCURVE",
"403 332 OFFCURVE",
"408 380 CURVE",
"289 380 LINE",
"288 348 OFFCURVE",
"281 316 OFFCURVE",
"266 288 CURVE",
"348 257 LINE"
);
},
{
closed = 1;
nodes = (
"503 363 LINE",
"503 447 LINE",
"-29 447 LINE",
"-29 363 LINE"
);
}
);
width = 474;
},
{
associatedMasterId = "F84B2E81-E30C-4BCF-B175-C3D49BDC99D5";
background = {
paths = (
{
closed = 1;
nodes = (
"443 450 OFFCURVE",
"465 514 OFFCURVE",
"474 605 CURVE",
"436 605 LINE",
"433 513 OFFCURVE",
"415 461 OFFCURVE",
"384 384 CURVE",
"409 376 LINE"
);
},
{
closed = 1;
nodes = (
"666 601 LINE",
"666 626 LINE",
"-20 626 LINE",
"-20 601 LINE"
);
},
{
closed = 1;
nodes = (
"529 313 OFFCURVE",
"440 405 OFFCURVE",
"262 405 CURVE SMOOTH",
"206 405 OFFCURVE",
"188 395 OFFCURVE",
"188 377 CURVE SMOOTH",
"188 374 OFFCURVE",
"188 370 OFFCURVE",
"189 367 CURVE",
"206 363 OFFCURVE",
"240 359 OFFCURVE",
"283 359 CURVE SMOOTH",
"333 359 OFFCURVE",
"355 361 OFFCURVE",
"404 365 CURVE",
"468 325 OFFCURVE",
"496 280 OFFCURVE",
"496 210 CURVE SMOOTH",
"496 101 OFFCURVE",
"405 25 OFFCURVE",
"282 25 CURVE SMOOTH",
"177 25 OFFCURVE",
"99 49 OFFCURVE",
"99 107 CURVE SMOOTH",
"99 162 OFFCURVE",
"161 184 OFFCURVE",
"243 184 CURVE SMOOTH",
"309 184 OFFCURVE",
"406 163 OFFCURVE",
"473 107 CURVE",
"483 120 LINE",
"415 181 OFFCURVE",
"330 209 OFFCURVE",
"233 209 CURVE SMOOTH",
"138 209 OFFCURVE",
"66 182 OFFCURVE",
"66 107 CURVE SMOOTH",
"66 40 OFFCURVE",
"150 0 OFFCURVE",
"262 0 CURVE SMOOTH",
"416 0 OFFCURVE",
"529 87 OFFCURVE",
"529 210 CURVE SMOOTH"
);
}
);
};
layerId = "76FFDD9F-F2CB-43AD-A1F5-7FC90704CE2D";
name = "Draft 1";
paths = (
{
closed = 1;
nodes = (
"416 0 OFFCURVE",
"529 87 OFFCURVE",
"529 210 CURVE SMOOTH",
"529 313 OFFCURVE",
"440 405 OFFCURVE",
"262 405 CURVE SMOOTH",
"186 405 OFFCURVE",
"168 395 OFFCURVE",
"168 377 CURVE SMOOTH",
"168 374 OFFCURVE",
"168 370 OFFCURVE",
"169 367 CURVE",
"186 363 OFFCURVE",
"220 359 OFFCURVE",
"283 359 CURVE SMOOTH",
"333 359 OFFCURVE",
"355 361 OFFCURVE",
"404 365 CURVE",
"468 325 OFFCURVE",
"496 280 OFFCURVE",
"496 210 CURVE SMOOTH",
"496 101 OFFCURVE",
"405 25 OFFCURVE",
"267 25 CURVE SMOOTH",
"209 25 OFFCURVE",
"159 33 OFFCURVE",
"115 46 CURVE",
"106 64 OFFCURVE",
"99 86 OFFCURVE",
"99 107 CURVE SMOOTH",
"99 162 OFFCURVE",
"161 184 OFFCURVE",
"233 184 CURVE SMOOTH",
"305 184 OFFCURVE",
"394 157 OFFCURVE",
"473 107 CURVE",
"483 120 LINE",
"394 179 OFFCURVE",
"320 209 OFFCURVE",
"223 209 CURVE SMOOTH",
"138 209 OFFCURVE",
"66 175 OFFCURVE",
"66 107 CURVE SMOOTH",
"66 34 OFFCURVE",
"138 0 OFFCURVE",
"262 0 CURVE SMOOTH"
);
},
{
closed = 1;
nodes = (
"666 601 LINE",
"666 626 LINE",
"-20 626 LINE",
"-20 601 LINE"
);
},
{
closed = 1;
nodes = (
"443 450 OFFCURVE",
"465 514 OFFCURVE",
"474 605 CURVE",
"436 605 LINE",
"433 513 OFFCURVE",
"415 461 OFFCURVE",
"384 384 CURVE",
"409 376 LINE"
);
}
);
width = 600;
},
{
associatedMasterId = "3B941797-445E-47EC-B390-6B41EAFC9AF2";
background = {
paths = (
{
closed = 1;
nodes = (
"458 -20 OFFCURVE",
"607 70 OFFCURVE",
"607 197 CURVE SMOOTH",
"607 323 OFFCURVE",
"457 430 OFFCURVE",
"276 430 CURVE SMOOTH",
"176 430 OFFCURVE",
"129 401 OFFCURVE",
"129 351 CURVE SMOOTH",
"129 334 OFFCURVE",
"132 321 OFFCURVE",
"137 310 CURVE",
"176 292 OFFCURVE",
"224 283 OFFCURVE",
"276 283 CURVE SMOOTH",
"320 283 OFFCURVE",
"366 291 OFFCURVE",
"416 308 CURVE",
"441 280 OFFCURVE",
"457 240 OFFCURVE",
"457 201 CURVE SMOOTH",
"457 140 OFFCURVE",
"363 81 OFFCURVE",
"260 81 CURVE SMOOTH",
"228 81 OFFCURVE",
"206 83 OFFCURVE",
"182 87 CURVE",
"176 95 OFFCURVE",
"174 103 OFFCURVE",
"174 113 CURVE SMOOTH",
"174 133 OFFCURVE",
"199 149 OFFCURVE",
"248 149 CURVE SMOOTH",
"311 149 OFFCURVE",
"358 134 OFFCURVE",
"438 100 CURVE",
"481 164 LINE",
"405 207 OFFCURVE",
"326 240 OFFCURVE",
"214 240 CURVE SMOOTH",
"99 240 OFFCURVE",
"24 190 OFFCURVE",
"24 115 CURVE SMOOTH",
"24 40 OFFCURVE",
"93 -20 OFFCURVE",
"280 -20 CURVE SMOOTH"
);
},
{
closed = 1;
nodes = (
"649 501 LINE",
"649 616 LINE",
"-20 616 LINE",
"-20 501 LINE"
);
},
{
closed = 1;
nodes = (
"509 397 OFFCURVE",
"552 464 OFFCURVE",
"552 524 CURVE",
"388 524 LINE",
"388 493 OFFCURVE",
"382 447 OFFCURVE",
"357 397 CURVE",
"470 355 LINE"
);
}
);
};
layerId = "E772AB9C-ED91-48FC-A01A-B5375759F006";
name = "Draft 1";
paths = (
{
closed = 1;
nodes = (
"458 -6 OFFCURVE",
"607 84 OFFCURVE",
"607 211 CURVE SMOOTH",
"607 337 OFFCURVE",
"457 437 OFFCURVE",
"276 437 CURVE SMOOTH",
"176 437 OFFCURVE",
"129 408 OFFCURVE",
"129 358 CURVE SMOOTH",
"129 341 OFFCURVE",
"132 328 OFFCURVE",
"137 317 CURVE",
"176 299 OFFCURVE",
"224 290 OFFCURVE",
"276 290 CURVE SMOOTH",
"320 290 OFFCURVE",
"366 298 OFFCURVE",
"420 315 CURVE",
"443 288 OFFCURVE",
"457 252 OFFCURVE",
"457 215 CURVE SMOOTH",
"457 154 OFFCURVE",
"374 95 OFFCURVE",
"260 95 CURVE SMOOTH",
"228 95 OFFCURVE",
"206 97 OFFCURVE",
"182 101 CURVE",
"176 109 OFFCURVE",
"174 117 OFFCURVE",
"174 127 CURVE SMOOTH",
"174 147 OFFCURVE",
"199 163 OFFCURVE",
"248 163 CURVE SMOOTH",
"311 163 OFFCURVE",
"358 148 OFFCURVE",
"438 114 CURVE",
"481 178 LINE",
"405 221 OFFCURVE",
"326 254 OFFCURVE",
"214 254 CURVE SMOOTH",
"99 254 OFFCURVE",
"24 204 OFFCURVE",
"24 129 CURVE SMOOTH",
"24 54 OFFCURVE",
"93 -6 OFFCURVE",
"280 -6 CURVE SMOOTH"
);
},
{
closed = 1;
nodes = (
"509 394 OFFCURVE",
"546 458 OFFCURVE",
"553 524 CURVE",
"388 524 LINE",
"388 493 OFFCURVE",
"382 447 OFFCURVE",
"357 397 CURVE",
"470 355 LINE"
);
},
{
closed = 1;
nodes = (
"649 501 LINE",
"649 616 LINE",
"-20 616 LINE",
"-20 501 LINE"
);
}
);
width = 629;
}
);
unicode = 0A21;
},
{
color = -1;
glyphname = grDDHA;
lastChange = "2016-02-26 16:05:11 +0000";
layers = (
{
anchors = (
{
name = bottom;
position = "{239, 0}";
},
{
name = top;
position = "{347, 439}";
}
);
background = {
paths = (
{
closed = 1;
nodes = (
"510 -5 OFFCURVE",
"562 53 OFFCURVE",
"562 119 CURVE SMOOTH",
"562 190 OFFCURVE",
"510 248 OFFCURVE",
"408 248 CURVE SMOOTH",
"324 248 OFFCURVE",
"248 206 OFFCURVE",
"170 147 CURVE",
"181 128 LINE",
"263 185 OFFCURVE",
"333 224 OFFCURVE",
"408 224 CURVE SMOOTH",
"445 224 OFFCURVE",
"472 221 OFFCURVE",
"507 206 CURVE",
"523 181 OFFCURVE",
"532 150 OFFCURVE",
"532 119 CURVE SMOOTH",
"532 58 OFFCURVE",
"488 19 OFFCURVE",
"408 19 CURVE SMOOTH",
"205 19 OFFCURVE",
"136 210 OFFCURVE",
"111 390 CURVE",
"493 390 LINE",
"493 580 LINE",
"600 580 LINE",
"600 605 LINE",
"-13 605 LINE",
"-13 580 LINE",
"463 580 LINE",
"463 414 LINE",
"106 414 LINE",
"23 484 LINE",
"14 482 OFFCURVE",
"10 478 OFFCURVE",
"7 471 CURVE",
"7 451 OFFCURVE",
"34 416 OFFCURVE",
"85 388 CURVE",
"109 186 OFFCURVE",
"201 -5 OFFCURVE",
"408 -5 CURVE SMOOTH"
);
}
);
};
layerId = "F84B2E81-E30C-4BCF-B175-C3D49BDC99D5";
paths = (
{
closed = 1;
nodes = (
"370 -4 OFFCURVE",
"408 38 OFFCURVE",
"408 86 CURVE SMOOTH",
"408 141 OFFCURVE",
"370 180 OFFCURVE",
"297 180 CURVE SMOOTH",
"236 180 OFFCURVE",
"181 149 OFFCURVE",
"124 104 CURVE",
"132 90 LINE",
"191 133 OFFCURVE",
"242 162 OFFCURVE",
"297 162 CURVE SMOOTH",
"323 162 OFFCURVE",
"343 160 OFFCURVE",
"368 149 CURVE",
"379 129 OFFCURVE",
"385 109 OFFCURVE",
"385 86 CURVE SMOOTH",
"385 46 OFFCURVE",
"357 15 OFFCURVE",
"297 15 CURVE SMOOTH",
"149 15 OFFCURVE",
"99 158 OFFCURVE",
"81 283 CURVE",
"358 283 LINE",
"357 426 LINE",
"336 426 LINE",
"336 301 LINE",
"78 301 LINE",
"17 354 LINE",
"11 352 OFFCURVE",
"8 349 OFFCURVE",
"6 344 CURVE",
"6 328 OFFCURVE",
"25 302 OFFCURVE",
"62 281 CURVE",
"80 140 OFFCURVE",
"146 -4 OFFCURVE",
"297 -4 CURVE SMOOTH"
);
},
{
closed = 1;
nodes = (
"464 421 LINE",
"464 439 LINE",
"-29 439 LINE",
"-29 421 LINE"
);
}
);
width = 435;
},
{
anchors = (
{
name = bottom;
position = "{254, 0}";
},
{
name = top;
position = "{328, 447}";
}
);
guideLines = (
{
angle = 180;
position = "{430, 126}";
}
);
layerId = "3B941797-445E-47EC-B390-6B41EAFC9AF2";
paths = (
{
closed = 1;
nodes = (
"408 -4 OFFCURVE",
"453 41 OFFCURVE",
"453 91 CURVE SMOOTH",
"453 142 OFFCURVE",
"405 186 OFFCURVE",
"316 186 CURVE SMOOTH",
"256 186 OFFCURVE",
"215 170 OFFCURVE",
"166 138 CURVE",
"202 73 LINE",
"236 100 OFFCURVE",
"266 113 OFFCURVE",
"301 113 CURVE SMOOTH",
"318 113 OFFCURVE",
"328 112 OFFCURVE",
"340 109 CURVE",
"343 103 OFFCURVE",
"344 96 OFFCURVE",
"344 89 CURVE SMOOTH",
"344 73 OFFCURVE",
"329 62 OFFCURVE",
"295 62 CURVE SMOOTH",
"219 62 OFFCURVE",
"159 112 OFFCURVE",
"149 220 CURVE",
"382 220 LINE",
"382 375 LINE",
"273 375 LINE",
"273 297 LINE",
"131 297 LINE",
"74 334 LINE",
"43 334 OFFCURVE",
"17 312 OFFCURVE",
"6 278 CURVE",
"11 244 OFFCURVE",
"32 220 OFFCURVE",
"57 211 CURVE",
"67 70 OFFCURVE",
"177 -4 OFFCURVE",
"310 -4 CURVE SMOOTH"
);
},
{
closed = 1;
nodes = (
"475 363 LINE",
"475 447 LINE",
"-34 447 LINE",
"-34 363 LINE"
);
}
);
width = 471;
}
);
unicode = 0A22;
},
{
color = -1;
glyphname = grNNA;
lastChange = "2016-02-26 16:05:11 +0000";
layers = (
{
anchors = (
{
name = bottom;
position = "{238, 0}";
},
{
name = top;
position = "{303, 447}";
}
);
background = {
paths = (
{
closed = 1;
nodes = (
"393 -6 OFFCURVE",
"469 29 OFFCURVE",
"522 106 CURVE",
"402 175 LINE",
"368 146 OFFCURVE",
"329 118 OFFCURVE",
"293 105 CURVE",
"228 123 OFFCURVE",
"179 169 OFFCURVE",
"179 228 CURVE SMOOTH",
"179 273 OFFCURVE",
"212 293 OFFCURVE",
"258 293 CURVE SMOOTH",
"492 293 LINE",
"492 501 LINE",
"592 501 LINE",
"592 616 LINE",
"-40 616 LINE",
"-40 501 LINE",
"342 501 LINE",
"342 408 LINE",
"202 408 LINE SMOOTH",
"101 408 OFFCURVE",
"29 351 OFFCURVE",
"29 261 CURVE SMOOTH",
"29 115 OFFCURVE",
"198 -6 OFFCURVE",
"325 -6 CURVE SMOOTH"
);
}
);
};
layerId = "3B941797-445E-47EC-B390-6B41EAFC9AF2";
paths = (
{
closed = 1;
nodes = (
"321 -4 OFFCURVE",
"390 34 OFFCURVE",
"429 91 CURVE",
"339 144 LINE",
"311 114 OFFCURVE",
"270 87 OFFCURVE",
"234 76 CURVE",
"189 82 OFFCURVE",
"130 120 OFFCURVE",
"130 165 CURVE SMOOTH",
"130 198 OFFCURVE",
"154 212 OFFCURVE",
"187 212 CURVE SMOOTH",
"272 212 LINE",
"272 299 LINE",
"275 301 LINE",
"357 239 LINE",
"390 240 OFFCURVE",
"426 263 OFFCURVE",
"439 294 CURVE",
"335 361 LINE",
"336 363 LINE",
"480 363 LINE",
"480 447 LINE",
"-29 447 LINE",
"-29 363 LINE",
"173 363 LINE",
"173 296 LINE",
"146 296 LINE SMOOTH",
"73 296 OFFCURVE",
"21 254 OFFCURVE",
"21 189 CURVE SMOOTH",
"21 76 OFFCURVE",
"165 -4 OFFCURVE",
"257 -4 CURVE SMOOTH"
);
}
);
width = 451;
},
{
associatedMasterId = "F84B2E81-E30C-4BCF-B175-C3D49BDC99D5";
background = {
components = (
{
name = grTTA;
}
);
};
layerId = "E08C27C2-0FED-42C6-A04E-E18A11B0507E";
name = "Light Feb 22 16, 12:47";
paths = (
{
closed = 1;
nodes = (
"388 -5 OFFCURVE",
"476 47 OFFCURVE",
"523 95 CURVE",
"494 112 LINE",
"447 74 OFFCURVE",
"384 35 OFFCURVE",
"334 20 CURVE",
"209 20 OFFCURVE",
"64 134 OFFCURVE",
"64 256 CURVE SMOOTH",
"64 318 OFFCURVE",
"93 344 OFFCURVE",
"167 344 CURVE SMOOTH",
"333 344 LINE",
"333 584 LINE",
"335 585 LINE",
"511 448 LINE",
"523 449 OFFCURVE",
"532 456 OFFCURVE",
"538 468 CURVE",
"349 599 LINE",
"350 601 LINE",
"633 601 LINE",
"633 626 LINE",
"-20 626 LINE",
"-20 601 LINE",
"303 601 LINE",
"303 369 LINE",
"151 369 LINE SMOOTH",
"85 369 OFFCURVE",
"39 332 OFFCURVE",
"39 266 CURVE SMOOTH",
"39 125 OFFCURVE",
"194 -5 OFFCURVE",
"326 -5 CURVE SMOOTH"
);
}
);
width = 600;
},
{
anchors = (
{
name = bottom;
position = "{232, 0}";
},
{
name = top;
position = "{252, 439}";
}
);
background = {
components = (
{
name = grTTA;
}
);
};
layerId = "F84B2E81-E30C-4BCF-B175-C3D49BDC99D5";
paths = (
{
closed = 1;
nodes = (
"298 -4 OFFCURVE",
"353 28 OFFCURVE",
"398 68 CURVE",
"375 81 LINE",
"339 51 OFFCURVE",
"305 31 OFFCURVE",
"259 15 CURVE",
"156 15 OFFCURVE",
"51 95 OFFCURVE",
"51 183 CURVE SMOOTH",
"51 231 OFFCURVE",
"74 265 OFFCURVE",
"151 265 CURVE SMOOTH",
"263 265 LINE",
"263 408 LINE",
"265 409 LINE",
"392 310 LINE",
"401 310 OFFCURVE",
"407 315 OFFCURVE",
"412 324 CURVE",
"275 419 LINE",
"276 421 LINE",
"466 421 LINE",
"466 439 LINE",
"-29 439 LINE",
"-29 421 LINE",
"241 421 LINE",
"241 283 LINE",
"144 283 LINE SMOOTH",
"64 283 OFFCURVE",
"28 240 OFFCURVE",
"28 187 CURVE SMOOTH",
"28 83 OFFCURVE",
"154 -4 OFFCURVE",
"260 -4 CURVE SMOOTH"
);
}
);
width = 437;
}
);
unicode = 0A23;
},
{
color = -1;
glyphname = grTA;
lastChange = "2016-02-26 16:05:11 +0000";
layers = (
{
anchors = (
{
name = bottom;
position = "{210, 0}";
},
{
name = top;
position = "{328, 439}";
}
);
background = {
paths = (
{
closed = 1;
nodes = (
"410 -5 OFFCURVE",
"516 81 OFFCURVE",
"516 191 CURVE SMOOTH",
"516 291 OFFCURVE",
"436 384 OFFCURVE",
"257 384 CURVE SMOOTH",
"145 384 OFFCURVE",
"136 369 OFFCURVE",
"136 359 CURVE SMOOTH",
"136 356 OFFCURVE",
"136 353 OFFCURVE",
"137 350 CURVE",
"163 343 OFFCURVE",
"228 338 OFFCURVE",
"277 338 CURVE SMOOTH",
"322 338 OFFCURVE",
"349 342 OFFCURVE",
"385 349 CURVE",
"456 314 OFFCURVE",
"486 265 OFFCURVE",
"486 196 CURVE SMOOTH",
"486 101 OFFCURVE",
"399 15 OFFCURVE",
"249 15 CURVE",
"196 34 OFFCURVE",
"120 68 OFFCURVE",
"59 104 CURVE",
"52 92 LINE",
"148 29 OFFCURVE",
"214 -5 OFFCURVE",
"279 -5 CURVE SMOOTH"
);
},
{
closed = 1;
nodes = (
"438 429 OFFCURVE",
"458 513 OFFCURVE",
"466 594 CURVE",
"432 594 LINE",
"429 512 OFFCURVE",
"413 440 OFFCURVE",
"374 366 CURVE",
"391 358 LINE"
);
},
{
closed = 1;
nodes = (
"666 580 LINE",
"666 605 LINE",
"-20 605 LINE",
"-20 580 LINE"
);
}
);
};
layerId = "F84B2E81-E30C-4BCF-B175-C3D49BDC99D5";
paths = (
{
closed = 1;
nodes = (
"299 -4 OFFCURVE",
"374 59 OFFCURVE",
"374 137 CURVE SMOOTH",
"374 215 OFFCURVE",
"310 278 OFFCURVE",
"181 278 CURVE SMOOTH",
"104 278 OFFCURVE",
"98 268 OFFCURVE",
"98 260 CURVE SMOOTH",
"98 258 OFFCURVE",
"98 256 OFFCURVE",
"99 254 CURVE",
"117 249 OFFCURVE",
"161 245 OFFCURVE",
"194 245 CURVE SMOOTH",
"225 245 OFFCURVE",
"240 248 OFFCURVE",
"276 254 CURVE",
"326 233 OFFCURVE",
"350 195 OFFCURVE",
"350 137 CURVE SMOOTH",
"350 79 OFFCURVE",
"296 11 OFFCURVE",
"181 11 CURVE",
"138 25 OFFCURVE",
"85 50 OFFCURVE",
"44 75 CURVE",
"38 67 LINE",
"102 22 OFFCURVE",
"154 -4 OFFCURVE",
"205 -4 CURVE SMOOTH"
);
},
{
closed = 1;
nodes = (
"319 311 OFFCURVE",
"335 372 OFFCURVE",
"341 431 CURVE",
"314 431 LINE",
"312 371 OFFCURVE",
"299 319 OFFCURVE",
"268 265 CURVE",
"281 260 LINE"
);
},
{
closed = 1;
nodes = (
"447 421 LINE",
"447 439 LINE",
"-29 439 LINE",
"-29 421 LINE"
);
}
);
width = 418;
},
{
anchors = (
{
name = bottom;
position = "{247, 0}";
},
{
name = top;
position = "{350, 447}";
}
);
background = {
paths = (
{
closed = 1;
nodes = (
"472 -6 OFFCURVE",
"617 61 OFFCURVE",
"617 191 CURVE SMOOTH",
"617 308 OFFCURVE",
"483 386 OFFCURVE",
"302 386 CURVE SMOOTH",
"125 386 OFFCURVE",
"106 342 OFFCURVE",
"106 294 CURVE SMOOTH",
"106 280 OFFCURVE",
"108 269 OFFCURVE",
"112 257 CURVE",
"152 238 OFFCURVE",
"209 229 OFFCURVE",
"266 229 CURVE SMOOTH",
"331 229 OFFCURVE",
"397 243 OFFCURVE",
"443 265 CURVE",
"457 250 OFFCURVE",
"467 228 OFFCURVE",
"467 205 CURVE SMOOTH",
"467 150 OFFCURVE",
"423 112 OFFCURVE",
"260 112 CURVE",
"194 131 OFFCURVE",
"140 155 OFFCURVE",
"78 188 CURVE",
"22 101 LINE",
"86 34 OFFCURVE",
"205 -6 OFFCURVE",
"320 -6 CURVE SMOOTH"
);
},
{
closed = 1;
nodes = (
"532 360 OFFCURVE",
"558 455 OFFCURVE",
"558 524 CURVE",
"408 524 LINE",
"408 474 OFFCURVE",
"397 409 OFFCURVE",
"383 357 CURVE",
"494 324 LINE"
);
},
{
closed = 1;
nodes = (
"696 501 LINE",
"696 616 LINE",
"-40 616 LINE",
"-40 501 LINE"
);
}
);
};
layerId = "3B941797-445E-47EC-B390-6B41EAFC9AF2";
paths = (
{
closed = 1;
nodes = (
"342 -4 OFFCURVE",
"447 44 OFFCURVE",
"447 138 CURVE SMOOTH",
"447 223 OFFCURVE",
"350 280 OFFCURVE",
"219 280 CURVE SMOOTH",
"91 280 OFFCURVE",
"77 248 OFFCURVE",
"77 213 CURVE SMOOTH",
"77 203 OFFCURVE",
"78 195 OFFCURVE",
"81 186 CURVE",
"110 173 OFFCURVE",
"152 166 OFFCURVE",
"193 166 CURVE SMOOTH",
"240 166 OFFCURVE",
"288 176 OFFCURVE",
"321 192 CURVE",
"331 181 OFFCURVE",
"339 165 OFFCURVE",
"339 149 CURVE SMOOTH",
"339 109 OFFCURVE",
"307 81 OFFCURVE",
"189 81 CURVE",
"141 95 OFFCURVE",
"102 112 OFFCURVE",
"57 136 CURVE",
"16 73 LINE",
"62 25 OFFCURVE",
"149 -4 OFFCURVE",
"232 -4 CURVE SMOOTH"
);
},
{
closed = 1;
nodes = (
"386 261 OFFCURVE",
"405 330 OFFCURVE",
"405 380 CURVE",
"296 380 LINE",
"296 344 OFFCURVE",
"288 297 OFFCURVE",
"278 259 CURVE",
"358 235 LINE"
);
},
{
closed = 1;
nodes = (
"505 363 LINE",
"505 447 LINE",
"-29 447 LINE",
"-29 363 LINE"
);
}
);
width = 476;
},
{
associatedMasterId = "3B941797-445E-47EC-B390-6B41EAFC9AF2";
background = {
paths = (
{
closed = 1;
nodes = (
"459 -6 OFFCURVE",
"604 61 OFFCURVE",
"604 191 CURVE SMOOTH",
"604 308 OFFCURVE",
"470 386 OFFCURVE",
"289 386 CURVE SMOOTH",
"112 386 OFFCURVE",
"93 342 OFFCURVE",
"93 294 CURVE SMOOTH",
"93 280 OFFCURVE",
"95 269 OFFCURVE",
"99 257 CURVE",
"139 238 OFFCURVE",
"196 229 OFFCURVE",
"253 229 CURVE SMOOTH",
"318 229 OFFCURVE",
"384 243 OFFCURVE",
"430 265 CURVE",
"444 250 OFFCURVE",
"454 228 OFFCURVE",
"454 205 CURVE SMOOTH",
"454 150 OFFCURVE",
"410 112 OFFCURVE",
"247 112 CURVE",
"181 131 OFFCURVE",
"127 155 OFFCURVE",
"65 188 CURVE",
"9 101 LINE",
"73 34 OFFCURVE",
"192 -6 OFFCURVE",
"307 -6 CURVE SMOOTH"
);
},
{
closed = 1;
nodes = (
"519 360 OFFCURVE",
"545 455 OFFCURVE",
"545 524 CURVE",
"395 524 LINE",
"395 474 OFFCURVE",
"384 409 OFFCURVE",
"370 357 CURVE",
"481 324 LINE"
);
},
{
closed = 1;
nodes = (
"683 501 LINE",
"683 616 LINE",
"-53 616 LINE",
"-53 501 LINE"
);
}
);
};
layerId = "827D83D6-5838-4194-85F4-ED38263978DD";
name = "Draft 2";
paths = (
{
closed = 1;
nodes = (
"459 -6 OFFCURVE",
"604 61 OFFCURVE",
"604 191 CURVE SMOOTH",
"604 308 OFFCURVE",
"470 386 OFFCURVE",
"314 386 CURVE SMOOTH",
"147 386 OFFCURVE",
"118 342 OFFCURVE",
"118 294 CURVE SMOOTH",
"118 280 OFFCURVE",
"120 269 OFFCURVE",
"124 257 CURVE",
"165 238 OFFCURVE",
"213 230 OFFCURVE",
"261 230 CURVE SMOOTH",
"319 230 OFFCURVE",
"378 242 OFFCURVE",
"426 267 CURVE",
"444 250 OFFCURVE",
"454 228 OFFCURVE",
"454 205 CURVE SMOOTH",
"454 150 OFFCURVE",
"405 112 OFFCURVE",
"272 112 CURVE",
"206 131 OFFCURVE",
"152 155 OFFCURVE",
"90 188 CURVE",
"33 101 LINE",
"130 23 OFFCURVE",
"204 -6 OFFCURVE",
"320 -6 CURVE SMOOTH"
);
},
{
closed = 1;
nodes = (
"519 360 OFFCURVE",
"545 455 OFFCURVE",
"545 524 CURVE",
"395 524 LINE",
"395 474 OFFCURVE",
"384 409 OFFCURVE",
"370 357 CURVE",
"481 324 LINE"
);
},
{
closed = 1;
nodes = (
"683 501 LINE",
"683 616 LINE",
"-40 616 LINE",
"-40 501 LINE"
);
}
);
width = 643;
}
);
unicode = 0A24;
},
{
color = -1;
glyphname = grTHA;
lastChange = "2016-02-26 16:05:11 +0000";
layers = (
{
components = (
{
name = grDHA;
}
);
layerId = "F84B2E81-E30C-4BCF-B175-C3D49BDC99D5";
paths = (
{
closed = 1;
nodes = (
"314 270 LINE",
"314 288 LINE",
"102 288 LINE",
"102 270 LINE"
);
}
);
width = 389;
},
{
background = {
components = (
{
name = grPA;
}
);
};
components = (
{
name = grDHA;
}
);
layerId = "3B941797-445E-47EC-B390-6B41EAFC9AF2";
paths = (
{
closed = 1;
nodes = (
"324 221 LINE",
"324 305 LINE",
"149 305 LINE",
"149 221 LINE"
);
}
);
width = 461;
}
);
unicode = 0A25;
},
{
color = -1;
glyphname = grDA;
lastChange = "2016-02-26 16:05:11 +0000";
layers = (
{
anchors = (
{
name = bottom;
position = "{232, 0}";
},
{
name = top;
position = "{329, 439}";
}
);
background = {
paths = (
{
closed = 1;
nodes = (
"407 -5 OFFCURVE",
"478 32 OFFCURVE",
"546 95 CURVE",
"517 112 LINE",
"458 62 OFFCURVE",
"409 29 OFFCURVE",
"342 13 CURVE",
"254 41 OFFCURVE",
"169 121 OFFCURVE",
"139 269 CURVE SMOOTH",
"124 344 LINE",
"469 344 LINE",
"469 588 LINE",
"439 588 LINE",
"439 369 LINE",
"119 369 LINE",
"36 442 LINE",
"27 439 OFFCURVE",
"23 435 OFFCURVE",
"20 428 CURVE",
"20 407 OFFCURVE",
"47 371 OFFCURVE",
"98 342 CURVE",
"136 69 OFFCURVE",
"290 -5 OFFCURVE",
"355 -5 CURVE SMOOTH"
);
},
{
closed = 1;
nodes = (
"569 580 LINE",
"569 605 LINE",
"-20 605 LINE",
"-20 580 LINE"
);
}
);
};
layerId = "F84B2E81-E30C-4BCF-B175-C3D49BDC99D5";
paths = (
{
closed = 1;
nodes = (
"295 -4 OFFCURVE",
"349 23 OFFCURVE",
"396 69 CURVE",
"375 81 LINE",
"336 45 OFFCURVE",
"297 21 OFFCURVE",
"248 9 CURVE",
"184 30 OFFCURVE",
"123 88 OFFCURVE",
"101 195 CURVE SMOOTH",
"90 249 LINE",
"340 249 LINE",
"340 426 LINE",
"318 426 LINE",
"318 268 LINE",
"86 268 LINE",
"26 320 LINE",
"20 318 OFFCURVE",
"17 315 OFFCURVE",
"15 310 CURVE",
"15 295 OFFCURVE",
"34 269 OFFCURVE",
"71 248 CURVE",
"99 50 OFFCURVE",
"210 -4 OFFCURVE",
"257 -4 CURVE SMOOTH"
);
},
{
closed = 1;
nodes = (
"449 421 LINE",
"449 439 LINE",
"-29 439 LINE",
"-29 421 LINE"
);
}
);
width = 420;
},
{
anchors = (
{
name = bottom;
position = "{232, 0}";
},
{
name = top;
position = "{310, 447}";
}
);
background = {
components = (
{
name = grTTA;
}
);
};
color = 4;
layerId = "3B941797-445E-47EC-B390-6B41EAFC9AF2";
paths = (
{
closed = 1;
nodes = (
"317 -4 OFFCURVE",
"358 21 OFFCURVE",
"396 77 CURVE",
"346 118 LINE",
"299 93 OFFCURVE",
"271 80 OFFCURVE",
"252 76 CURVE",
"211 82 OFFCURVE",
"187 103 OFFCURVE",
"181 146 CURVE SMOOTH",
"174 189 LINE",
"364 189 LINE",
"364 375 LINE",
"255 375 LINE",
"255 272 LINE",
"151 272 LINE",
"77 319 LINE",
"46 319 OFFCURVE",
"20 295 OFFCURVE",
"9 259 CURVE",
"16 223 OFFCURVE",
"39 194 OFFCURVE",
"76 183 CURVE",
"84 65 OFFCURVE",
"159 -4 OFFCURVE",
"260 -4 CURVE SMOOTH"
);
},
{
closed = 1;
nodes = (
"442 363 LINE",
"442 447 LINE",
"-29 447 LINE",
"-29 363 LINE"
);
}
);
width = 413;
}
);
unicode = 0A26;
},
{
color = -1;
glyphname = grDHA;
lastChange = "2016-02-26 16:05:11 +0000";
layers = (
{
background = {
components = (
{
name = grPA;
}
);
};
guideLines = (
{
angle = 90;
position = "{416, 52}";
}
);
layerId = "F84B2E81-E30C-4BCF-B175-C3D49BDC99D5";
paths = (
{
closed = 1;
nodes = (
"323 0 LINE",
"323 426 LINE",
"302 426 LINE",
"302 162 LINE",
"247 130 OFFCURVE",
"209 122 OFFCURVE",
"167 122 CURVE SMOOTH",
"129 122 OFFCURVE",
"78 132 OFFCURVE",
"59 168 CURVE",
"94 217 OFFCURVE",
"115 264 OFFCURVE",
"115 315 CURVE SMOOTH",
"115 360 OFFCURVE",
"105 391 OFFCURVE",
"83 429 CURVE",
"69 423 LINE",
"89 389 OFFCURVE",
"94 355 OFFCURVE",
"94 318 CURVE SMOOTH",
"94 276 OFFCURVE",
"80 239 OFFCURVE",
"45 187 CURVE SMOOTH",
"39 178 OFFCURVE",
"38 175 OFFCURVE",
"38 170 CURVE SMOOTH",
"38 145 OFFCURVE",
"99 101 OFFCURVE",
"167 101 CURVE SMOOTH",
"212 101 OFFCURVE",
"253 110 OFFCURVE",
"302 137 CURVE",
"304 136 LINE",
"302 75 LINE",
"302 0 LINE"
);
},
{
closed = 1;
nodes = (
"410 421 LINE",
"410 439 LINE",
"-29 439 LINE",
"-29 421 LINE"
);
}
);
width = 381;
},
{
background = {
components = (
{
name = grPA;
}
);
};
layerId = "3B941797-445E-47EC-B390-6B41EAFC9AF2";
paths = (
{
closed = 1;
nodes = (
"406 0 LINE",
"406 380 LINE",
"297 380 LINE",
"297 196 LINE",
"242 161 OFFCURVE",
"197 148 OFFCURVE",
"161 148 CURVE SMOOTH",
"146 148 OFFCURVE",
"135 152 OFFCURVE",
"128 161 CURVE",
"170 212 OFFCURVE",
"193 249 OFFCURVE",
"193 301 CURVE SMOOTH",
"193 336 OFFCURVE",
"173 372 OFFCURVE",
"142 399 CURVE",
"81 379 LINE",
"92 355 OFFCURVE",
"94 345 OFFCURVE",
"94 335 CURVE SMOOTH",
"94 305 OFFCURVE",
"79 286 OFFCURVE",
"41 225 CURVE SMOOTH",
"20 191 OFFCURVE",
"19 186 OFFCURVE",
"19 175 CURVE SMOOTH",
"19 130 OFFCURVE",
"88 71 OFFCURVE",
"179 71 CURVE SMOOTH",
"228 71 OFFCURVE",
"260 80 OFFCURVE",
"299 95 CURVE",
"302 93 LINE",
"297 27 LINE",
"297 0 LINE"
);
},
{
closed = 1;
nodes = (
"479 363 LINE",
"479 447 LINE",
"-29 447 LINE",
"-29 363 LINE"
);
}
);
width = 450;
}
);
unicode = 0A27;
},
{
color = -1;
glyphname = grNA;
lastChange = "2016-02-26 16:05:11 +0000";
layers = (
{
anchors = (
{
name = bottom;
position = "{229, 0}";
},
{
name = top;
position = "{332, 439}";
}
);
background = {
paths = (
{
closed = 0;
nodes = (
"317 372 LINE SMOOTH",
"471 372 OFFCURVE",
"544 290 OFFCURVE",
"544 195 CURVE SMOOTH",
"544 135 OFFCURVE",
"524 73 OFFCURVE",
"422 6 CURVE",
"424 -2 OFFCURVE",
"428 -6 OFFCURVE",
"434 -8 CURVE",
"537 60 OFFCURVE",
"574 121 OFFCURVE",
"574 195 CURVE SMOOTH",
"574 314 OFFCURVE",
"482 397 OFFCURVE",
"317 397 CURVE SMOOTH"
);
}
);
};
guideLines = (
{
position = "{259, 195}";
}
);
layerId = "F84B2E81-E30C-4BCF-B175-C3D49BDC99D5";
paths = (
{
closed = 1;
nodes = (
"149 -4 OFFCURVE",
"152 -1 OFFCURVE",
"154 4 CURVE",
"80 53 OFFCURVE",
"65 98 OFFCURVE",
"65 141 CURVE SMOOTH",
"65 210 OFFCURVE",
"118 270 OFFCURVE",
"230 270 CURVE SMOOTH",
"287 270 OFFCURVE",
"327 257 OFFCURVE",
"374 225 CURVE",
"387 198 OFFCURVE",
"394 169 OFFCURVE",
"394 141 CURVE SMOOTH",
"394 83 OFFCURVE",
"362 36 OFFCURVE",
"301 12 CURVE",
"302 5 OFFCURVE",
"306 -1 OFFCURVE",
"312 -6 CURVE",
"379 15 OFFCURVE",
"416 74 OFFCURVE",
"416 141 CURVE SMOOTH",
"416 228 OFFCURVE",
"349 288 OFFCURVE",
"230 288 CURVE SMOOTH",
"110 288 OFFCURVE",
"44 223 OFFCURVE",
"44 141 CURVE SMOOTH",
"44 88 OFFCURVE",
"70 44 OFFCURVE",
"145 -6 CURVE"
);
},
{
closed = 1;
nodes = (
"240 278 LINE",
"240 430 LINE",
"218 430 LINE",
"218 278 LINE"
);
},
{
closed = 1;
nodes = (
"489 421 LINE",
"489 439 LINE",
"-29 439 LINE",
"-29 421 LINE"
);
}
);
width = 460;
},
{
anchors = (
{
name = bottom;
position = "{239, 0}";
},
{
name = top;
position = "{336, 447}";
}
);
background = {
components = (
{
name = grTTHA;
}
);
};
layerId = "3B941797-445E-47EC-B390-6B41EAFC9AF2";
paths = (
{
closed = 1;
nodes = (
"149 -3 OFFCURVE",
"169 9 OFFCURVE",
"189 30 CURVE",
"136 80 OFFCURVE",
"123 102 OFFCURVE",
"123 143 CURVE SMOOTH",
"123 207 OFFCURVE",
"167 226 OFFCURVE",
"239 226 CURVE SMOOTH",
"270 226 OFFCURVE",
"302 221 OFFCURVE",
"325 212 CURVE",
"334 193 OFFCURVE",
"337 174 OFFCURVE",
"337 157 CURVE SMOOTH",
"337 111 OFFCURVE",
"314 75 OFFCURVE",
"270 37 CURVE",
"286 15 OFFCURVE",
"318 0 OFFCURVE",
"352 -8 CURVE",
"410 19 OFFCURVE",
"449 73 OFFCURVE",
"449 143 CURVE SMOOTH",
"449 248 OFFCURVE",
"358 304 OFFCURVE",
"239 304 CURVE SMOOTH",
"120 304 OFFCURVE",
"29 248 OFFCURVE",
"29 143 CURVE SMOOTH",
"29 86 OFFCURVE",
"51 40 OFFCURVE",
"128 -8 CURVE"
);
},
{
closed = 1;
nodes = (
"302 278 LINE",
"302 387 LINE",
"190 387 LINE",
"190 278 LINE"
);
},
{
closed = 1;
nodes = (
"508 363 LINE",
"508 447 LINE",
"-29 447 LINE",
"-29 363 LINE"
);
}
);
width = 479;
}
);
unicode = 0A28;
},
{
color = -1;
glyphname = grPA;
lastChange = "2016-02-26 16:05:11 +0000";
layers = (
{
background = {
components = (
{
name = grDHA;
}
);
};
guideLines = (
{
angle = 90;
position = "{60, 397}";
}
);
layerId = "F84B2E81-E30C-4BCF-B175-C3D49BDC99D5";
paths = (
{
closed = 1;
nodes = (
"323 0 LINE",
"323 421 LINE",
"410 421 LINE",
"410 439 LINE",
"302 439 LINE",
"302 162 LINE",
"247 130 OFFCURVE",
"209 122 OFFCURVE",
"167 122 CURVE SMOOTH",
"129 122 OFFCURVE",
"83 131 OFFCURVE",
"58 167 CURVE",
"96 225 OFFCURVE",
"115 265 OFFCURVE",
"115 323 CURVE SMOOTH",
"115 381 OFFCURVE",
"88 439 OFFCURVE",
"20 439 CURVE SMOOTH",
"-29 439 LINE",
"-29 421 LINE SMOOTH",
"20 421 LINE SMOOTH",
"42 421 OFFCURVE",
"59 418 OFFCURVE",
"75 409 CURVE",
"88 383 OFFCURVE",
"94 355 OFFCURVE",
"94 323 CURVE SMOOTH",
"94 277 OFFCURVE",
"76 234 OFFCURVE",
"45 187 CURVE SMOOTH",
"39 178 OFFCURVE",
"38 175 OFFCURVE",
"38 170 CURVE SMOOTH",
"38 142 OFFCURVE",
"99 101 OFFCURVE",
"167 101 CURVE SMOOTH",
"212 101 OFFCURVE",
"253 110 OFFCURVE",
"302 137 CURVE",
"304 136 LINE",
"302 75 LINE",
"302 0 LINE"
);
}
);
width = 381;
},
{
guideLines = (
{
angle = 90;
position = "{26, 189}";
}
);
layerId = "3B941797-445E-47EC-B390-6B41EAFC9AF2";
paths = (
{
closed = 1;
nodes = (
"406 0 LINE",
"406 363 LINE",
"479 363 LINE",
"479 447 LINE",
"297 447 LINE",
"297 196 LINE",
"242 161 OFFCURVE",
"197 148 OFFCURVE",
"161 148 CURVE SMOOTH",
"146 148 OFFCURVE",
"135 152 OFFCURVE",
"128 161 CURVE",
"170 212 OFFCURVE",
"193 249 OFFCURVE",
"193 301 CURVE SMOOTH",
"193 370 OFFCURVE",
"112 447 OFFCURVE",
"21 447 CURVE SMOOTH",
"-29 447 LINE",
"-29 363 LINE",
"49 363 LINE",
"62 363 OFFCURVE",
"75 363 OFFCURVE",
"88 363 CURVE",
"92 355 OFFCURVE",
"94 345 OFFCURVE",
"94 335 CURVE SMOOTH",
"94 305 OFFCURVE",
"79 286 OFFCURVE",
"41 225 CURVE SMOOTH",
"20 191 OFFCURVE",
"19 186 OFFCURVE",
"19 175 CURVE SMOOTH",
"19 130 OFFCURVE",
"88 71 OFFCURVE",
"179 71 CURVE SMOOTH",
"228 71 OFFCURVE",
"260 80 OFFCURVE",
"299 95 CURVE",
"302 93 LINE",
"297 27 LINE",
"297 0 LINE"
);
}
);
width = 450;
}
);
unicode = 0A2A;
},
{
color = -1;
glyphname = grPHA;
lastChange = "2016-02-26 16:05:11 +0000";
layers = (
{
anchors = (
{
name = bottom;
position = "{222, 0}";
},
{
name = top;
position = "{312, 439}";
}
);
guideLines = (
{
angle = 90;
position = "{18, 399}";
}
);
layerId = "F84B2E81-E30C-4BCF-B175-C3D49BDC99D5";
paths = (
{
closed = 1;
nodes = (
"336 -4 OFFCURVE",
"373 40 OFFCURVE",
"373 89 CURVE SMOOTH",
"373 143 OFFCURVE",
"336 186 OFFCURVE",
"262 186 CURVE SMOOTH",
"201 186 OFFCURVE",
"146 155 OFFCURVE",
"88 109 CURVE",
"97 96 LINE",
"157 139 OFFCURVE",
"207 168 OFFCURVE",
"262 168 CURVE SMOOTH",
"289 168 OFFCURVE",
"308 166 OFFCURVE",
"334 155 CURVE",
"345 136 OFFCURVE",
"352 113 OFFCURVE",
"352 89 CURVE SMOOTH",
"352 44 OFFCURVE",
"320 15 OFFCURVE",
"262 15 CURVE SMOOTH",
"141 15 OFFCURVE",
"57 119 OFFCURVE",
"57 206 CURVE SMOOTH",
"57 257 OFFCURVE",
"88 282 OFFCURVE",
"152 282 CURVE SMOOTH",
"323 282 LINE",
"323 426 LINE",
"302 426 LINE",
"302 300 LINE",
"144 300 LINE SMOOTH",
"75 300 OFFCURVE",
"36 268 OFFCURVE",
"36 207 CURVE SMOOTH",
"36 109 OFFCURVE",
"136 -4 OFFCURVE",
"262 -4 CURVE SMOOTH"
);
},
{
closed = 1;
nodes = (
"444 421 LINE",
"444 439 LINE",
"-29 439 LINE",
"-29 421 LINE"
);
}
);
width = 415;
},
{
anchors = (
{
name = bottom;
position = "{232, 0}";
},
{
name = top;
position = "{291, 447}";
}
);
background = {
components = (
{
name = grDDHA;
}
);
};
guideLines = (
{
angle = 90;
position = "{28, 399}";
}
);
layerId = "3B941797-445E-47EC-B390-6B41EAFC9AF2";
paths = (
{
closed = 1;
nodes = (
"372 -4 OFFCURVE",
"417 40 OFFCURVE",
"417 92 CURVE SMOOTH",
"417 152 OFFCURVE",
"360 202 OFFCURVE",
"270 202 CURVE SMOOTH",
"217 202 OFFCURVE",
"176 186 OFFCURVE",
"127 144 CURVE",
"162 81 LINE",
"196 112 OFFCURVE",
"228 125 OFFCURVE",
"264 125 CURVE SMOOTH",
"278 125 OFFCURVE",
"294 123 OFFCURVE",
"304 120 CURVE",
"306 115 OFFCURVE",
"308 108 OFFCURVE",
"308 99 CURVE SMOOTH",
"308 80 OFFCURVE",
"293 67 OFFCURVE",
"263 67 CURVE SMOOTH",
"176 67 OFFCURVE",
"133 109 OFFCURVE",
"133 178 CURVE SMOOTH",
"133 224 OFFCURVE",
"162 246 OFFCURVE",
"224 246 CURVE SMOOTH",
"346 246 LINE",
"346 396 LINE",
"237 396 LINE",
"237 318 LINE",
"174 318 LINE SMOOTH",
"69 318 OFFCURVE",
"20 265 OFFCURVE",
"20 199 CURVE SMOOTH",
"20 99 OFFCURVE",
"133 -4 OFFCURVE",
"278 -4 CURVE SMOOTH"
);
},
{
closed = 1;
nodes = (
"464 363 LINE",
"464 447 LINE",
"-29 447 LINE",
"-29 363 LINE"
);
}
);
width = 435;
}
);
unicode = 0A2B;
},
{
color = -1;
glyphname = grBA;
lastChange = "2016-02-26 16:05:11 +0000";
layers = (
{
background = {
paths = (
{
closed = 1;
nodes = (
"447 0 LINE",
"447 580 LINE",
"537 580 LINE",
"537 605 LINE",
"-40 605 LINE",
"-40 580 LINE",
"53 580 LINE",
"63 500 OFFCURVE",
"104 431 OFFCURVE",
"185 402 CURVE",
"185 399 LINE",
"112 399 OFFCURVE",
"65 357 OFFCURVE",
"65 297 CURVE SMOOTH",
"65 219 OFFCURVE",
"147 140 OFFCURVE",
"252 140 CURVE SMOOTH",
"323 140 OFFCURVE",
"373 162 OFFCURVE",
"435 204 CURVE",
"427 231 LINE",
"369 190 OFFCURVE",
"312 164 OFFCURVE",
"256 164 CURVE SMOOTH",
"210 164 OFFCURVE",
"176 172 OFFCURVE",
"143 188 CURVE",
"114 214 OFFCURVE",
"95 249 OFFCURVE",
"95 288 CURVE SMOOTH",
"95 350 OFFCURVE",
"130 378 OFFCURVE",
"193 378 CURVE SMOOTH",
"430 378 LINE",
"430 402 LINE",
"265 402 LINE SMOOTH",
"181 402 OFFCURVE",
"97 461 OFFCURVE",
"87 580 CURVE",
"417 580 LINE",
"417 0 LINE"
);
}
);
};
layerId = "F84B2E81-E30C-4BCF-B175-C3D49BDC99D5";
paths = (
{
closed = 1;
nodes = (
"324 0 LINE",
"324 421 LINE",
"411 421 LINE",
"411 439 LINE",
"-29 439 LINE",
"-29 421 LINE",
"38 421 LINE",
"46 365 OFFCURVE",
"75 313 OFFCURVE",
"134 291 CURVE",
"134 289 LINE",
"81 289 OFFCURVE",
"47 258 OFFCURVE",
"47 213 CURVE SMOOTH",
"47 154 OFFCURVE",
"107 102 OFFCURVE",
"183 102 CURVE SMOOTH",
"234 102 OFFCURVE",
"270 118 OFFCURVE",
"315 149 CURVE",
"310 170 LINE",
"268 139 OFFCURVE",
"226 120 OFFCURVE",
"186 120 CURVE SMOOTH",
"152 120 OFFCURVE",
"128 125 OFFCURVE",
"102 136 CURVE",
"83 155 OFFCURVE",
"69 179 OFFCURVE",
"69 207 CURVE SMOOTH",
"69 254 OFFCURVE",
"94 273 OFFCURVE",
"147 273 CURVE SMOOTH",
"312 273 LINE",
"312 291 LINE",
"192 291 LINE SMOOTH",
"131 291 OFFCURVE",
"70 336 OFFCURVE",
"63 421 CURVE",
"302 421 LINE",
"302 0 LINE"
);
}
);
width = 382;
},
{
background = {
components = (
{
name = grDHA;
}
);
};
guideLines = (
{
position = "{176, 100}";
}
);
layerId = "3B941797-445E-47EC-B390-6B41EAFC9AF2";
paths = (
{
closed = 1;
nodes = (
"411 0 LINE",
"411 363 LINE",
"484 363 LINE",
"484 447 LINE",
"-29 447 LINE",
"-29 363 LINE",
"33 363 LINE",
"38 327 OFFCURVE",
"59 291 OFFCURVE",
"91 274 CURVE",
"91 270 LINE",
"54 254 OFFCURVE",
"36 220 OFFCURVE",
"36 183 CURVE SMOOTH",
"36 122 OFFCURVE",
"87 62 OFFCURVE",
"200 62 CURVE SMOOTH",
"252 62 OFFCURVE",
"295 70 OFFCURVE",
"332 83 CURVE",
"332 177 LINE",
"294 156 OFFCURVE",
"238 142 OFFCURVE",
"194 142 CURVE SMOOTH",
"178 142 OFFCURVE",
"165 144 OFFCURVE",
"154 146 CURVE",
"148 154 OFFCURVE",
"144 163 OFFCURVE",
"144 173 CURVE SMOOTH",
"144 196 OFFCURVE",
"159 217 OFFCURVE",
"196 217 CURVE SMOOTH",
"352 217 LINE",
"352 297 LINE",
"202 297 LINE",
"167 302 OFFCURVE",
"145 320 OFFCURVE",
"141 363 CURVE",
"302 363 LINE",
"302 0 LINE"
);
}
);
width = 455;
}
);
unicode = 0A2C;
},
{
color = -1;
glyphname = grBHA;
lastChange = "2016-02-26 16:05:11 +0000";
layers = (
{
anchors = (
{
name = bottom;
position = "{218, 0}";
},
{
name = top;
position = "{341, 439}";
}
);
background = {
paths = (
{
closed = 1;
nodes = (
"441 0 OFFCURVE",
"552 91 OFFCURVE",
"552 216 CURVE SMOOTH",
"552 339 OFFCURVE",
"437 456 OFFCURVE",
"263 456 CURVE SMOOTH",
"141 456 OFFCURVE",
"87 413 OFFCURVE",
"87 346 CURVE SMOOTH",
"87 281 OFFCURVE",
"149 247 OFFCURVE",
"243 247 CURVE SMOOTH",
"397 247 OFFCURVE",
"483 401 OFFCURVE",
"487 604 CURVE",
"454 604 LINE",
"450 380 OFFCURVE",
"359 272 OFFCURVE",
"243 272 CURVE SMOOTH",
"206 272 OFFCURVE",
"171 275 OFFCURVE",
"145 281 CURVE",
"128 298 OFFCURVE",
"120 323 OFFCURVE",
"120 345 CURVE SMOOTH",
"120 403 OFFCURVE",
"168 431 OFFCURVE",
"263 431 CURVE SMOOTH",
"426 431 OFFCURVE",
"519 325 OFFCURVE",
"519 216 CURVE SMOOTH",
"519 98 OFFCURVE",
"409 19 OFFCURVE",
"266 19 CURVE",
"196 35 OFFCURVE",
"119 70 OFFCURVE",
"55 119 CURVE",
"47 107 LINE",
"111 42 OFFCURVE",
"200 0 OFFCURVE",
"293 0 CURVE SMOOTH"
);
},
{
closed = 1;
nodes = (
"659 601 LINE",
"659 626 LINE",
"-27 626 LINE",
"-27 601 LINE"
);
}
);
};
guideLines = (
{
position = "{253, 349}";
},
{
position = "{280, 220}";
}
);
layerId = "F84B2E81-E30C-4BCF-B175-C3D49BDC99D5";
paths = (
{
closed = 1;
nodes = (
"317 -4 OFFCURVE",
"400 62 OFFCURVE",
"400 152 CURVE SMOOTH",
"400 243 OFFCURVE",
"327 323 OFFCURVE",
"193 323 CURVE SMOOTH",
"102 323 OFFCURVE",
"63 283 OFFCURVE",
"63 237 CURVE SMOOTH",
"63 194 OFFCURVE",
"95 160 OFFCURVE",
"169 160 CURVE SMOOTH",
"288 160 OFFCURVE",
"350 276 OFFCURVE",
"353 423 CURVE",
"329 423 LINE",
"326 260 OFFCURVE",
"260 178 OFFCURVE",
"169 178 CURVE SMOOTH",
"142 178 OFFCURVE",
"124 181 OFFCURVE",
"102 186 CURVE",
"92 199 OFFCURVE",
"87 216 OFFCURVE",
"87 234 CURVE SMOOTH",
"87 276 OFFCURVE",
"116 305 OFFCURVE",
"193 305 CURVE SMOOTH",
"315 305 OFFCURVE",
"376 236 OFFCURVE",
"376 149 CURVE SMOOTH",
"376 65 OFFCURVE",
"295 14 OFFCURVE",
"193 12 CURVE",
"141 25 OFFCURVE",
"95 44 OFFCURVE",
"40 83 CURVE",
"34 74 LINE",
"91 25 OFFCURVE",
"148 -4 OFFCURVE",
"212 -4 CURVE SMOOTH"
);
},
{
closed = 1;
nodes = (
"471 421 LINE",
"471 439 LINE",
"-29 439 LINE",
"-29 421 LINE"
);
}
);
width = 442;
},
{
anchors = (
{
name = bottom;
position = "{232, 0}";
},
{
name = top;
position = "{321, 447}";
}
);
background = {
paths = (
{
closed = 1;
nodes = (
"478 -6 OFFCURVE",
"587 83 OFFCURVE",
"587 205 CURVE SMOOTH",
"587 354 OFFCURVE",
"450 453 OFFCURVE",
"280 453 CURVE SMOOTH",
"139 453 OFFCURVE",
"65 386 OFFCURVE",
"65 301 CURVE SMOOTH",
"65 216 OFFCURVE",
"130 162 OFFCURVE",
"261 161 CURVE SMOOTH",
"428 160 OFFCURVE",
"518 328 OFFCURVE",
"518 518 CURVE",
"368 518 LINE",
"368 311 OFFCURVE",
"322 270 OFFCURVE",
"261 270 CURVE SMOOTH",
"247 270 OFFCURVE",
"232 271 OFFCURVE",
"220 275 CURVE",
"217 282 OFFCURVE",
"215 292 OFFCURVE",
"215 302 CURVE SMOOTH",
"215 322 OFFCURVE",
"230 345 OFFCURVE",
"290 345 CURVE SMOOTH",
"373 345 OFFCURVE",
"437 296 OFFCURVE",
"437 215 CURVE SMOOTH",
"437 146 OFFCURVE",
"373 102 OFFCURVE",
"250 102 CURVE",
"190 112 OFFCURVE",
"134 129 OFFCURVE",
"66 151 CURVE",
"23 72 LINE",
"107 17 OFFCURVE",
"198 -6 OFFCURVE",
"290 -6 CURVE SMOOTH"
);
},
{
closed = 1;
nodes = (
"666 501 LINE",
"666 616 LINE",
"-40 616 LINE",
"-40 501 LINE"
);
}
);
};
guideLines = (
{
angle = 180;
position = "{271, 307}";
}
);
layerId = "3B941797-445E-47EC-B390-6B41EAFC9AF2";
paths = (
{
closed = 1;
nodes = (
"347 -4 OFFCURVE",
"426 60 OFFCURVE",
"426 149 CURVE SMOOTH",
"426 257 OFFCURVE",
"326 325 OFFCURVE",
"203 325 CURVE SMOOTH",
"101 325 OFFCURVE",
"47 284 OFFCURVE",
"47 223 CURVE SMOOTH",
"47 161 OFFCURVE",
"101 121 OFFCURVE",
"189 120 CURVE SMOOTH",
"310 120 OFFCURVE",
"376 238 OFFCURVE",
"376 376 CURVE",
"267 376 LINE",
"267 225 OFFCURVE",
"233 196 OFFCURVE",
"189 196 CURVE SMOOTH",
"179 196 OFFCURVE",
"168 196 OFFCURVE",
"160 199 CURVE",
"157 204 OFFCURVE",
"156 212 OFFCURVE",
"156 219 CURVE SMOOTH",
"156 233 OFFCURVE",
"167 250 OFFCURVE",
"210 250 CURVE SMOOTH",
"270 250 OFFCURVE",
"317 215 OFFCURVE",
"317 156 CURVE SMOOTH",
"317 106 OFFCURVE",
"270 74 OFFCURVE",
"181 74 CURVE",
"138 81 OFFCURVE",
"97 94 OFFCURVE",
"48 109 CURVE",
"17 52 LINE",
"78 12 OFFCURVE",
"144 -4 OFFCURVE",
"210 -4 CURVE SMOOTH"
);
},
{
closed = 1;
nodes = (
"483 363 LINE",
"483 447 LINE",
"-29 447 LINE",
"-29 363 LINE"
);
}
);
width = 454;
}
);
unicode = 0A2D;
},
{
color = -1;
glyphname = grMA;
lastChange = "2016-02-26 16:05:11 +0000";
layers = (
{
background = {
components = (
{
name = grSA;
}
);
};
guideLines = (
{
position = "{400, 104}";
}
);
layerId = "F84B2E81-E30C-4BCF-B175-C3D49BDC99D5";
paths = (
{
closed = 1;
nodes = (
"94 120 OFFCURVE",
"110 194 OFFCURVE",
"110 251 CURVE SMOOTH",
"110 334 OFFCURVE",
"85 439 OFFCURVE",
"24 439 CURVE SMOOTH",
"-29 439 LINE",
"-29 421 LINE",
"49 421 LINE",
"80 387 OFFCURVE",
"91 296 OFFCURVE",
"91 194 CURVE",
"59 121 OFFCURVE",
"55 103 OFFCURVE",
"55 89 CURVE SMOOTH",
"55 80 OFFCURVE",
"63 75 OFFCURVE",
"73 75 CURVE"
);
},
{
closed = 1;
nodes = (
"163 228 OFFCURVE",
"246 223 OFFCURVE",
"329 201 CURVE",
"329 223 LINE",
"228 244 OFFCURVE",
"159 237 OFFCURVE",
"96 201 CURVE",
"96 189 LINE"
);
},
{
closed = 1;
nodes = (
"341 0 LINE",
"341 421 LINE",
"428 421 LINE",
"428 439 LINE",
"320 439 LINE",
"320 0 LINE"
);
}
);
width = 399;
},
{
layerId = "3B941797-445E-47EC-B390-6B41EAFC9AF2";
paths = (
{
closed = 1;
nodes = (
"161 97 OFFCURVE",
"183 165 OFFCURVE",
"183 246 CURVE SMOOTH",
"183 355 OFFCURVE",
"136 447 OFFCURVE",
"30 447 CURVE SMOOTH",
"-15 447 LINE",
"-15 363 LINE",
"64 363 LINE",
"79 322 OFFCURVE",
"82 273 OFFCURVE",
"85 222 CURVE",
"41 170 OFFCURVE",
"27 133 OFFCURVE",
"26 114 CURVE SMOOTH",
"25 86 OFFCURVE",
"74 53 OFFCURVE",
"118 48 CURVE"
);
},
{
closed = 1;
nodes = (
"214 202 OFFCURVE",
"271 185 OFFCURVE",
"297 154 CURVE",
"322 262 LINE",
"268 277 OFFCURVE",
"213 284 OFFCURVE",
"159 241 CURVE",
"170 176 LINE"
);
},
{
closed = 1;
nodes = (
"398 0 LINE",
"398 363 LINE",
"453 363 LINE",
"453 447 LINE",
"289 447 LINE",
"289 0 LINE"
);
}
);
width = 439;
}
);
unicode = 0A2E;
},
{
color = -1;
glyphname = grYA;
lastChange = "2016-02-26 16:05:11 +0000";
layers = (
{
background = {
paths = (
{
closed = 1;
nodes = (
"446 0 LINE",
"446 588 LINE",
"416 588 LINE",
"416 223 LINE",
"340 179 OFFCURVE",
"288 168 OFFCURVE",
"230 168 CURVE SMOOTH",
"178 168 OFFCURVE",
"108 182 OFFCURVE",
"82 232 CURVE",
"129 299 OFFCURVE",
"159 364 OFFCURVE",
"159 435 CURVE SMOOTH",
"159 497 OFFCURVE",
"145 539 OFFCURVE",
"115 592 CURVE",
"95 584 LINE",
"123 537 OFFCURVE",
"129 489 OFFCURVE",
"129 439 CURVE SMOOTH",
"129 381 OFFCURVE",
"110 329 OFFCURVE",
"62 258 CURVE SMOOTH",
"54 246 OFFCURVE",
"52 242 OFFCURVE",
"52 235 CURVE SMOOTH",
"52 200 OFFCURVE",
"137 139 OFFCURVE",
"230 139 CURVE SMOOTH",
"293 139 OFFCURVE",
"349 152 OFFCURVE",
"416 189 CURVE",
"419 188 LINE",
"416 103 LINE",
"416 0 LINE"
);
},
{
closed = 1;
nodes = (
"566 580 LINE",
"566 605 LINE",
"-40 605 LINE",
"-40 580 LINE"
);
}
);
};
layerId = "F84B2E81-E30C-4BCF-B175-C3D49BDC99D5";
paths = (
{
closed = 1;
nodes = (
"405 0 LINE",
"405 426 LINE",
"383 426 LINE",
"383 279 LINE",
"245 279 LINE",
"245 205 LINE SMOOTH",
"245 144 OFFCURVE",
"224 122 OFFCURVE",
"167 122 CURVE SMOOTH",
"118 122 OFFCURVE",
"69 139 OFFCURVE",
"59 171 CURVE",
"94 219 OFFCURVE",
"116 263 OFFCURVE",
"116 315 CURVE SMOOTH",
"116 360 OFFCURVE",
"105 391 OFFCURVE",
"83 429 CURVE",
"69 423 LINE",
"89 389 OFFCURVE",
"94 355 OFFCURVE",
"94 318 CURVE SMOOTH",
"94 267 OFFCURVE",
"71 225 OFFCURVE",
"45 191 CURVE SMOOTH",
"40 184 OFFCURVE",
"38 179 OFFCURVE",
"38 174 CURVE SMOOTH",
"38 141 OFFCURVE",
"102 101 OFFCURVE",
"174 101 CURVE SMOOTH",
"235 101 OFFCURVE",
"267 129 OFFCURVE",
"267 205 CURVE SMOOTH",
"267 261 LINE",
"383 261 LINE",
"383 0 LINE"
);
},
{
closed = 1;
nodes = (
"492 421 LINE",
"492 439 LINE",
"-29 439 LINE",
"-29 421 LINE"
);
}
);
width = 463;
},
{
background = {
components = (
{
name = grPA;
}
);
};
layerId = "3B941797-445E-47EC-B390-6B41EAFC9AF2";
paths = (
{
closed = 1;
nodes = (
"505 0 LINE",
"505 380 LINE",
"396 380 LINE",
"396 285 LINE",
"239 285 LINE",
"239 210 LINE SMOOTH",
"239 165 OFFCURVE",
"221 148 OFFCURVE",
"179 148 CURVE SMOOTH",
"154 148 OFFCURVE",
"135 153 OFFCURVE",
"121 161 CURVE",
"163 212 OFFCURVE",
"186 249 OFFCURVE",
"186 301 CURVE SMOOTH",
"186 336 OFFCURVE",
"166 372 OFFCURVE",
"135 399 CURVE",
"74 379 LINE",
"85 355 OFFCURVE",
"86 345 OFFCURVE",
"86 335 CURVE SMOOTH",
"86 305 OFFCURVE",
"72 286 OFFCURVE",
"34 225 CURVE SMOOTH",
"13 191 OFFCURVE",
"12 186 OFFCURVE",
"12 175 CURVE SMOOTH",
"12 130 OFFCURVE",
"81 71 OFFCURVE",
"201 71 CURVE SMOOTH",
"297 71 OFFCURVE",
"345 116 OFFCURVE",
"345 191 CURVE SMOOTH",
"345 202 LINE",
"396 202 LINE",
"396 0 LINE"
);
},
{
closed = 1;
nodes = (
"577 363 LINE",
"577 447 LINE",
"-29 447 LINE",
"-29 363 LINE"
);
}
);
width = 548;
}
);
unicode = 0A2F;
},
{
color = -1;
glyphname = grRA;
lastChange = "2016-02-26 16:05:11 +0000";
layers = (
{
anchors = (
{
name = bottom;
position = "{165, 0}";
},
{
name = top;
position = "{257, 439}";
}
);
background = {
paths = (
{
closed = 1;
nodes = (
"327 -5 OFFCURVE",
"369 39 OFFCURVE",
"369 132 CURVE SMOOTH",
"369 580 LINE",
"459 580 LINE",
"459 605 LINE",
"-20 605 LINE",
"-20 580 LINE",
"339 580 LINE",
"339 364 LINE",
"189 364 LINE SMOOTH",
"92 364 OFFCURVE",
"44 329 OFFCURVE",
"44 244 CURVE SMOOTH",
"44 112 OFFCURVE",
"157 -5 OFFCURVE",
"266 -5 CURVE SMOOTH"
);
},
{
closed = 1;
nodes = (
"177 20 OFFCURVE",
"112 101 OFFCURVE",
"76 164 CURVE",
"74 189 OFFCURVE",
"74 209 OFFCURVE",
"74 227 CURVE SMOOTH",
"74 294 OFFCURVE",
"90 339 OFFCURVE",
"210 339 CURVE SMOOTH",
"339 339 LINE",
"339 130 LINE SMOOTH",
"339 59 OFFCURVE",
"311 20 OFFCURVE",
"264 20 CURVE SMOOTH"
);
}
);
};
color = 4;
layerId = "F84B2E81-E30C-4BCF-B175-C3D49BDC99D5";
paths = (
{
closed = 1;
nodes = (
"237 -4 OFFCURVE",
"268 28 OFFCURVE",
"268 96 CURVE SMOOTH",
"268 421 LINE",
"347 421 LINE",
"347 439 LINE",
"-29 439 LINE",
"-29 421 LINE",
"246 421 LINE",
"246 264 LINE",
"137 264 LINE SMOOTH",
"67 264 OFFCURVE",
"32 239 OFFCURVE",
"32 177 CURVE SMOOTH",
"32 81 OFFCURVE",
"114 -4 OFFCURVE",
"193 -4 CURVE SMOOTH"
);
},
{
closed = 1;
nodes = (
"128 15 OFFCURVE",
"81 73 OFFCURVE",
"55 119 CURVE",
"54 137 OFFCURVE",
"54 152 OFFCURVE",
"54 165 CURVE SMOOTH",
"54 213 OFFCURVE",
"65 246 OFFCURVE",
"152 246 CURVE SMOOTH",
"246 246 LINE",
"246 94 LINE SMOOTH",
"246 43 OFFCURVE",
"225 15 OFFCURVE",
"191 15 CURVE SMOOTH"
);
}
);
width = 318;
},
{
anchors = (
{
name = bottom;
position = "{200, 0}";
},
{
name = top;
position = "{291, 447}";
}
);
background = {
components = (
{
name = grGA;
}
);
};
layerId = "3B941797-445E-47EC-B390-6B41EAFC9AF2";
paths = (
{
closed = 1;
nodes = (
"297 -4 OFFCURVE",
"346 38 OFFCURVE",
"346 146 CURVE SMOOTH",
"346 363 LINE",
"418 363 LINE",
"418 447 LINE",
"-29 447 LINE",
"-29 363 LINE",
"237 363 LINE",
"237 291 LINE",
"150 291 LINE SMOOTH",
"77 291 OFFCURVE",
"25 250 OFFCURVE",
"25 178 CURVE SMOOTH",
"25 80 OFFCURVE",
"141 -4 OFFCURVE",
"229 -4 CURVE SMOOTH"
);
},
{
closed = 1;
nodes = (
"172 76 OFFCURVE",
"151 81 OFFCURVE",
"137 91 CURVE",
"135 113 OFFCURVE",
"133 129 OFFCURVE",
"133 150 CURVE SMOOTH",
"133 185 OFFCURVE",
"148 208 OFFCURVE",
"191 208 CURVE SMOOTH",
"237 208 LINE",
"237 146 LINE SMOOTH",
"237 101 OFFCURVE",
"228 76 OFFCURVE",
"191 76 CURVE"
);
}
);
width = 389;
}
);
unicode = 0A30;
},
{
color = -1;
glyphname = grLA;
lastChange = "2016-02-26 16:05:11 +0000";
layers = (
{
anchors = (
{
name = bottom;
position = "{235, 0}";
},
{
name = top;
position = "{373, 439}";
}
);
background = {
components = (
{
name = grTTHA;
}
);
};
color = 4;
guideLines = (
{
angle = 180;
position = "{341, 205}";
}
);
layerId = "F84B2E81-E30C-4BCF-B175-C3D49BDC99D5";
paths = (
{
closed = 1;
nodes = (
"265 187 OFFCURVE",
"373 262 OFFCURVE",
"384 427 CURVE",
"363 427 LINE",
"349 294 OFFCURVE",
"288 230 OFFCURVE",
"235 205 CURVE",
"189 234 OFFCURVE",
"131 297 OFFCURVE",
"107 422 CURVE",
"86 422 LINE",
"112 289 OFFCURVE",
"203 187 OFFCURVE",
"239 187 CURVE SMOOTH"
);
},
{
closed = 1;
nodes = (
"157 -4 OFFCURVE",
"160 -1 OFFCURVE",
"161 4 CURVE",
"87 53 OFFCURVE",
"73 98 OFFCURVE",
"73 149 CURVE SMOOTH",
"73 204 OFFCURVE",
"101 249 OFFCURVE",
"154 271 CURVE",
"144 289 LINE",
"88 264 OFFCURVE",
"51 218 OFFCURVE",
"51 149 CURVE SMOOTH",
"51 88 OFFCURVE",
"78 44 OFFCURVE",
"152 -6 CURVE"
);
},
{
closed = 1;
nodes = (
"382 15 OFFCURVE",
"419 74 OFFCURVE",
"419 149 CURVE SMOOTH",
"419 208 OFFCURVE",
"384 258 OFFCURVE",
"331 285 CURVE",
"325 273 LINE",
"373 246 OFFCURVE",
"397 202 OFFCURVE",
"397 149 CURVE SMOOTH",
"397 80 OFFCURVE",
"363 33 OFFCURVE",
"304 12 CURVE",
"305 5 OFFCURVE",
"309 -1 OFFCURVE",
"315 -6 CURVE"
);
},
{
closed = 1;
nodes = (
"499 421 LINE",
"499 439 LINE",
"-29 439 LINE",
"-29 421 LINE"
);
}
);
width = 470;
},
{
anchors = (
{
name = bottom;
position = "{237, 0}";
},
{
name = top;
position = "{363, 447}";
}
);
guideLines = (
{
angle = 90;
position = "{616, 48}";
}
);
layerId = "3B941797-445E-47EC-B390-6B41EAFC9AF2";
paths = (
{
closed = 1;
nodes = (
"326 170 OFFCURVE",
"402 262 OFFCURVE",
"415 395 CURVE",
"311 395 LINE",
"312 307 OFFCURVE",
"256 244 OFFCURVE",
"219 236 CURVE",
"184 257 OFFCURVE",
"152 307 OFFCURVE",
"149 395 CURVE",
"51 395 LINE",
"66 276 OFFCURVE",
"146 170 OFFCURVE",
"238 170 CURVE SMOOTH"
);
},
{
closed = 1;
nodes = (
"146 -3 OFFCURVE",
"167 9 OFFCURVE",
"186 30 CURVE",
"133 80 OFFCURVE",
"121 102 OFFCURVE",
"121 141 CURVE SMOOTH",
"121 185 OFFCURVE",
"151 214 OFFCURVE",
"206 219 CURVE",
"139 278 LINE",
"71 257 OFFCURVE",
"27 207 OFFCURVE",
"27 141 CURVE SMOOTH",
"27 86 OFFCURVE",
"48 48 OFFCURVE",
"125 -8 CURVE"
);
},
{
closed = 1;
nodes = (
"407 19 OFFCURVE",
"447 73 OFFCURVE",
"447 142 CURVE SMOOTH",
"447 204 OFFCURVE",
"400 265 OFFCURVE",
"331 282 CURVE",
"280 227 LINE",
"315 213 OFFCURVE",
"336 185 OFFCURVE",
"336 144 CURVE SMOOTH",
"336 104 OFFCURVE",
"304 69 OFFCURVE",
"268 37 CURVE",
"284 15 OFFCURVE",
"316 0 OFFCURVE",
"350 -8 CURVE"
);
},
{
closed = 1;
nodes = (
"502 363 LINE",
"502 447 LINE",
"-29 447 LINE",
"-29 363 LINE"
);
}
);
width = 473;
}
);
unicode = 0A32;
},
{
color = -1;
glyphname = grLxA;
lastChange = "2016-02-26 16:05:11 +0000";
layers = (
{
anchors = (
{
name = bottom;
position = "{232, 0}";
},
{
name = top;
position = "{373, 439}";
}
);
background = {
paths = (
{
closed = 1;
nodes = (
"359 258 OFFCURVE",
"508 361 OFFCURVE",
"524 589 CURVE",
"494 589 LINE",
"475 406 OFFCURVE",
"391 317 OFFCURVE",
"318 283 CURVE",
"254 323 OFFCURVE",
"174 410 OFFCURVE",
"142 582 CURVE",
"112 582 LINE",
"148 399 OFFCURVE",
"274 258 OFFCURVE",
"323 258 CURVE SMOOTH"
);
},
{
closed = 1;
nodes = (
"210 -6 OFFCURVE",
"214 -2 OFFCURVE",
"216 6 CURVE",
"114 73 OFFCURVE",
"94 135 OFFCURVE",
"94 205 CURVE SMOOTH",
"94 281 OFFCURVE",
"133 343 OFFCURVE",
"207 374 CURVE",
"192 398 LINE",
"116 364 OFFCURVE",
"64 300 OFFCURVE",
"64 205 CURVE SMOOTH",
"64 121 OFFCURVE",
"101 60 OFFCURVE",
"204 -8 CURVE"
);
},
{
closed = 1;
nodes = (
"527 21 OFFCURVE",
"578 102 OFFCURVE",
"578 205 CURVE SMOOTH",
"578 287 OFFCURVE",
"529 356 OFFCURVE",
"457 393 CURVE",
"448 376 LINE",
"514 339 OFFCURVE",
"548 279 OFFCURVE",
"548 205 CURVE SMOOTH",
"548 111 OFFCURVE",
"500 45 OFFCURVE",
"419 17 CURVE",
"421 7 OFFCURVE",
"426 -2 OFFCURVE",
"434 -8 CURVE"
);
},
{
closed = 1;
nodes = (
"662 -11 OFFCURVE",
"676 2 OFFCURVE",
"676 18 CURVE SMOOTH",
"676 34 OFFCURVE",
"662 47 OFFCURVE",
"647 47 CURVE SMOOTH",
"632 47 OFFCURVE",
"618 34 OFFCURVE",
"618 18 CURVE SMOOTH",
"618 2 OFFCURVE",
"631 -11 OFFCURVE",
"647 -11 CURVE SMOOTH"
);
},
{
closed = 1;
nodes = (
"686 580 LINE",
"686 605 LINE",
"-33 605 LINE",
"-33 580 LINE"
);
}
);
};
layerId = "F84B2E81-E30C-4BCF-B175-C3D49BDC99D5";
paths = (
{
closed = 1;
nodes = (
"265 187 OFFCURVE",
"373 262 OFFCURVE",
"384 427 CURVE",
"363 427 LINE",
"349 294 OFFCURVE",
"288 230 OFFCURVE",
"235 205 CURVE",
"189 234 OFFCURVE",
"131 297 OFFCURVE",
"107 422 CURVE",
"86 422 LINE",
"112 289 OFFCURVE",
"203 187 OFFCURVE",
"239 187 CURVE SMOOTH"
);
},
{
closed = 1;
nodes = (
"157 -4 OFFCURVE",
"160 -1 OFFCURVE",
"161 4 CURVE",
"87 53 OFFCURVE",
"73 98 OFFCURVE",
"73 149 CURVE SMOOTH",
"73 204 OFFCURVE",
"101 249 OFFCURVE",
"154 271 CURVE",
"144 289 LINE",
"88 264 OFFCURVE",
"51 218 OFFCURVE",
"51 149 CURVE SMOOTH",
"51 88 OFFCURVE",
"78 44 OFFCURVE",
"152 -6 CURVE"
);
},
{
closed = 1;
nodes = (
"382 15 OFFCURVE",
"419 74 OFFCURVE",
"419 149 CURVE SMOOTH",
"419 208 OFFCURVE",
"384 258 OFFCURVE",
"331 285 CURVE",
"325 273 LINE",
"373 246 OFFCURVE",
"397 202 OFFCURVE",
"397 149 CURVE SMOOTH",
"397 80 OFFCURVE",
"363 33 OFFCURVE",
"304 12 CURVE",
"305 5 OFFCURVE",
"309 -1 OFFCURVE",
"315 -6 CURVE"
);
},
{
closed = 1;
nodes = (
"480 -8 OFFCURVE",
"490 1 OFFCURVE",
"490 13 CURVE SMOOTH",
"490 25 OFFCURVE",
"480 34 OFFCURVE",
"469 34 CURVE SMOOTH",
"458 34 OFFCURVE",
"448 25 OFFCURVE",
"448 13 CURVE SMOOTH",
"448 1 OFFCURVE",
"457 -8 OFFCURVE",
"469 -8 CURVE SMOOTH"
);
},
{
closed = 1;
nodes = (
"528 421 LINE",
"528 439 LINE",
"-29 439 LINE",
"-29 421 LINE"
);
}
);
width = 499;
},
{
anchors = (
{
name = bottom;
position = "{237, 0}";
},
{
name = top;
position = "{363, 447}";
}
);
background = {
paths = (
{
closed = 1;
nodes = (
"749 -10 OFFCURVE",
"784 25 OFFCURVE",
"784 67 CURVE SMOOTH",
"784 108 OFFCURVE",
"749 143 OFFCURVE",
"708 143 CURVE SMOOTH",
"669 143 OFFCURVE",
"631 108 OFFCURVE",
"631 67 CURVE SMOOTH",
"631 25 OFFCURVE",
"666 -10 OFFCURVE",
"708 -10 CURVE SMOOTH"
);
}
);
};
layerId = "3B941797-445E-47EC-B390-6B41EAFC9AF2";
paths = (
{
closed = 1;
nodes = (
"326 170 OFFCURVE",
"402 262 OFFCURVE",
"415 395 CURVE",
"311 395 LINE",
"312 307 OFFCURVE",
"256 244 OFFCURVE",
"219 236 CURVE",
"184 257 OFFCURVE",
"152 307 OFFCURVE",
"149 395 CURVE",
"51 395 LINE",
"66 276 OFFCURVE",
"146 170 OFFCURVE",
"238 170 CURVE SMOOTH"
);
},
{
closed = 1;
nodes = (
"146 -3 OFFCURVE",
"167 9 OFFCURVE",
"186 30 CURVE",
"133 80 OFFCURVE",
"121 102 OFFCURVE",
"121 141 CURVE SMOOTH",
"121 185 OFFCURVE",
"151 214 OFFCURVE",
"206 219 CURVE",
"139 278 LINE",
"71 257 OFFCURVE",
"27 207 OFFCURVE",
"27 141 CURVE SMOOTH",
"27 86 OFFCURVE",
"48 48 OFFCURVE",
"125 -8 CURVE"
);
},
{
closed = 1;
nodes = (
"407 19 OFFCURVE",
"447 73 OFFCURVE",
"447 142 CURVE SMOOTH",
"447 204 OFFCURVE",
"400 265 OFFCURVE",
"331 282 CURVE",
"280 227 LINE",
"315 213 OFFCURVE",
"336 185 OFFCURVE",
"336 144 CURVE SMOOTH",
"336 104 OFFCURVE",
"304 69 OFFCURVE",
"268 37 CURVE",
"284 15 OFFCURVE",
"316 0 OFFCURVE",
"350 -8 CURVE"
);
},
{
closed = 1;
nodes = (
"546 -7 OFFCURVE",
"568 16 OFFCURVE",
"568 49 CURVE SMOOTH",
"568 81 OFFCURVE",
"546 104 OFFCURVE",
"513 104 CURVE SMOOTH",
"481 104 OFFCURVE",
"457 81 OFFCURVE",
"457 49 CURVE SMOOTH",
"457 16 OFFCURVE",
"481 -7 OFFCURVE",
"513 -7 CURVE SMOOTH"
);
},
{
closed = 1;
nodes = (
"584 363 LINE",
"584 447 LINE",
"-29 447 LINE",
"-29 363 LINE"
);
}
);
width = 555;
}
);
unicode = 0A33;
},
{
color = -1;
glyphname = grVA;
lastChange = "2016-02-26 16:05:11 +0000";
layers = (
{
anchors = (
{
name = bottom;
position = "{206, 0}";
},
{
name = top;
position = "{286, 439}";
}
);
background = {
paths = (
{
closed = 1;
nodes = (
"430 -5 OFFCURVE",
"479 6 OFFCURVE",
"512 21 CURVE",
"500 49 LINE",
"452 33 OFFCURVE",
"419 27 OFFCURVE",
"384 27 CURVE SMOOTH",
"302 27 OFFCURVE",
"267 62 OFFCURVE",
"267 130 CURVE SMOOTH",
"267 146 OFFCURVE",
"269 163 OFFCURVE",
"272 183 CURVE",
"338 184 OFFCURVE",
"406 200 OFFCURVE",
"459 219 CURVE",
"459 242 OFFCURVE",
"448 253 OFFCURVE",
"433 256 CURVE",
"271 197 LINE",
"166 203 OFFCURVE",
"106 246 OFFCURVE",
"106 312 CURVE SMOOTH",
"106 365 OFFCURVE",
"141 397 OFFCURVE",
"204 397 CURVE SMOOTH",
"433 397 LINE",
"433 580 LINE",
"551 580 LINE",
"551 605 LINE",
"-29 605 LINE",
"-29 580 LINE",
"403 580 LINE",
"403 422 LINE",
"198 422 LINE SMOOTH",
"127 422 OFFCURVE",
"76 381 OFFCURVE",
"76 312 CURVE SMOOTH",
"76 240 OFFCURVE",
"145 190 OFFCURVE",
"259 183 CURVE",
"251 154 OFFCURVE",
"247 128 OFFCURVE",
"247 104 CURVE SMOOTH",
"247 39 OFFCURVE",
"299 -5 OFFCURVE",
"387 -5 CURVE SMOOTH"
);
}
);
};
layerId = "F84B2E81-E30C-4BCF-B175-C3D49BDC99D5";
paths = (
{
closed = 1;
nodes = (
"295 -4 OFFCURVE",
"331 4 OFFCURVE",
"355 16 CURVE",
"346 37 LINE",
"311 25 OFFCURVE",
"287 20 OFFCURVE",
"262 20 CURVE SMOOTH",
"201 20 OFFCURVE",
"177 46 OFFCURVE",
"177 95 CURVE SMOOTH",
"177 107 OFFCURVE",
"178 119 OFFCURVE",
"181 133 CURVE",
"230 134 OFFCURVE",
"278 144 OFFCURVE",
"316 160 CURVE",
"316 177 OFFCURVE",
"308 186 OFFCURVE",
"297 188 CURVE",
"179 143 LINE",
"102 148 OFFCURVE",
"60 181 OFFCURVE",
"60 224 CURVE SMOOTH",
"60 264 OFFCURVE",
"86 288 OFFCURVE",
"129 288 CURVE SMOOTH",
"297 288 LINE",
"297 421 LINE",
"414 421 LINE",
"414 439 LINE",
"-29 439 LINE",
"-29 421 LINE",
"276 421 LINE",
"276 306 LINE",
"129 306 LINE SMOOTH",
"73 306 OFFCURVE",
"38 275 OFFCURVE",
"38 226 CURVE SMOOTH",
"38 173 OFFCURVE",
"88 138 OFFCURVE",
"171 133 CURVE",
"165 112 OFFCURVE",
"162 95 OFFCURVE",
"162 79 CURVE SMOOTH",
"162 25 OFFCURVE",
"204 -4 OFFCURVE",
"264 -4 CURVE SMOOTH"
);
}
);
width = 385;
},
{
anchors = (
{
name = bottom;
position = "{232, 0}";
},
{
name = top;
position = "{310, 447}";
}
);
background = {
paths = (
{
closed = 1;
nodes = (
"454 -6 OFFCURVE",
"503 8 OFFCURVE",
"542 25 CURVE",
"510 121 LINE",
"469 111 OFFCURVE",
"437 108 OFFCURVE",
"411 108 CURVE SMOOTH",
"355 108 OFFCURVE",
"308 121 OFFCURVE",
"308 159 CURVE SMOOTH",
"308 162 OFFCURVE",
"308 165 OFFCURVE",
"309 168 CURVE",
"380 170 OFFCURVE",
"446 183 OFFCURVE",
"496 200 CURVE",
"517 245 OFFCURVE",
"494 306 OFFCURVE",
"442 316 CURVE",
"256 252 LINE",
"201 249 OFFCURVE",
"184 280 OFFCURVE",
"184 305 CURVE SMOOTH",
"184 331 OFFCURVE",
"201 354 OFFCURVE",
"238 354 CURVE SMOOTH",
"502 354 LINE",
"502 501 LINE",
"578 501 LINE",
"578 616 LINE",
"-30 616 LINE",
"-30 501 LINE",
"30 501 LINE",
"38 451 OFFCURVE",
"70 422 OFFCURVE",
"111 405 CURVE",
"111 399 LINE",
"60 377 OFFCURVE",
"34 340 OFFCURVE",
"34 290 CURVE SMOOTH",
"34 215 OFFCURVE",
"95 181 OFFCURVE",
"211 171 CURVE",
"208 160 OFFCURVE",
"207 141 OFFCURVE",
"207 129 CURVE SMOOTH",
"207 65 OFFCURVE",
"247 -6 OFFCURVE",
"394 -6 CURVE SMOOTH"
);
},
{
closed = 1;
nodes = (
"194 446 OFFCURVE",
"180 466 OFFCURVE",
"180 501 CURVE",
"352 501 LINE",
"352 432 LINE",
"213 432 LINE"
);
}
);
};
layerId = "3B941797-445E-47EC-B390-6B41EAFC9AF2";
paths = (
{
closed = 1;
nodes = (
"328 -4 OFFCURVE",
"366 6 OFFCURVE",
"393 18 CURVE",
"370 88 LINE",
"340 81 OFFCURVE",
"318 78 OFFCURVE",
"294 78 CURVE SMOOTH",
"250 78 OFFCURVE",
"223 88 OFFCURVE",
"223 115 CURVE SMOOTH",
"223 117 OFFCURVE",
"223 120 OFFCURVE",
"224 122 CURVE",
"269 125 OFFCURVE",
"315 134 OFFCURVE",
"360 149 CURVE",
"375 182 OFFCURVE",
"358 228 OFFCURVE",
"320 236 CURVE",
"186 183 LINE",
"146 181 OFFCURVE",
"133 205 OFFCURVE",
"133 223 CURVE SMOOTH",
"133 242 OFFCURVE",
"146 263 OFFCURVE",
"181 263 CURVE SMOOTH",
"364 263 LINE",
"364 363 LINE",
"444 363 LINE",
"444 447 LINE",
"-29 447 LINE",
"-29 363 LINE",
"255 363 LINE",
"255 320 LINE",
"166 320 LINE SMOOTH",
"68 320 OFFCURVE",
"25 278 OFFCURVE",
"25 223 CURVE SMOOTH",
"25 169 OFFCURVE",
"68 131 OFFCURVE",
"153 124 CURVE",
"151 114 OFFCURVE",
"150 104 OFFCURVE",
"150 96 CURVE SMOOTH",
"150 35 OFFCURVE",
"198 -4 OFFCURVE",
"286 -4 CURVE SMOOTH"
);
}
);
width = 415;
},
{
associatedMasterId = "F84B2E81-E30C-4BCF-B175-C3D49BDC99D5";
background = {
components = (
{
name = grNYA;
}
);
};
layerId = "1CA305D6-F9E6-49A7-BA32-5A3467DF7A5E";
name = "Draft 1";
paths = (
{
closed = 1;
nodes = (
"412 601 LINE",
"412 436 LINE",
"207 436 LINE SMOOTH",
"136 436 OFFCURVE",
"85 394 OFFCURVE",
"85 323 CURVE SMOOTH",
"85 248 OFFCURVE",
"154 202 OFFCURVE",
"268 194 CURVE",
"260 164 OFFCURVE",
"256 138 OFFCURVE",
"256 113 CURVE SMOOTH",
"256 45 OFFCURVE",
"308 0 OFFCURVE",
"396 0 CURVE SMOOTH",
"439 0 OFFCURVE",
"488 11 OFFCURVE",
"521 27 CURVE",
"509 56 LINE",
"461 39 OFFCURVE",
"428 33 OFFCURVE",
"393 33 CURVE SMOOTH",
"311 33 OFFCURVE",
"276 69 OFFCURVE",
"276 140 CURVE SMOOTH",
"276 156 OFFCURVE",
"278 174 OFFCURVE",
"281 194 CURVE",
"347 196 OFFCURVE",
"415 212 OFFCURVE",
"468 232 CURVE",
"468 255 OFFCURVE",
"457 267 OFFCURVE",
"442 270 CURVE",
"280 209 LINE",
"175 215 OFFCURVE",
"115 255 OFFCURVE",
"115 323 CURVE SMOOTH",
"115 378 OFFCURVE",
"150 411 OFFCURVE",
"213 411 CURVE SMOOTH",
"442 411 LINE",
"442 601 LINE",
"560 601 LINE",
"560 626 LINE",
"-20 626 LINE",
"-20 601 LINE"
);
}
);
width = 540;
}
);
unicode = 0A35;
},
{
color = -1;
glyphname = grSxA;
lastChange = "2016-02-26 16:05:11 +0000";
layers = (
{
background = {
components = (
{
name = grMA;
}
);
};
layerId = "F84B2E81-E30C-4BCF-B175-C3D49BDC99D5";
paths = (
{
closed = 1;
nodes = (
"94 120 OFFCURVE",
"110 194 OFFCURVE",
"110 251 CURVE SMOOTH",
"110 334 OFFCURVE",
"85 439 OFFCURVE",
"24 439 CURVE SMOOTH",
"-29 439 LINE",
"-29 421 LINE",
"49 421 LINE",
"80 387 OFFCURVE",
"91 296 OFFCURVE",
"91 194 CURVE",
"59 121 OFFCURVE",
"55 103 OFFCURVE",
"55 89 CURVE SMOOTH",
"55 80 OFFCURVE",
"63 75 OFFCURVE",
"73 75 CURVE"
);
},
{
closed = 1;
nodes = (
"207 -8 OFFCURVE",
"217 1 OFFCURVE",
"217 13 CURVE SMOOTH",
"217 25 OFFCURVE",
"207 34 OFFCURVE",
"196 34 CURVE SMOOTH",
"185 34 OFFCURVE",
"175 25 OFFCURVE",
"175 13 CURVE SMOOTH",
"175 1 OFFCURVE",
"184 -8 OFFCURVE",
"196 -8 CURVE SMOOTH"
);
},
{
closed = 1;
nodes = (
"329 223 LINE",
"291 231 OFFCURVE",
"257 235 OFFCURVE",
"228 235 CURVE SMOOTH",
"177 235 OFFCURVE",
"136 223 OFFCURVE",
"96 201 CURVE",
"96 189 LINE",
"131 210 OFFCURVE",
"171 218 OFFCURVE",
"213 218 CURVE SMOOTH",
"250 218 OFFCURVE",
"290 211 OFFCURVE",
"329 201 CURVE"
);
},
{
closed = 1;
nodes = (
"341 0 LINE",
"341 421 LINE",
"428 421 LINE",
"428 439 LINE",
"320 439 LINE",
"320 0 LINE"
);
}
);
width = 399;
},
{
background = {
paths = (
{
closed = 1;
nodes = (
"362 -10 OFFCURVE",
"397 25 OFFCURVE",
"397 67 CURVE SMOOTH",
"397 108 OFFCURVE",
"362 143 OFFCURVE",
"321 143 CURVE SMOOTH",
"282 143 OFFCURVE",
"244 108 OFFCURVE",
"244 67 CURVE SMOOTH",
"244 25 OFFCURVE",
"279 -10 OFFCURVE",
"321 -10 CURVE SMOOTH"
);
}
);
};
layerId = "3B941797-445E-47EC-B390-6B41EAFC9AF2";
paths = (
{
closed = 1;
nodes = (
"164 97 OFFCURVE",
"186 165 OFFCURVE",
"186 246 CURVE SMOOTH",
"186 355 OFFCURVE",
"138 447 OFFCURVE",
"33 447 CURVE SMOOTH",
"-29 447 LINE",
"-29 363 LINE",
"67 363 LINE",
"82 322 OFFCURVE",
"85 273 OFFCURVE",
"88 222 CURVE",
"44 170 OFFCURVE",
"30 133 OFFCURVE",
"29 114 CURVE SMOOTH",
"28 86 OFFCURVE",
"77 53 OFFCURVE",
"121 48 CURVE"
);
},
{
closed = 1;
nodes = (
"265 -7 OFFCURVE",
"288 16 OFFCURVE",
"288 49 CURVE SMOOTH",
"288 81 OFFCURVE",
"265 104 OFFCURVE",
"233 104 CURVE SMOOTH",
"200 104 OFFCURVE",
"177 81 OFFCURVE",
"177 49 CURVE SMOOTH",
"177 16 OFFCURVE",
"200 -7 OFFCURVE",
"233 -7 CURVE SMOOTH"
);
},
{
closed = 1;
nodes = (
"358 262 LINE",
"331 269 OFFCURVE",
"305 273 OFFCURVE",
"278 273 CURVE SMOOTH",
"238 273 OFFCURVE",
"199 264 OFFCURVE",
"159 241 CURVE",
"173 176 LINE",
"196 185 OFFCURVE",
"218 189 OFFCURVE",
"239 189 CURVE SMOOTH",
"272 189 OFFCURVE",
"302 180 OFFCURVE",
"331 164 CURVE"
);
},
{
closed = 1;
nodes = (
"436 0 LINE",
"436 363 LINE",
"508 363 LINE",
"508 447 LINE",
"327 447 LINE",
"327 0 LINE"
);
}
);
width = 479;
}
);
unicode = 0A36;
},
{
color = -1;
glyphname = grSA;
lastChange = "2016-02-26 16:05:11 +0000";
layers = (
{
background = {
paths = (
{
closed = 1;
nodes = (
"130 166 OFFCURVE",
"157 277 OFFCURVE",
"153 356 CURVE SMOOTH",
"149 443 OFFCURVE",
"134 519 OFFCURVE",
"81 594 CURVE",
"67 586 LINE",
"112 515 OFFCURVE",
"128 401 OFFCURVE",
"126 268 CURVE",
"83 167 OFFCURVE",
"77 142 OFFCURVE",
"77 123 CURVE SMOOTH",
"77 111 OFFCURVE",
"88 104 OFFCURVE",
"101 104 CURVE"
);
},
{
closed = 1;
nodes = (
"455 307 LINE",
"315 337 OFFCURVE",
"220 327 OFFCURVE",
"134 277 CURVE",
"134 260 LINE",
"226 315 OFFCURVE",
"340 307 OFFCURVE",
"455 277 CURVE"
);
},
{
closed = 1;
nodes = (
"472 0 LINE",
"472 595 LINE",
"442 595 LINE",
"442 0 LINE"
);
},
{
closed = 1;
nodes = (
"592 580 LINE",
"592 605 LINE",
"-40 605 LINE",
"-40 580 LINE"
);
}
);
};
layerId = "F84B2E81-E30C-4BCF-B175-C3D49BDC99D5";
paths = (
{
closed = 1;
nodes = (
"94 120 OFFCURVE",
"114 201 OFFCURVE",
"111 258 CURVE SMOOTH",
"108 321 OFFCURVE",
"97 376 OFFCURVE",
"59 431 CURVE",
"49 425 LINE",
"81 373 OFFCURVE",
"93 291 OFFCURVE",
"91 194 CURVE",
"60 121 OFFCURVE",
"56 103 OFFCURVE",
"56 89 CURVE SMOOTH",
"56 80 OFFCURVE",
"64 75 OFFCURVE",
"73 75 CURVE"
);
},
{
closed = 1;
nodes = (
"131 210 OFFCURVE",
"171 218 OFFCURVE",
"213 218 CURVE SMOOTH",
"250 218 OFFCURVE",
"290 211 OFFCURVE",
"329 201 CURVE",
"329 223 LINE",
"291 231 OFFCURVE",
"257 235 OFFCURVE",
"228 235 CURVE SMOOTH",
"177 235 OFFCURVE",
"136 223 OFFCURVE",
"96 201 CURVE",
"96 189 LINE"
);
},
{
closed = 1;
nodes = (
"342 0 LINE",
"342 431 LINE",
"320 431 LINE",
"320 0 LINE"
);
},
{
closed = 1;
nodes = (
"429 421 LINE",
"429 439 LINE",
"-29 439 LINE",
"-29 421 LINE"
);
}
);
width = 400;
},
{
layerId = "3B941797-445E-47EC-B390-6B41EAFC9AF2";
paths = (
{
closed = 1;
nodes = (
"164 97 OFFCURVE",
"186 165 OFFCURVE",
"186 246 CURVE SMOOTH",
"186 297 OFFCURVE",
"176 344 OFFCURVE",
"154 379 CURVE",
"67 364 LINE",
"82 322 OFFCURVE",
"85 273 OFFCURVE",
"88 222 CURVE",
"44 170 OFFCURVE",
"30 133 OFFCURVE",
"29 114 CURVE SMOOTH",
"28 86 OFFCURVE",
"77 53 OFFCURVE",
"121 48 CURVE"
);
},
{
closed = 1;
nodes = (
"188 185 OFFCURVE",
"204 189 OFFCURVE",
"220 189 CURVE SMOOTH",
"252 189 OFFCURVE",
"283 174 OFFCURVE",
"300 154 CURVE",
"325 262 LINE",
"301 269 OFFCURVE",
"278 273 OFFCURVE",
"254 273 CURVE SMOOTH",
"223 273 OFFCURVE",
"192 265 OFFCURVE",
"162 241 CURVE",
"173 176 LINE"
);
},
{
closed = 1;
nodes = (
"401 0 LINE",
"401 382 LINE",
"292 382 LINE",
"292 0 LINE"
);
},
{
closed = 1;
nodes = (
"473 363 LINE",
"473 447 LINE",
"-29 447 LINE",
"-29 363 LINE"
);
}
);
width = 444;
}
);
unicode = 0A38;
},
{
color = -1;
glyphname = grHA;
lastChange = "2016-02-26 16:05:11 +0000";
layers = (
{
anchors = (
{
name = bottom;
position = "{167, 0}";
},
{
name = top;
position = "{257, 439}";
}
);
background = {
components = (
{
name = grRA;
}
);
};
layerId = "F84B2E81-E30C-4BCF-B175-C3D49BDC99D5";
paths = (
{
closed = 1;
nodes = (
"237 -4 OFFCURVE",
"268 28 OFFCURVE",
"268 96 CURVE SMOOTH",
"268 421 LINE",
"347 421 LINE",
"347 439 LINE",
"-29 439 LINE",
"-29 421 LINE",
"246 421 LINE",
"246 94 LINE SMOOTH",
"246 43 OFFCURVE",
"225 15 OFFCURVE",
"191 15 CURVE SMOOTH",
"128 15 OFFCURVE",
"81 73 OFFCURVE",
"55 119 CURVE",
"54 137 OFFCURVE",
"54 152 OFFCURVE",
"54 165 CURVE SMOOTH",
"54 213 OFFCURVE",
"65 246 OFFCURVE",
"147 246 CURVE SMOOTH",
"169 246 LINE",
"169 264 LINE",
"137 264 LINE SMOOTH",
"67 264 OFFCURVE",
"32 239 OFFCURVE",
"32 177 CURVE SMOOTH",
"32 81 OFFCURVE",
"114 -4 OFFCURVE",
"193 -4 CURVE SMOOTH"
);
}
);
width = 318;
},
{
anchors = (
{
name = bottom;
position = "{214, 0}";
},
{
name = top;
position = "{291, 447}";
}
);
background = {
components = (
{
name = grGA;
}
);
};
layerId = "3B941797-445E-47EC-B390-6B41EAFC9AF2";
paths = (
{
closed = 1;
nodes = (
"297 -4 OFFCURVE",
"346 38 OFFCURVE",
"346 146 CURVE SMOOTH",
"346 363 LINE",
"419 363 LINE",
"419 447 LINE",
"-29 447 LINE",
"-29 363 LINE",
"237 363 LINE",
"237 146 LINE SMOOTH",
"237 101 OFFCURVE",
"228 76 OFFCURVE",
"191 76 CURVE",
"172 76 OFFCURVE",
"151 81 OFFCURVE",
"137 91 CURVE",
"135 113 OFFCURVE",
"133 129 OFFCURVE",
"133 150 CURVE SMOOTH",
"133 185 OFFCURVE",
"150 208 OFFCURVE",
"185 208 CURVE SMOOTH",
"191 208 LINE",
"191 291 LINE",
"165 291 LINE SMOOTH",
"77 291 OFFCURVE",
"25 250 OFFCURVE",
"25 178 CURVE SMOOTH",
"25 80 OFFCURVE",
"141 -4 OFFCURVE",
"229 -4 CURVE SMOOTH"
);
}
);
width = 390;
}
);
unicode = 0A39;
},
{
color = -1;
glyphname = grKHxA;
lastChange = "2016-02-26 16:05:11 +0000";
layers = (
{
layerId = "F84B2E81-E30C-4BCF-B175-C3D49BDC99D5";
paths = (
{
closed = 1;
nodes = (
"323 0 LINE",
"323 421 LINE",
"410 421 LINE",
"410 439 LINE",
"302 439 LINE",
"302 162 LINE",
"247 130 OFFCURVE",
"209 122 OFFCURVE",
"167 122 CURVE SMOOTH",
"129 122 OFFCURVE",
"83 131 OFFCURVE",
"58 167 CURVE",
"96 225 OFFCURVE",
"115 265 OFFCURVE",
"115 323 CURVE SMOOTH",
"115 381 OFFCURVE",
"88 439 OFFCURVE",
"20 439 CURVE SMOOTH",
"-29 439 LINE",
"-29 421 LINE SMOOTH",
"20 421 LINE SMOOTH",
"42 421 OFFCURVE",
"59 418 OFFCURVE",
"75 409 CURVE",
"88 383 OFFCURVE",
"94 355 OFFCURVE",
"94 323 CURVE SMOOTH",
"94 277 OFFCURVE",
"76 234 OFFCURVE",
"45 187 CURVE SMOOTH",
"39 178 OFFCURVE",
"38 175 OFFCURVE",
"38 170 CURVE SMOOTH",
"38 142 OFFCURVE",
"99 101 OFFCURVE",
"167 101 CURVE SMOOTH",
"212 101 OFFCURVE",
"253 110 OFFCURVE",
"302 137 CURVE",
"304 136 LINE",
"302 75 LINE",
"302 0 LINE"
);
},
{
closed = 1;
nodes = (
"70 -8 OFFCURVE",
"80 1 OFFCURVE",
"80 13 CURVE SMOOTH",
"80 25 OFFCURVE",
"70 34 OFFCURVE",
"59 34 CURVE SMOOTH",
"48 34 OFFCURVE",
"38 25 OFFCURVE",
"38 13 CURVE SMOOTH",
"38 1 OFFCURVE",
"47 -8 OFFCURVE",
"59 -8 CURVE SMOOTH"
);
},
{
closed = 1;
nodes = (
"314 269 LINE",
"314 287 LINE",
"102 287 LINE",
"102 269 LINE"
);
}
);
width = 381;
},
{
background = {
paths = (
{
closed = 1;
nodes = (
"105 -10 OFFCURVE",
"140 25 OFFCURVE",
"140 67 CURVE SMOOTH",
"140 108 OFFCURVE",
"105 143 OFFCURVE",
"64 143 CURVE SMOOTH",
"25 143 OFFCURVE",
"-13 108 OFFCURVE",
"-13 67 CURVE SMOOTH",
"-13 25 OFFCURVE",
"22 -10 OFFCURVE",
"64 -10 CURVE SMOOTH"
);
}
);
};
layerId = "3B941797-445E-47EC-B390-6B41EAFC9AF2";
paths = (
{
closed = 1;
nodes = (
"456 0 LINE",
"456 363 LINE",
"529 363 LINE",
"529 447 LINE",
"347 447 LINE",
"347 196 LINE",
"292 161 OFFCURVE",
"247 148 OFFCURVE",
"211 148 CURVE SMOOTH",
"196 148 OFFCURVE",
"185 152 OFFCURVE",
"178 161 CURVE",
"220 212 OFFCURVE",
"243 249 OFFCURVE",
"243 301 CURVE SMOOTH",
"243 370 OFFCURVE",
"162 447 OFFCURVE",
"71 447 CURVE SMOOTH",
"-29 447 LINE",
"-29 363 LINE",
"99 363 LINE",
"112 363 OFFCURVE",
"125 363 OFFCURVE",
"138 363 CURVE",
"142 355 OFFCURVE",
"144 345 OFFCURVE",
"144 335 CURVE SMOOTH",
"144 305 OFFCURVE",
"129 286 OFFCURVE",
"91 225 CURVE SMOOTH",
"70 191 OFFCURVE",
"69 186 OFFCURVE",
"69 175 CURVE SMOOTH",
"69 130 OFFCURVE",
"138 71 OFFCURVE",
"229 71 CURVE SMOOTH",
"278 71 OFFCURVE",
"310 80 OFFCURVE",
"349 95 CURVE",
"352 93 LINE",
"347 27 LINE",
"347 0 LINE"
);
},
{
closed = 1;
nodes = (
"79 -7 OFFCURVE",
"102 16 OFFCURVE",
"102 49 CURVE SMOOTH",
"102 81 OFFCURVE",
"79 104 OFFCURVE",
"46 104 CURVE SMOOTH",
"14 104 OFFCURVE",
"-9 81 OFFCURVE",
"-9 49 CURVE SMOOTH",
"-9 16 OFFCURVE",
"14 -7 OFFCURVE",
"46 -7 CURVE SMOOTH"
);
},
{
closed = 1;
nodes = (
"374 235 LINE",
"374 318 LINE",
"199 318 LINE",
"199 235 LINE"
);
}
);
width = 500;
}
);
unicode = 0A59;
},
{
color = -1;
glyphname = grGxA;
lastChange = "2016-02-26 16:05:11 +0000";
layers = (
{
background = {
paths = (
{
closed = 1;
nodes = (
"367 -5 OFFCURVE",
"409 39 OFFCURVE",
"409 132 CURVE SMOOTH",
"409 580 LINE",
"586 580 LINE",
"586 0 LINE",
"616 0 LINE",
"616 580 LINE",
"706 580 LINE",
"706 605 LINE",
"-20 605 LINE",
"-20 580 LINE",
"379 580 LINE",
"379 364 LINE",
"229 364 LINE SMOOTH",
"132 364 OFFCURVE",
"84 329 OFFCURVE",
"84 244 CURVE SMOOTH",
"84 112 OFFCURVE",
"197 -5 OFFCURVE",
"306 -5 CURVE SMOOTH"
);
},
{
closed = 1;
nodes = (
"66 -11 OFFCURVE",
"80 2 OFFCURVE",
"80 18 CURVE SMOOTH",
"80 34 OFFCURVE",
"66 47 OFFCURVE",
"51 47 CURVE SMOOTH",
"36 47 OFFCURVE",
"22 34 OFFCURVE",
"22 18 CURVE SMOOTH",
"22 2 OFFCURVE",
"35 -11 OFFCURVE",
"51 -11 CURVE SMOOTH"
);
},
{
closed = 1;
nodes = (
"217 20 OFFCURVE",
"152 101 OFFCURVE",
"116 164 CURVE",
"114 189 OFFCURVE",
"114 209 OFFCURVE",
"114 227 CURVE SMOOTH",
"114 294 OFFCURVE",
"130 339 OFFCURVE",
"250 339 CURVE SMOOTH",
"379 339 LINE",
"379 130 LINE SMOOTH",
"379 59 OFFCURVE",
"351 20 OFFCURVE",
"304 20 CURVE SMOOTH"
);
}
);
};
layerId = "F84B2E81-E30C-4BCF-B175-C3D49BDC99D5";
paths = (
{
closed = 1;
nodes = (
"266 -4 OFFCURVE",
"297 28 OFFCURVE",
"297 96 CURVE SMOOTH",
"297 421 LINE",
"425 421 LINE",
"425 0 LINE",
"447 0 LINE",
"447 421 LINE",
"534 421 LINE",
"534 439 LINE",
"-29 439 LINE",
"-29 421 LINE",
"275 421 LINE",
"275 264 LINE",
"166 264 LINE SMOOTH",
"96 264 OFFCURVE",
"61 239 OFFCURVE",
"61 177 CURVE SMOOTH",
"61 81 OFFCURVE",
"143 -4 OFFCURVE",
"222 -4 CURVE SMOOTH"
);
},
{
closed = 1;
nodes = (
"48 -8 OFFCURVE",
"58 1 OFFCURVE",
"58 13 CURVE SMOOTH",
"58 25 OFFCURVE",
"48 34 OFFCURVE",
"37 34 CURVE SMOOTH",
"26 34 OFFCURVE",
"16 25 OFFCURVE",
"16 13 CURVE SMOOTH",
"16 1 OFFCURVE",
"25 -8 OFFCURVE",
"37 -8 CURVE SMOOTH"
);
},
{
closed = 1;
nodes = (
"157 15 OFFCURVE",
"110 73 OFFCURVE",
"84 119 CURVE",
"83 137 OFFCURVE",
"83 152 OFFCURVE",
"83 165 CURVE SMOOTH",
"83 213 OFFCURVE",
"94 246 OFFCURVE",
"181 246 CURVE SMOOTH",
"275 246 LINE",
"275 94 LINE SMOOTH",
"275 43 OFFCURVE",
"254 15 OFFCURVE",
"220 15 CURVE SMOOTH"
);
}
);
width = 505;
},
{
background = {
paths = (
{
closed = 1;
nodes = (
"118 -10 OFFCURVE",
"153 25 OFFCURVE",
"153 67 CURVE SMOOTH",
"153 108 OFFCURVE",
"118 143 OFFCURVE",
"77 143 CURVE SMOOTH",
"38 143 OFFCURVE",
"0 108 OFFCURVE",
"0 67 CURVE SMOOTH",
"0 25 OFFCURVE",
"35 -10 OFFCURVE",
"77 -10 CURVE SMOOTH"
);
}
);
};
layerId = "3B941797-445E-47EC-B390-6B41EAFC9AF2";
paths = (
{
closed = 1;
nodes = (
"370 -4 OFFCURVE",
"419 38 OFFCURVE",
"419 146 CURVE SMOOTH",
"419 363 LINE",
"506 363 LINE",
"506 0 LINE",
"615 0 LINE",
"615 363 LINE",
"687 363 LINE",
"687 447 LINE",
"-29 447 LINE",
"-29 363 LINE",
"310 363 LINE",
"310 291 LINE",
"223 291 LINE SMOOTH",
"150 291 OFFCURVE",
"98 250 OFFCURVE",
"98 178 CURVE SMOOTH",
"98 80 OFFCURVE",
"215 -4 OFFCURVE",
"302 -4 CURVE SMOOTH"
);
},
{
closed = 1;
nodes = (
"79 -7 OFFCURVE",
"102 16 OFFCURVE",
"102 49 CURVE SMOOTH",
"102 81 OFFCURVE",
"79 104 OFFCURVE",
"46 104 CURVE SMOOTH",
"14 104 OFFCURVE",
"-9 81 OFFCURVE",
"-9 49 CURVE SMOOTH",
"-9 16 OFFCURVE",
"14 -7 OFFCURVE",
"46 -7 CURVE SMOOTH"
);
},
{
closed = 1;
nodes = (
"245 76 OFFCURVE",
"224 81 OFFCURVE",
"210 91 CURVE",
"208 113 OFFCURVE",
"207 129 OFFCURVE",
"207 150 CURVE SMOOTH",
"207 185 OFFCURVE",
"221 208 OFFCURVE",
"264 208 CURVE SMOOTH",
"310 208 LINE",
"310 146 LINE SMOOTH",
"310 101 OFFCURVE",
"301 76 OFFCURVE",
"265 76 CURVE"
);
}
);
width = 658;
}
);
unicode = 0A5A;
},
{
color = -1;
glyphname = grJxA;
lastChange = "2016-02-26 16:05:11 +0000";
layers = (
{
background = {
paths = (
{
closed = 1;
nodes = (
"147 0 LINE",
"147 344 LINE",
"423 344 LINE",
"423 0 LINE",
"453 0 LINE",
"453 601 LINE",
"543 601 LINE",
"543 626 LINE",
"-20 626 LINE",
"-20 601 LINE",
"423 601 LINE",
"423 369 LINE",
"146 369 LINE",
"63 442 LINE",
"54 439 OFFCURVE",
"50 435 OFFCURVE",
"47 428 CURVE",
"47 409 OFFCURVE",
"68 378 OFFCURVE",
"117 350 CURVE",
"117 0 LINE"
);
},
{
closed = 1;
nodes = (
"299 -11 OFFCURVE",
"313 2 OFFCURVE",
"313 18 CURVE SMOOTH",
"313 34 OFFCURVE",
"299 47 OFFCURVE",
"284 47 CURVE SMOOTH",
"269 47 OFFCURVE",
"255 34 OFFCURVE",
"255 18 CURVE SMOOTH",
"255 2 OFFCURVE",
"268 -11 OFFCURVE",
"284 -11 CURVE SMOOTH"
);
}
);
};
color = 6;
guideLines = (
{
angle = 90;
position = "{285, -77}";
}
);
layerId = "F84B2E81-E30C-4BCF-B175-C3D49BDC99D5";
paths = (
{
closed = 1;
nodes = (
"107 0 LINE",
"107 249 LINE",
"307 249 LINE",
"307 0 LINE",
"328 0 LINE",
"328 421 LINE",
"415 421 LINE",
"415 439 LINE",
"-29 439 LINE",
"-29 421 LINE",
"307 421 LINE",
"307 268 LINE",
"106 268 LINE",
"46 320 LINE",
"39 318 OFFCURVE",
"36 315 OFFCURVE",
"34 310 CURVE",
"34 297 OFFCURVE",
"49 274 OFFCURVE",
"85 254 CURVE",
"85 0 LINE"
);
},
{
closed = 1;
nodes = (
"217 -8 OFFCURVE",
"227 1 OFFCURVE",
"227 13 CURVE SMOOTH",
"227 25 OFFCURVE",
"217 34 OFFCURVE",
"206 34 CURVE SMOOTH",
"195 34 OFFCURVE",
"185 25 OFFCURVE",
"185 13 CURVE SMOOTH",
"185 1 OFFCURVE",
"194 -8 OFFCURVE",
"206 -8 CURVE SMOOTH"
);
}
);
width = 386;
},
{
background = {
paths = (
{
closed = 1;
nodes = (
"245 0 LINE",
"245 260 LINE",
"372 260 LINE",
"372 0 LINE",
"522 0 LINE",
"522 501 LINE",
"622 501 LINE",
"622 616 LINE",
"-40 616 LINE",
"-40 501 LINE",
"372 501 LINE",
"372 375 LINE",
"213 375 LINE",
"111 440 LINE",
"68 440 OFFCURVE",
"32 407 OFFCURVE",
"17 357 CURVE",
"28 308 OFFCURVE",
"59 273 OFFCURVE",
"95 252 CURVE",
"95 0 LINE"
);
}
);
};
guideLines = (
{
position = "{221, 67}";
showMeasurement = 1;
}
);
layerId = "3B941797-445E-47EC-B390-6B41EAFC9AF2";
paths = (
{
closed = 1;
nodes = (
"178 0 LINE",
"178 189 LINE",
"354 189 LINE",
"354 0 LINE",
"463 0 LINE",
"463 363 LINE",
"535 363 LINE",
"535 447 LINE",
"-29 447 LINE",
"-29 363 LINE",
"354 363 LINE",
"354 272 LINE",
"154 272 LINE",
"80 319 LINE",
"49 319 OFFCURVE",
"23 295 OFFCURVE",
"12 259 CURVE",
"20 223 OFFCURVE",
"43 198 OFFCURVE",
"69 183 CURVE",
"69 0 LINE"
);
},
{
closed = 1;
nodes = (
"299 -7 OFFCURVE",
"321 16 OFFCURVE",
"321 49 CURVE SMOOTH",
"321 81 OFFCURVE",
"299 104 OFFCURVE",
"266 104 CURVE SMOOTH",
"233 104 OFFCURVE",
"210 81 OFFCURVE",
"210 49 CURVE SMOOTH",
"210 16 OFFCURVE",
"233 -7 OFFCURVE",
"266 -7 CURVE SMOOTH"
);
}
);
width = 506;
}
);
unicode = 0A5B;
},
{
color = -1;
glyphname = grRRA;
lastChange = "2016-02-26 16:05:11 +0000";
layers = (
{
anchors = (
{
name = bottom;
position = "{219, 0}";
},
{
name = top;
position = "{326, 439}";
}
);
background = {
paths = (
{
closed = 1;
nodes = (
"233 0 OFFCURVE",
"241 4 OFFCURVE",
"248 10 CURVE",
"176 59 OFFCURVE",
"120 99 OFFCURVE",
"72 171 CURVE",
"68 163 LINE",
"132 123 OFFCURVE",
"207 107 OFFCURVE",
"282 107 CURVE SMOOTH",
"431 107 OFFCURVE",
"516 176 OFFCURVE",
"516 266 CURVE SMOOTH",
"516 356 OFFCURVE",
"431 425 OFFCURVE",
"237 425 CURVE SMOOTH",
"121 425 OFFCURVE",
"111 410 OFFCURVE",
"111 400 CURVE SMOOTH",
"111 397 OFFCURVE",
"111 394 OFFCURVE",
"112 391 CURVE",
"141 384 OFFCURVE",
"197 379 OFFCURVE",
"251 379 CURVE SMOOTH",
"301 379 OFFCURVE",
"331 383 OFFCURVE",
"382 391 CURVE",
"450 368 OFFCURVE",
"483 326 OFFCURVE",
"483 266 CURVE SMOOTH",
"483 206 OFFCURVE",
"436 127 OFFCURVE",
"248 127 CURVE",
"184 144 OFFCURVE",
"116 154 OFFCURVE",
"52 189 CURVE",
"44 177 LINE",
"92 97 OFFCURVE",
"151 45 OFFCURVE",
"224 -2 CURVE"
);
},
{
closed = 1;
nodes = (
"509 6 OFFCURVE",
"521 11 OFFCURVE",
"527 17 CURVE",
"468 54 OFFCURVE",
"426 98 OFFCURVE",
"393 141 CURVE",
"369 134 LINE",
"403 87 OFFCURVE",
"448 39 OFFCURVE",
"501 5 CURVE"
);
},
{
closed = 1;
nodes = (
"616 580 LINE",
"616 605 LINE",
"-40 605 LINE",
"-40 580 LINE"
);
},
{
closed = 1;
nodes = (
"437 460 OFFCURVE",
"458 512 OFFCURVE",
"469 594 CURVE",
"431 594 LINE",
"426 515 OFFCURVE",
"407 467 OFFCURVE",
"367 407 CURVE",
"387 399 LINE"
);
}
);
};
guideLines = (
{
angle = 180;
position = "{265, 266}";
}
);
layerId = "F84B2E81-E30C-4BCF-B175-C3D49BDC99D5";
paths = (
{
closed = 1;
nodes = (
"169 0 OFFCURVE",
"175 3 OFFCURVE",
"180 7 CURVE",
"128 43 OFFCURVE",
"87 83 OFFCURVE",
"52 136 CURVE",
"49 130 LINE",
"96 100 OFFCURVE",
"154 78 OFFCURVE",
"204 78 CURVE SMOOTH",
"312 78 OFFCURVE",
"374 128 OFFCURVE",
"374 193 CURVE SMOOTH",
"374 258 OFFCURVE",
"312 308 OFFCURVE",
"172 308 CURVE SMOOTH",
"88 308 OFFCURVE",
"80 297 OFFCURVE",
"80 290 CURVE SMOOTH",
"80 288 OFFCURVE",
"80 286 OFFCURVE",
"81 283 CURVE",
"102 278 OFFCURVE",
"143 275 OFFCURVE",
"182 275 CURVE SMOOTH",
"218 275 OFFCURVE",
"240 278 OFFCURVE",
"277 283 CURVE",
"326 267 OFFCURVE",
"350 236 OFFCURVE",
"350 193 CURVE SMOOTH",
"350 149 OFFCURVE",
"316 92 OFFCURVE",
"180 92 CURVE",
"133 104 OFFCURVE",
"84 123 OFFCURVE",
"38 149 CURVE",
"32 140 LINE",
"65 82 OFFCURVE",
"109 33 OFFCURVE",
"162 -1 CURVE"
);
},
{
closed = 1;
nodes = (
"369 4 OFFCURVE",
"378 8 OFFCURVE",
"382 12 CURVE",
"339 39 OFFCURVE",
"309 71 OFFCURVE",
"285 102 CURVE",
"268 97 LINE",
"292 63 OFFCURVE",
"325 28 OFFCURVE",
"363 4 CURVE"
);
},
{
closed = 1;
nodes = (
"447 421 LINE",
"447 439 LINE",
"-29 439 LINE",
"-29 421 LINE"
);
},
{
closed = 1;
nodes = (
"317 334 OFFCURVE",
"332 371 OFFCURVE",
"340 431 CURVE",
"312 431 LINE",
"309 373 OFFCURVE",
"295 339 OFFCURVE",
"266 295 CURVE",
"281 289 LINE"
);
}
);
width = 418;
},
{
anchors = (
{
name = bottom;
position = "{244, 0}";
},
{
name = top;
position = "{328, 447}";
}
);
background = {
paths = (
{
closed = 1;
nodes = (
"205 0 OFFCURVE",
"256 17 OFFCURVE",
"279 38 CURVE",
"237 80 OFFCURVE",
"192 123 OFFCURVE",
"166 164 CURVE",
"158 134 LINE",
"211 107 OFFCURVE",
"264 98 OFFCURVE",
"319 98 CURVE SMOOTH",
"477 98 OFFCURVE",
"586 153 OFFCURVE",
"586 252 CURVE SMOOTH",
"586 351 OFFCURVE",
"472 437 OFFCURVE",
"291 437 CURVE SMOOTH",
"167 437 OFFCURVE",
"123 400 OFFCURVE",
"123 363 CURVE SMOOTH",
"123 326 OFFCURVE",
"167 293 OFFCURVE",
"275 293 CURVE SMOOTH",
"332 293 OFFCURVE",
"378 308 OFFCURVE",
"416 323 CURVE",
"430 310 OFFCURVE",
"437 294 OFFCURVE",
"437 277 CURVE SMOOTH",
"437 234 OFFCURVE",
"391 208 OFFCURVE",
"279 208 CURVE",
"205 219 OFFCURVE",
"142 237 OFFCURVE",
"67 269 CURVE",
"21 175 LINE",
"69 95 OFFCURVE",
"120 34 OFFCURVE",
"167 -2 CURVE"
);
},
{
closed = 1;
nodes = (
"500 6 OFFCURVE",
"540 20 OFFCURVE",
"569 45 CURVE",
"525 85 OFFCURVE",
"487 128 OFFCURVE",
"459 170 CURVE",
"341 147 LINE",
"375 82 OFFCURVE",
"415 38 OFFCURVE",
"455 4 CURVE"
);
},
{
closed = 1;
nodes = (
"655 501 LINE",
"655 616 LINE",
"-21 616 LINE",
"-21 501 LINE"
);
},
{
closed = 1;
nodes = (
"500 403 OFFCURVE",
"524 477 OFFCURVE",
"527 524 CURVE",
"377 524 LINE",
"372 490 OFFCURVE",
"359 437 OFFCURVE",
"351 411 CURVE",
"464 366 LINE"
);
}
);
};
layerId = "3B941797-445E-47EC-B390-6B41EAFC9AF2";
paths = (
{
closed = 1;
nodes = (
"149 -6 OFFCURVE",
"186 7 OFFCURVE",
"202 22 CURVE",
"172 52 OFFCURVE",
"139 83 OFFCURVE",
"120 113 CURVE",
"115 91 LINE",
"153 72 OFFCURVE",
"191 65 OFFCURVE",
"231 65 CURVE SMOOTH",
"346 65 OFFCURVE",
"425 105 OFFCURVE",
"425 177 CURVE SMOOTH",
"425 249 OFFCURVE",
"342 317 OFFCURVE",
"210 317 CURVE SMOOTH",
"123 317 OFFCURVE",
"89 294 OFFCURVE",
"89 259 CURVE SMOOTH",
"89 249 OFFCURVE",
"91 241 OFFCURVE",
"94 232 CURVE",
"125 218 OFFCURVE",
"159 212 OFFCURVE",
"198 212 CURVE SMOOTH",
"239 212 OFFCURVE",
"275 223 OFFCURVE",
"302 234 CURVE",
"310 226 OFFCURVE",
"317 207 OFFCURVE",
"317 195 CURVE SMOOTH",
"317 164 OFFCURVE",
"283 145 OFFCURVE",
"202 145 CURVE",
"149 154 OFFCURVE",
"103 167 OFFCURVE",
"49 189 CURVE",
"15 121 LINE",
"50 63 OFFCURVE",
"87 19 OFFCURVE",
"121 -7 CURVE"
);
},
{
closed = 1;
nodes = (
"363 -2 OFFCURVE",
"392 8 OFFCURVE",
"413 26 CURVE",
"381 55 OFFCURVE",
"353 86 OFFCURVE",
"333 117 CURVE",
"247 100 LINE",
"272 53 OFFCURVE",
"301 21 OFFCURVE",
"330 -4 CURVE"
);
},
{
closed = 1;
nodes = (
"472 363 LINE",
"472 447 LINE",
"-29 447 LINE",
"-29 363 LINE"
);
},
{
closed = 1;
nodes = (
"363 292 OFFCURVE",
"380 346 OFFCURVE",
"382 380 CURVE",
"273 380 LINE",
"270 355 OFFCURVE",
"260 317 OFFCURVE",
"254 298 CURVE",
"336 265 LINE"
);
}
);
width = 443;
},
{
associatedMasterId = "F84B2E81-E30C-4BCF-B175-C3D49BDC99D5";
background = {
paths = (
{
closed = 1;
nodes = (
"412 107 OFFCURVE",
"529 178 OFFCURVE",
"529 268 CURVE SMOOTH",
"529 349 OFFCURVE",
"440 425 OFFCURVE",
"242 425 CURVE SMOOTH",
"118 423 OFFCURVE",
"108 413 OFFCURVE",
"108 405 CURVE SMOOTH",
"108 403 OFFCURVE",
"108 400 OFFCURVE",
"109 398 CURVE",
"138 392 OFFCURVE",
"210 388 OFFCURVE",
"264 388 CURVE SMOOTH",
"314 388 OFFCURVE",
"344 391 OFFCURVE",
"384 397 CURVE",
"462 368 OFFCURVE",
"496 328 OFFCURVE",
"496 272 CURVE SMOOTH",
"496 194 OFFCURVE",
"399 123 OFFCURVE",
"233 123 CURVE",
"174 139 OFFCURVE",
"90 167 OFFCURVE",
"23 196 CURVE",
"15 186 LINE",
"121 135 OFFCURVE",
"194 107 OFFCURVE",
"266 107 CURVE SMOOTH"
);
},
{
closed = 1;
nodes = (
"443 462 OFFCURVE",
"465 531 OFFCURVE",
"474 605 CURVE",
"436 605 LINE",
"433 530 OFFCURVE",
"415 471 OFFCURVE",
"372 411 CURVE",
"391 404 LINE"
);
},
{
closed = 1;
nodes = (
"666 601 LINE",
"666 626 LINE",
"-20 626 LINE",
"-20 601 LINE"
);
}
);
};
layerId = "76398C20-B4F6-40A6-8F59-4E0F43956061";
name = "Draft 1";
paths = (
{
closed = 1;
nodes = (
"208 0 OFFCURVE",
"216 4 OFFCURVE",
"223 10 CURVE",
"151 59 OFFCURVE",
"95 117 OFFCURVE",
"47 189 CURVE",
"44 184 LINE",
"106 147 OFFCURVE",
"228 120 OFFCURVE",
"300 120 CURVE SMOOTH",
"431 120 OFFCURVE",
"529 180 OFFCURVE",
"529 270 CURVE SMOOTH",
"529 333 OFFCURVE",
"446 425 OFFCURVE",
"251 425 CURVE SMOOTH",
"127 425 OFFCURVE",
"117 410 OFFCURVE",
"117 400 CURVE SMOOTH",
"117 397 OFFCURVE",
"117 394 OFFCURVE",
"118 391 CURVE",
"147 384 OFFCURVE",
"219 379 OFFCURVE",
"273 379 CURVE SMOOTH",
"323 379 OFFCURVE",
"353 383 OFFCURVE",
"394 391 CURVE",
"462 356 OFFCURVE",
"496 318 OFFCURVE",
"496 270 CURVE SMOOTH",
"496 199 OFFCURVE",
"402 138 OFFCURVE",
"272 140 CURVE",
"193 150 OFFCURVE",
"97 170 OFFCURVE",
"26 205 CURVE",
"19 195 LINE",
"67 115 OFFCURVE",
"126 45 OFFCURVE",
"199 -2 CURVE"
);
},
{
closed = 1;
nodes = (
"522 6 OFFCURVE",
"534 11 OFFCURVE",
"540 17 CURVE",
"479 56 OFFCURVE",
"436 101 OFFCURVE",
"402 146 CURVE",
"374 145 LINE",
"409 95 OFFCURVE",
"457 42 OFFCURVE",
"514 5 CURVE"
);
},
{
closed = 1;
nodes = (
"666 601 LINE",
"666 626 LINE",
"-20 626 LINE",
"-20 601 LINE"
);
},
{
closed = 1;
nodes = (
"443 450 OFFCURVE",
"465 514 OFFCURVE",
"474 605 CURVE",
"436 605 LINE",
"433 513 OFFCURVE",
"415 461 OFFCURVE",
"384 404 CURVE",
"409 396 LINE"
);
}
);
width = 600;
}
);
unicode = 0A5C;
},
{
color = -1;
glyphname = grPHxA;
lastChange = "2016-02-26 16:05:11 +0000";
layers = (
{
anchors = (
{
name = bottom;
position = "{218, 0}";
},
{
name = top;
position = "{312, 439}";
}
);
layerId = "F84B2E81-E30C-4BCF-B175-C3D49BDC99D5";
paths = (
{
closed = 1;
nodes = (
"336 -4 OFFCURVE",
"373 40 OFFCURVE",
"373 89 CURVE SMOOTH",
"373 143 OFFCURVE",
"336 186 OFFCURVE",
"262 186 CURVE SMOOTH",
"201 186 OFFCURVE",
"146 155 OFFCURVE",
"88 109 CURVE",
"97 96 LINE",
"157 139 OFFCURVE",
"207 168 OFFCURVE",
"262 168 CURVE SMOOTH",
"289 168 OFFCURVE",
"308 166 OFFCURVE",
"334 155 CURVE",
"345 136 OFFCURVE",
"352 113 OFFCURVE",
"352 89 CURVE SMOOTH",
"352 44 OFFCURVE",
"320 15 OFFCURVE",
"262 15 CURVE SMOOTH",
"141 15 OFFCURVE",
"57 119 OFFCURVE",
"57 206 CURVE SMOOTH",
"57 257 OFFCURVE",
"88 282 OFFCURVE",
"152 282 CURVE SMOOTH",
"323 282 LINE",
"323 426 LINE",
"302 426 LINE",
"302 300 LINE",
"144 300 LINE SMOOTH",
"75 300 OFFCURVE",
"36 268 OFFCURVE",
"36 207 CURVE SMOOTH",
"36 109 OFFCURVE",
"136 -4 OFFCURVE",
"262 -4 CURVE SMOOTH"
);
},
{
closed = 1;
nodes = (
"52 -8 OFFCURVE",
"62 1 OFFCURVE",
"62 13 CURVE SMOOTH",
"62 25 OFFCURVE",
"52 34 OFFCURVE",
"41 34 CURVE SMOOTH",
"30 34 OFFCURVE",
"20 25 OFFCURVE",
"20 13 CURVE SMOOTH",
"20 1 OFFCURVE",
"30 -8 OFFCURVE",
"41 -8 CURVE SMOOTH"
);
},
{
closed = 1;
nodes = (
"444 421 LINE",
"444 439 LINE",
"-29 439 LINE",
"-29 421 LINE"
);
}
);
width = 415;
},
{
anchors = (
{
name = bottom;
position = "{290, 0}";
},
{
name = top;
position = "{354, 447}";
}
);
background = {
paths = (
{
closed = 1;
nodes = (
"599 -6 OFFCURVE",
"661 55 OFFCURVE",
"661 127 CURVE SMOOTH",
"661 210 OFFCURVE",
"583 278 OFFCURVE",
"459 278 CURVE SMOOTH",
"385 278 OFFCURVE",
"329 257 OFFCURVE",
"261 199 CURVE",
"310 112 LINE",
"357 154 OFFCURVE",
"401 172 OFFCURVE",
"450 172 CURVE SMOOTH",
"470 172 OFFCURVE",
"491 170 OFFCURVE",
"505 166 CURVE",
"508 158 OFFCURVE",
"511 149 OFFCURVE",
"511 137 CURVE SMOOTH",
"511 111 OFFCURVE",
"490 93 OFFCURVE",
"449 93 CURVE SMOOTH",
"329 93 OFFCURVE",
"269 151 OFFCURVE",
"269 246 CURVE SMOOTH",
"269 309 OFFCURVE",
"310 339 OFFCURVE",
"395 339 CURVE SMOOTH",
"563 339 LINE",
"563 546 LINE",
"413 546 LINE",
"413 439 LINE",
"326 439 LINE SMOOTH",
"181 439 OFFCURVE",
"114 366 OFFCURVE",
"114 275 CURVE SMOOTH",
"114 137 OFFCURVE",
"270 -6 OFFCURVE",
"469 -6 CURVE SMOOTH"
);
},
{
closed = 1;
nodes = (
"726 501 LINE",
"726 616 LINE",
"46 616 LINE",
"46 501 LINE"
);
}
);
};
layerId = "3B941797-445E-47EC-B390-6B41EAFC9AF2";
paths = (
{
closed = 1;
nodes = (
"434 -4 OFFCURVE",
"479 40 OFFCURVE",
"479 92 CURVE SMOOTH",
"479 152 OFFCURVE",
"423 202 OFFCURVE",
"333 202 CURVE SMOOTH",
"279 202 OFFCURVE",
"239 186 OFFCURVE",
"189 144 CURVE",
"225 81 LINE",
"259 112 OFFCURVE",
"291 125 OFFCURVE",
"326 125 CURVE SMOOTH",
"341 125 OFFCURVE",
"356 123 OFFCURVE",
"366 120 CURVE",
"368 115 OFFCURVE",
"370 108 OFFCURVE",
"370 99 CURVE SMOOTH",
"370 80 OFFCURVE",
"355 67 OFFCURVE",
"326 67 CURVE SMOOTH",
"239 67 OFFCURVE",
"195 109 OFFCURVE",
"195 178 CURVE SMOOTH",
"195 224 OFFCURVE",
"225 246 OFFCURVE",
"286 246 CURVE SMOOTH",
"408 246 LINE",
"408 396 LINE",
"299 396 LINE",
"299 318 LINE",
"236 318 LINE SMOOTH",
"131 318 OFFCURVE",
"83 265 OFFCURVE",
"83 199 CURVE SMOOTH",
"83 99 OFFCURVE",
"196 -4 OFFCURVE",
"340 -4 CURVE SMOOTH"
);
},
{
closed = 1;
nodes = (
"79 -7 OFFCURVE",
"102 16 OFFCURVE",
"102 49 CURVE SMOOTH",
"102 81 OFFCURVE",
"79 104 OFFCURVE",
"46 104 CURVE SMOOTH",
"14 104 OFFCURVE",
"-9 81 OFFCURVE",
"-9 49 CURVE SMOOTH",
"-9 16 OFFCURVE",
"14 -7 OFFCURVE",
"46 -7 CURVE SMOOTH"
);
},
{
closed = 1;
nodes = (
"526 363 LINE",
"526 447 LINE",
"-29 447 LINE",
"-29 363 LINE"
);
}
);
width = 497;
}
);
unicode = 0A5E;
},
{
color = -1;
glyphname = grIri;
lastChange = "2016-02-26 16:05:11 +0000";
layers = (
{
anchors = (
{
name = top;
position = "{315, 439}";
}
);
layerId = "F84B2E81-E30C-4BCF-B175-C3D49BDC99D5";
paths = (
{
closed = 1;
nodes = (
"265 -4 OFFCURVE",
"318 17 OFFCURVE",
"347 56 CURVE",
"334 65 LINE",
"292 36 OFFCURVE",
"248 17 OFFCURVE",
"200 9 CURVE",
"130 42 OFFCURVE",
"73 100 OFFCURVE",
"73 162 CURVE SMOOTH",
"73 211 OFFCURVE",
"103 236 OFFCURVE",
"161 236 CURVE SMOOTH",
"326 236 LINE",
"326 421 LINE",
"400 421 LINE",
"400 439 LINE",
"-29 439 LINE",
"-29 421 LINE",
"41 421 LINE",
"46 339 OFFCURVE",
"75 293 OFFCURVE",
"123 253 CURVE",
"123 251 LINE",
"84 244 OFFCURVE",
"51 216 OFFCURVE",
"51 166 CURVE SMOOTH",
"51 89 OFFCURVE",
"151 -4 OFFCURVE",
"215 -4 CURVE SMOOTH"
);
},
{
closed = 1;
nodes = (
"88 306 OFFCURVE",
"69 351 OFFCURVE",
"65 421 CURVE",
"304 421 LINE",
"304 254 LINE",
"143 254 LINE"
);
}
);
width = 371;
},
{
anchors = (
{
name = top;
position = "{437, 616}";
}
);
associatedMasterId = "3B941797-445E-47EC-B390-6B41EAFC9AF2";
background = {
paths = (
{
closed = 1;
nodes = (
"413 0 OFFCURVE",
"489 30 OFFCURVE",
"542 112 CURVE",
"462 181 LINE",
"364 133 OFFCURVE",
"309 113 OFFCURVE",
"242 111 CURVE",
"219 119 OFFCURVE",
"194 150 OFFCURVE",
"194 189 CURVE SMOOTH",
"194 234 OFFCURVE",
"227 254 OFFCURVE",
"273 254 CURVE SMOOTH",
"512 254 LINE",
"512 501 LINE",
"602 501 LINE",
"602 616 LINE",
"-20 616 LINE",
"-20 501 LINE",
"39 501 LINE",
"42 426 OFFCURVE",
"75 378 OFFCURVE",
"123 349 CURVE",
"123 343 LINE",
"63 319 OFFCURVE",
"44 270 OFFCURVE",
"44 222 CURVE SMOOTH",
"44 86 OFFCURVE",
"198 0 OFFCURVE",
"325 0 CURVE SMOOTH"
);
},
{
closed = 1;
nodes = (
"241 369 OFFCURVE",
"192 393 OFFCURVE",
"189 501 CURVE",
"362 501 LINE",
"362 369 LINE",
"303 369 LINE SMOOTH"
);
}
);
};
layerId = "C39D4193-2968-438B-9AF7-7144BFEF8E14";
name = Draft1;
paths = (
{
closed = 1;
nodes = (
"413 0 OFFCURVE",
"489 30 OFFCURVE",
"542 112 CURVE",
"462 181 LINE",
"364 133 OFFCURVE",
"309 113 OFFCURVE",
"242 111 CURVE",
"219 119 OFFCURVE",
"194 150 OFFCURVE",
"194 189 CURVE SMOOTH",
"194 234 OFFCURVE",
"227 254 OFFCURVE",
"273 254 CURVE SMOOTH",
"512 254 LINE",
"512 501 LINE",
"602 501 LINE",
"602 616 LINE",
"-20 616 LINE",
"-20 501 LINE",
"39 501 LINE",
"42 426 OFFCURVE",
"75 378 OFFCURVE",
"123 349 CURVE",
"123 343 LINE",
"63 319 OFFCURVE",
"44 270 OFFCURVE",
"44 222 CURVE SMOOTH",
"44 86 OFFCURVE",
"198 0 OFFCURVE",
"325 0 CURVE SMOOTH"
);
},
{
closed = 1;
nodes = (
"241 369 OFFCURVE",
"192 393 OFFCURVE",
"189 501 CURVE",
"362 501 LINE",
"362 369 LINE",
"303 369 LINE SMOOTH"
);
}
);
width = 582;
},
{
anchors = (
{
name = top;
position = "{324, 447}";
}
);
guideLines = (
{
angle = 90;
position = "{54, 61}";
},
{
angle = 90;
position = "{204, 61}";
}
);
layerId = "3B941797-445E-47EC-B390-6B41EAFC9AF2";
paths = (
{
closed = 1;
nodes = (
"307 0 OFFCURVE",
"362 22 OFFCURVE",
"400 81 CURVE",
"342 131 LINE",
"271 96 OFFCURVE",
"231 80 OFFCURVE",
"154 80 CURVE",
"150 99 OFFCURVE",
"148 112 OFFCURVE",
"148 130 CURVE SMOOTH",
"148 170 OFFCURVE",
"172 184 OFFCURVE",
"205 184 CURVE SMOOTH",
"378 184 LINE",
"378 363 LINE",
"451 363 LINE",
"451 447 LINE",
"-29 447 LINE",
"-29 363 LINE",
"36 363 LINE",
"38 309 OFFCURVE",
"62 274 OFFCURVE",
"96 253 CURVE",
"96 249 LINE",
"53 231 OFFCURVE",
"39 196 OFFCURVE",
"39 161 CURVE SMOOTH",
"39 62 OFFCURVE",
"151 0 OFFCURVE",
"243 0 CURVE SMOOTH"
);
},
{
closed = 1;
nodes = (
"156 295 OFFCURVE",
"148 323 OFFCURVE",
"148 363 CURVE",
"270 363 LINE",
"270 268 LINE",
"170 268 LINE"
);
}
);
width = 422;
},
{
anchors = (
{
name = top;
position = "{398, 605}";
}
);
associatedMasterId = "F84B2E81-E30C-4BCF-B175-C3D49BDC99D5";
background = {
paths = (
{
closed = 1;
nodes = (
"330 -5 OFFCURVE",
"397 17 OFFCURVE",
"442 77 CURVE",
"424 90 LINE",
"371 46 OFFCURVE",
"306 15 OFFCURVE",
"233 14 CURVE",
"143 58 OFFCURVE",
"84 138 OFFCURVE",
"84 221 CURVE SMOOTH",
"84 291 OFFCURVE",
"125 325 OFFCURVE",
"205 325 CURVE SMOOTH",
"413 325 LINE",
"413 580 LINE",
"503 580 LINE",
"503 605 LINE",
"-20 605 LINE",
"-20 580 LINE",
"40 580 LINE",
"47 467 OFFCURVE",
"86 404 OFFCURVE",
"153 349 CURVE",
"152 346 LINE",
"99 336 OFFCURVE",
"54 298 OFFCURVE",
"54 229 CURVE SMOOTH",
"54 123 OFFCURVE",
"164 -5 OFFCURVE",
"272 -5 CURVE SMOOTH"
);
},
{
closed = 1;
nodes = (
"104 422 OFFCURVE",
"78 484 OFFCURVE",
"73 580 CURVE",
"383 580 LINE",
"383 350 LINE",
"180 350 LINE"
);
}
);
};
layerId = "4867108F-513C-41D8-8C06-C5E0EEC216A4";
name = "Draft 2";
paths = (
{
closed = 1;
nodes = (
"330 -5 OFFCURVE",
"397 17 OFFCURVE",
"442 77 CURVE",
"424 90 LINE",
"371 46 OFFCURVE",
"306 15 OFFCURVE",
"233 14 CURVE",
"143 58 OFFCURVE",
"84 138 OFFCURVE",
"84 221 CURVE SMOOTH",
"84 291 OFFCURVE",
"125 325 OFFCURVE",
"205 325 CURVE SMOOTH",
"413 325 LINE",
"413 580 LINE",
"503 580 LINE",
"503 605 LINE",
"-20 605 LINE",
"-20 580 LINE",
"40 580 LINE",
"47 467 OFFCURVE",
"86 404 OFFCURVE",
"153 349 CURVE",
"152 346 LINE",
"99 336 OFFCURVE",
"54 298 OFFCURVE",
"54 229 CURVE SMOOTH",
"54 123 OFFCURVE",
"164 -5 OFFCURVE",
"272 -5 CURVE SMOOTH"
);
},
{
closed = 1;
nodes = (
"104 422 OFFCURVE",
"78 484 OFFCURVE",
"73 580 CURVE",
"383 580 LINE",
"383 350 LINE",
"180 350 LINE"
);
}
);
width = 483;
}
);
unicode = 0A72;
},
{
color = -1;
glyphname = grUra;
lastChange = "2016-02-26 16:05:11 +0000";
layers = (
{
anchors = (
{
name = bottom;
position = "{253, 0}";
}
);
layerId = "3B941797-445E-47EC-B390-6B41EAFC9AF2";
paths = (
{
closed = 1;
nodes = (
"388 -4 OFFCURVE",
"438 54 OFFCURVE",
"438 119 CURVE SMOOTH",
"438 179 OFFCURVE",
"398 231 OFFCURVE",
"348 257 CURVE",
"300 214 LINE",
"317 195 OFFCURVE",
"326 170 OFFCURVE",
"326 147 CURVE SMOOTH",
"326 109 OFFCURVE",
"306 80 OFFCURVE",
"196 80 CURVE",
"162 149 OFFCURVE",
"145 236 OFFCURVE",
"145 316 CURVE SMOOTH",
"145 460 OFFCURVE",
"186 547 OFFCURVE",
"276 547 CURVE SMOOTH",
"302 547 OFFCURVE",
"327 539 OFFCURVE",
"349 529 CURVE",
"357 497 OFFCURVE",
"362 462 OFFCURVE",
"362 425 CURVE",
"471 425 LINE",
"456 565 OFFCURVE",
"360 623 OFFCURVE",
"257 623 CURVE SMOOTH",
"114 623 OFFCURVE",
"32 494 OFFCURVE",
"32 322 CURVE SMOOTH",
"32 161 OFFCURVE",
"115 -4 OFFCURVE",
"289 -4 CURVE SMOOTH"
);
},
{
closed = 1;
nodes = (
"263 194 LINE SMOOTH",
"406 195 OFFCURVE",
"471 281 OFFCURVE",
"471 376 CURVE",
"363 376 LINE",
"363 327 OFFCURVE",
"346 277 OFFCURVE",
"263 277 CURVE SMOOTH",
"112 277 LINE",
"112 194 LINE"
);
},
{
closed = 1;
nodes = (
"527 363 LINE",
"527 447 LINE",
"-29 447 LINE",
"-29 363 LINE"
);
}
);
width = 498;
},
{
anchors = (
{
name = bottom;
position = "{236, 0}";
}
);
guideLines = (
{
angle = 90;
position = "{329, 701}";
showMeasurement = 1;
}
);
layerId = "F84B2E81-E30C-4BCF-B175-C3D49BDC99D5";
paths = (
{
closed = 1;
nodes = (
"307 -4 OFFCURVE",
"390 57 OFFCURVE",
"390 153 CURVE SMOOTH",
"390 202 OFFCURVE",
"370 249 OFFCURVE",
"328 290 CURVE",
"312 284 LINE",
"347 253 OFFCURVE",
"368 208 OFFCURVE",
"368 159 CURVE SMOOTH",
"368 67 OFFCURVE",
"287 12 OFFCURVE",
"204 11 CURVE",
"114 54 OFFCURVE",
"67 180 OFFCURVE",
"67 310 CURVE SMOOTH",
"67 467 OFFCURVE",
"120 594 OFFCURVE",
"260 594 CURVE SMOOTH",
"311 594 OFFCURVE",
"352 574 OFFCURVE",
"384 541 CURVE",
"397 508 OFFCURVE",
"402 477 OFFCURVE",
"402 436 CURVE",
"423 436 LINE",
"423 551 OFFCURVE",
"349 612 OFFCURVE",
"255 612 CURVE SMOOTH",
"102 612 OFFCURVE",
"44 473 OFFCURVE",
"44 318 CURVE SMOOTH",
"44 126 OFFCURVE",
"145 -4 OFFCURVE",
"220 -4 CURVE SMOOTH"
);
},
{
closed = 1;
nodes = (
"220 254 LINE SMOOTH",
"361 254 OFFCURVE",
"416 328 OFFCURVE",
"423 423 CURVE",
"402 423 LINE",
"394 334 OFFCURVE",
"342 271 OFFCURVE",
"220 271 CURVE SMOOTH",
"64 271 LINE",
"64 253 LINE"
);
},
{
closed = 1;
nodes = (
"481 421 LINE",
"481 439 LINE",
"-29 439 LINE",
"-29 421 LINE"
);
}
);
width = 452;
visible = 1;
},
{
anchors = (
{
name = bottom;
position = "{346, 0}";
}
);
associatedMasterId = "3B941797-445E-47EC-B390-6B41EAFC9AF2";
background = {
paths = (
{
closed = 1;
nodes = (
"503 -16 OFFCURVE",
"594 80 OFFCURVE",
"594 195 CURVE SMOOTH",
"594 268 OFFCURVE",
"541 339 OFFCURVE",
"475 377 CURVE",
"407 313 LINE",
"434 285 OFFCURVE",
"444 256 OFFCURVE",
"444 215 CURVE SMOOTH",
"444 145 OFFCURVE",
"390 100 OFFCURVE",
"238 100 CURVE",
"215 170 OFFCURVE",
"200 265 OFFCURVE",
"200 365 CURVE SMOOTH",
"200 652 OFFCURVE",
"316 715 OFFCURVE",
"409 715 CURVE SMOOTH",
"434 715 OFFCURVE",
"458 713 OFFCURVE",
"485 708 CURVE",
"491 670 OFFCURVE",
"494 629 OFFCURVE",
"494 589 CURVE",
"644 589 LINE",
"624 726 OFFCURVE",
"524 820 OFFCURVE",
"375 820 CURVE SMOOTH",
"224 820 OFFCURVE",
"51 683 OFFCURVE",
"51 406 CURVE SMOOTH",
"51 156 OFFCURVE",
"161 -16 OFFCURVE",
"366 -16 CURVE SMOOTH"
);
},
{
closed = 1;
nodes = (
"358 288 LINE SMOOTH",
"555 288 OFFCURVE",
"645 408 OFFCURVE",
"645 539 CURVE",
"495 539 LINE",
"495 471 OFFCURVE",
"472 402 OFFCURVE",
"358 402 CURVE SMOOTH",
"150 402 LINE",
"150 287 LINE"
);
},
{
closed = 1;
nodes = (
"697 501 LINE",
"697 616 LINE",
"-20 616 LINE",
"-20 501 LINE"
);
}
);
};
layerId = "D31EF135-8407-4F1C-B6F3-C0CC3A4E917E";
name = "Draft 1";
paths = (
{
closed = 1;
nodes = (
"503 -6 OFFCURVE",
"594 69 OFFCURVE",
"594 181 CURVE SMOOTH",
"594 272 OFFCURVE",
"541 340 OFFCURVE",
"475 377 CURVE",
"407 313 LINE",
"434 286 OFFCURVE",
"444 256 OFFCURVE",
"444 221 CURVE SMOOTH",
"444 155 OFFCURVE",
"395 110 OFFCURVE",
"238 110 CURVE",
"215 170 OFFCURVE",
"200 265 OFFCURVE",
"200 365 CURVE SMOOTH",
"200 652 OFFCURVE",
"316 715 OFFCURVE",
"409 715 CURVE SMOOTH",
"434 715 OFFCURVE",
"458 713 OFFCURVE",
"485 708 CURVE",
"491 670 OFFCURVE",
"494 629 OFFCURVE",
"494 589 CURVE",
"644 589 LINE",
"624 726 OFFCURVE",
"524 820 OFFCURVE",
"375 820 CURVE SMOOTH",
"224 820 OFFCURVE",
"51 683 OFFCURVE",
"51 406 CURVE SMOOTH",
"51 156 OFFCURVE",
"161 -6 OFFCURVE",
"366 -6 CURVE SMOOTH"
);
},
{
closed = 1;
nodes = (
"358 288 LINE SMOOTH",
"555 288 OFFCURVE",
"645 408 OFFCURVE",
"645 539 CURVE",
"495 539 LINE",
"495 471 OFFCURVE",
"472 402 OFFCURVE",
"358 402 CURVE SMOOTH",
"150 402 LINE",
"150 287 LINE"
);
},
{
closed = 1;
nodes = (
"697 501 LINE",
"697 616 LINE",
"-20 616 LINE",
"-20 501 LINE"
);
}
);
width = 677;
},
{
anchors = (
{
name = bottom;
position = "{257, 0}";
}
);
associatedMasterId = "F84B2E81-E30C-4BCF-B175-C3D49BDC99D5";
background = {
anchors = (
{
name = bottom;
position = "{286, 0}";
}
);
paths = (
{
closed = 1;
nodes = (
"394 -5 OFFCURVE",
"510 98 OFFCURVE",
"510 221 CURVE SMOOTH",
"510 303 OFFCURVE",
"483 349 OFFCURVE",
"424 394 CURVE",
"411 386 LINE",
"457 346 OFFCURVE",
"480 301 OFFCURVE",
"480 221 CURVE SMOOTH",
"480 118 OFFCURVE",
"381 15 OFFCURVE",
"217 15 CURVE",
"129 67 OFFCURVE",
"88 182 OFFCURVE",
"88 363 CURVE SMOOTH",
"88 631 OFFCURVE",
"202 775 OFFCURVE",
"368 775 CURVE SMOOTH",
"417 775 OFFCURVE",
"456 756 OFFCURVE",
"489 727 CURVE",
"511 690 OFFCURVE",
"524 641 OFFCURVE",
"527 602 CURVE",
"556 602 LINE",
"544 722 OFFCURVE",
"456 799 OFFCURVE",
"351 799 CURVE SMOOTH",
"193 799 OFFCURVE",
"58 647 OFFCURVE",
"58 363 CURVE SMOOTH",
"58 161 OFFCURVE",
"127 -5 OFFCURVE",
"253 -5 CURVE SMOOTH"
);
},
{
closed = 1;
nodes = (
"276 356 LINE SMOOTH",
"470 357 OFFCURVE",
"546 470 OFFCURVE",
"556 584 CURVE",
"527 584 LINE",
"515 469 OFFCURVE",
"444 380 OFFCURVE",
"276 380 CURVE SMOOTH",
"81 380 LINE",
"81 355 LINE"
);
},
{
closed = 1;
nodes = (
"606 581 LINE",
"606 605 LINE",
"-20 605 LINE",
"-20 581 LINE"
);
}
);
};
layerId = "CBCA4688-FC66-4787-8D28-34006CF8C55D";
name = "Draft 1";
paths = (
{
closed = 1;
nodes = (
"394 -5 OFFCURVE",
"530 82 OFFCURVE",
"530 229 CURVE SMOOTH",
"530 314 OFFCURVE",
"503 361 OFFCURVE",
"444 408 CURVE",
"431 400 LINE",
"477 358 OFFCURVE",
"500 312 OFFCURVE",
"500 229 CURVE SMOOTH",
"500 102 OFFCURVE",
"381 16 OFFCURVE",
"217 16 CURVE",
"129 70 OFFCURVE",
"88 189 OFFCURVE",
"88 376 CURVE SMOOTH",
"88 663 OFFCURVE",
"202 830 OFFCURVE",
"368 830 CURVE SMOOTH",
"428 830 OFFCURVE",
"478 807 OFFCURVE",
"512 776 CURVE",
"538 716 OFFCURVE",
"547 658 OFFCURVE",
"547 601 CURVE",
"576 601 LINE",
"574 771 OFFCURVE",
"481 855 OFFCURVE",
"361 855 CURVE SMOOTH",
"193 855 OFFCURVE",
"58 688 OFFCURVE",
"58 376 CURVE SMOOTH",
"58 167 OFFCURVE",
"127 -5 OFFCURVE",
"253 -5 CURVE SMOOTH"
);
},
{
closed = 1;
nodes = (
"296 369 LINE SMOOTH",
"490 370 OFFCURVE",
"566 472 OFFCURVE",
"576 590 CURVE",
"547 590 LINE",
"535 471 OFFCURVE",
"464 393 OFFCURVE",
"296 393 CURVE SMOOTH",
"81 393 LINE",
"81 368 LINE"
);
},
{
closed = 1;
nodes = (
"626 580 LINE",
"626 605 LINE",
"-20 605 LINE",
"-20 580 LINE"
);
}
);
width = 586;
}
);
unicode = 0A73;
},
{
color = -1;
glyphname = grEkonkar;
lastChange = "2016-02-26 16:05:11 +0000";
layers = (
{
background = {
paths = (
{
closed = 1;
nodes = (
"903 -5 OFFCURVE",
"1018 78 OFFCURVE",
"1018 211 CURVE SMOOTH",
"1018 279 OFFCURVE",
"990 343 OFFCURVE",
"932 400 CURVE",
"911 392 LINE",
"959 349 OFFCURVE",
"988 287 OFFCURVE",
"988 219 CURVE SMOOTH",
"988 92 OFFCURVE",
"876 16 OFFCURVE",
"761 15 CURVE",
"637 75 OFFCURVE",
"573 248 OFFCURVE",
"573 428 CURVE SMOOTH",
"573 647 OFFCURVE",
"675 819 OFFCURVE",
"852 819 CURVE SMOOTH",
"919 819 OFFCURVE",
"978 793 OFFCURVE",
"1049 737 CURVE",
"1057 743 LINE",
"1055 760 OFFCURVE",
"1054 775 OFFCURVE",
"1054 789 CURVE SMOOTH",
"1054 863 OFFCURVE",
"1083 903 OFFCURVE",
"1154 903 CURVE SMOOTH",
"1169 903 OFFCURVE",
"1183 900 OFFCURVE",
"1197 895 CURVE",
"1267 842 LINE",
"1276 849 LINE",
"1230 903 OFFCURVE",
"1194 928 OFFCURVE",
"1143 928 CURVE SMOOTH",
"1078 928 OFFCURVE",
"1034 890 OFFCURVE",
"1034 821 CURVE SMOOTH",
"1034 805 OFFCURVE",
"1035 788 OFFCURVE",
"1039 769 CURVE",
"1037 768 LINE",
"978 817 OFFCURVE",
"918 844 OFFCURVE",
"848 844 CURVE SMOOTH",
"660 844 OFFCURVE",
"541 673 OFFCURVE",
"541 439 CURVE SMOOTH",
"541 174 OFFCURVE",
"680 -5 OFFCURVE",
"783 -5 CURVE SMOOTH"
);
},
{
closed = 1;
nodes = (
"784 350 LINE SMOOTH",
"978 351 OFFCURVE",
"1054 453 OFFCURVE",
"1064 584 CURVE",
"1035 584 LINE",
"1023 460 OFFCURVE",
"952 374 OFFCURVE",
"784 374 CURVE SMOOTH",
"568 374 LINE",
"568 349 LINE"
);
},
{
closed = 1;
nodes = (
"1114 580 LINE",
"1114 605 LINE",
"490 605 LINE",
"490 580 LINE"
);
}
);
};
components = (
{
name = grOne;
}
);
layerId = "F84B2E81-E30C-4BCF-B175-C3D49BDC99D5";
paths = (
{
closed = 1;
nodes = (
"655 -4 OFFCURVE",
"738 57 OFFCURVE",
"738 153 CURVE SMOOTH",
"738 202 OFFCURVE",
"718 249 OFFCURVE",
"676 290 CURVE",
"660 284 LINE",
"695 253 OFFCURVE",
"716 208 OFFCURVE",
"716 159 CURVE SMOOTH",
"716 67 OFFCURVE",
"635 12 OFFCURVE",
"552 11 CURVE",
"462 54 OFFCURVE",
"415 180 OFFCURVE",
"415 310 CURVE SMOOTH",
"415 469 OFFCURVE",
"489 594 OFFCURVE",
"618 594 CURVE SMOOTH",
"659 594 OFFCURVE",
"702 575 OFFCURVE",
"761 534 CURVE",
"768 539 LINE",
"767 550 OFFCURVE",
"766 560 OFFCURVE",
"766 571 CURVE SMOOTH",
"766 624 OFFCURVE",
"787 653 OFFCURVE",
"839 653 CURVE SMOOTH",
"850 653 OFFCURVE",
"860 651 OFFCURVE",
"870 647 CURVE",
"919 610 LINE",
"925 616 LINE",
"892 655 OFFCURVE",
"866 673 OFFCURVE",
"829 673 CURVE SMOOTH",
"778 673 OFFCURVE",
"750 643 OFFCURVE",
"750 596 CURVE SMOOTH",
"750 584 OFFCURVE",
"752 570 OFFCURVE",
"756 555 CURVE",
"755 554 LINE",
"702 592 OFFCURVE",
"658 612 OFFCURVE",
"615 612 CURVE SMOOTH",
"479 612 OFFCURVE",
"392 488 OFFCURVE",
"392 318 CURVE SMOOTH",
"392 126 OFFCURVE",
"493 -4 OFFCURVE",
"568 -4 CURVE SMOOTH"
);
},
{
closed = 1;
nodes = (
"568 254 LINE SMOOTH",
"709 254 OFFCURVE",
"764 328 OFFCURVE",
"771 423 CURVE",
"750 423 LINE",
"742 334 OFFCURVE",
"690 271 OFFCURVE",
"568 271 CURVE SMOOTH",
"412 271 LINE",
"412 253 LINE"
);
},
{
closed = 1;
nodes = (
"808 421 LINE",
"808 439 LINE",
"355 439 LINE",
"355 421 LINE"
);
}
);
width = 787;
},
{
background = {
paths = (
{
closed = 1;
nodes = (
"1121 -6 OFFCURVE",
"1190 75 OFFCURVE",
"1190 164 CURVE SMOOTH",
"1190 247 OFFCURVE",
"1135 319 OFFCURVE",
"1066 355 CURVE",
"1000 295 LINE",
"1023 269 OFFCURVE",
"1035 235 OFFCURVE",
"1035 203 CURVE SMOOTH",
"1035 150 OFFCURVE",
"1008 110 OFFCURVE",
"856 110 CURVE",
"813 193 OFFCURVE",
"786 296 OFFCURVE",
"786 426 CURVE SMOOTH",
"786 644 OFFCURVE",
"866 750 OFFCURVE",
"1001 750 CURVE SMOOTH",
"1056 750 OFFCURVE",
"1104 723 OFFCURVE",
"1162 680 CURVE",
"1218 705 LINE",
"1214 718 OFFCURVE",
"1213 730 OFFCURVE",
"1213 742 CURVE SMOOTH",
"1213 801 OFFCURVE",
"1229 839 OFFCURVE",
"1278 839 CURVE SMOOTH",
"1302 839 OFFCURVE",
"1321 837 OFFCURVE",
"1346 831 CURVE",
"1427 763 LINE",
"1499 816 LINE",
"1415 934 OFFCURVE",
"1344 983 OFFCURVE",
"1255 983 CURVE SMOOTH",
"1170 983 OFFCURVE",
"1133 934 OFFCURVE",
"1133 840 CURVE SMOOTH",
"1133 833 OFFCURVE",
"1133 826 OFFCURVE",
"1133 815 CURVE",
"1130 813 LINE",
"1082 839 OFFCURVE",
"1031 859 OFFCURVE",
"969 859 CURVE SMOOTH",
"784 859 OFFCURVE",
"630 685 OFFCURVE",
"630 434 CURVE SMOOTH",
"630 222 OFFCURVE",
"745 -6 OFFCURVE",
"984 -6 CURVE SMOOTH"
);
},
{
closed = 1;
nodes = (
"949 268 LINE SMOOTH",
"1146 269 OFFCURVE",
"1236 388 OFFCURVE",
"1236 519 CURVE",
"1086 519 LINE",
"1086 451 OFFCURVE",
"1063 382 OFFCURVE",
"949 382 CURVE SMOOTH",
"741 382 LINE",
"741 267 LINE"
);
},
{
closed = 1;
nodes = (
"1288 501 LINE",
"1288 616 LINE",
"571 616 LINE",
"571 501 LINE"
);
}
);
};
components = (
{
name = grOne;
transform = "{1, 0, 0, 1, 15, 0}";
}
);
layerId = "3B941797-445E-47EC-B390-6B41EAFC9AF2";
paths = (
{
closed = 1;
nodes = (
"827 -4 OFFCURVE",
"877 54 OFFCURVE",
"877 119 CURVE SMOOTH",
"877 179 OFFCURVE",
"837 231 OFFCURVE",
"787 257 CURVE",
"740 214 LINE",
"756 195 OFFCURVE",
"765 170 OFFCURVE",
"765 147 CURVE SMOOTH",
"765 109 OFFCURVE",
"745 80 OFFCURVE",
"635 80 CURVE",
"604 140 OFFCURVE",
"584 215 OFFCURVE",
"584 309 CURVE SMOOTH",
"584 467 OFFCURVE",
"645 544 OFFCURVE",
"732 544 CURVE SMOOTH",
"779 544 OFFCURVE",
"813 524 OFFCURVE",
"857 493 CURVE",
"898 511 LINE",
"893 525 OFFCURVE",
"891 537 OFFCURVE",
"891 548 CURVE SMOOTH",
"891 585 OFFCURVE",
"913 609 OFFCURVE",
"948 609 CURVE SMOOTH",
"958 609 OFFCURVE",
"968 608 OFFCURVE",
"982 603 CURVE",
"1040 553 LINE",
"1085 587 LINE",
"1039 674 OFFCURVE",
"989 713 OFFCURVE",
"924 713 CURVE SMOOTH",
"863 713 OFFCURVE",
"832 678 OFFCURVE",
"832 623 CURVE SMOOTH",
"832 613 OFFCURVE",
"834 602 OFFCURVE",
"836 591 CURVE",
"834 589 LINE",
"799 608 OFFCURVE",
"763 623 OFFCURVE",
"712 623 CURVE SMOOTH",
"591 623 OFFCURVE",
"471 518 OFFCURVE",
"471 315 CURVE SMOOTH",
"471 161 OFFCURVE",
"555 -4 OFFCURVE",
"728 -4 CURVE SMOOTH"
);
},
{
closed = 1;
nodes = (
"703 194 LINE SMOOTH",
"845 195 OFFCURVE",
"911 281 OFFCURVE",
"911 376 CURVE",
"802 376 LINE",
"802 327 OFFCURVE",
"785 277 OFFCURVE",
"703 277 CURVE SMOOTH",
"552 277 LINE",
"552 194 LINE"
);
},
{
closed = 1;
nodes = (
"948 363 LINE",
"948 447 LINE",
"428 447 LINE",
"428 363 LINE"
);
}
);
width = 948;
}
);
unicode = 0A74;
},
{
color = -1;
glyphname = asterisk;
lastChange = "2016-02-26 16:05:11 +0000";
layers = (
{
layerId = "3B941797-445E-47EC-B390-6B41EAFC9AF2";
paths = (
{
closed = 1;
nodes = (
"165 287 LINE",
"167 287 LINE",
"211 215 LINE",
"275 261 LINE",
"219 325 LINE",
"220 328 LINE",
"296 344 LINE",
"270 420 LINE",
"200 390 LINE",
"198 392 LINE",
"207 471 LINE",
"125 471 LINE",
"134 392 LINE",
"131 390 LINE",
"62 420 LINE",
"36 344 LINE",
"112 328 LINE",
"113 325 LINE",
"57 261 LINE",
"121 215 LINE"
);
}
);
width = 332;
},
{
layerId = "F84B2E81-E30C-4BCF-B175-C3D49BDC99D5";
paths = (
{
closed = 1;
nodes = (
"184 331 LINE",
"187 331 LINE",
"249 238 LINE",
"269 252 LINE",
"199 340 LINE",
"200 342 LINE",
"299 370 LINE",
"291 394 LINE",
"194 356 LINE",
"193 357 LINE",
"199 468 LINE",
"172 468 LINE",
"178 357 LINE",
"177 356 LINE",
"80 394 LINE",
"73 370 LINE",
"171 342 LINE",
"172 340 LINE",
"102 252 LINE",
"123 238 LINE"
);
}
);
width = 371;
}
);
note = asterisk;
unicode = 002A;
},
{
color = -1;
glyphname = backslash;
lastChange = "2016-02-26 16:05:11 +0000";
layers = (
{
layerId = "3B941797-445E-47EC-B390-6B41EAFC9AF2";
paths = (
{
closed = 1;
nodes = (
"303 4 LINE",
"128 466 LINE",
"35 444 LINE",
"211 -20 LINE"
);
}
);
width = 338;
},
{
layerId = "F84B2E81-E30C-4BCF-B175-C3D49BDC99D5";
paths = (
{
closed = 1;
nodes = (
"253 -4 LINE",
"75 457 LINE",
"53 452 LINE",
"230 -10 LINE"
);
}
);
width = 306;
}
);
note = backslash;
unicode = 005C;
},
{
color = -1;
glyphname = periodcentered;
lastChange = "2016-02-26 16:05:11 +0000";
layers = (
{
layerId = "3B941797-445E-47EC-B390-6B41EAFC9AF2";
paths = (
{
closed = 1;
nodes = (
"163 144 OFFCURVE",
"185 165 OFFCURVE",
"185 196 CURVE SMOOTH",
"185 226 OFFCURVE",
"163 248 OFFCURVE",
"131 248 CURVE SMOOTH",
"99 248 OFFCURVE",
"78 226 OFFCURVE",
"78 196 CURVE SMOOTH",
"78 165 OFFCURVE",
"99 144 OFFCURVE",
"131 144 CURVE SMOOTH"
);
}
);
width = 262;
},
{
layerId = "F84B2E81-E30C-4BCF-B175-C3D49BDC99D5";
paths = (
{
closed = 1;
nodes = (
"139 170 OFFCURVE",
"149 179 OFFCURVE",
"149 195 CURVE SMOOTH",
"149 212 OFFCURVE",
"139 221 OFFCURVE",
"123 221 CURVE SMOOTH",
"106 221 OFFCURVE",
"96 212 OFFCURVE",
"96 195 CURVE SMOOTH",
"96 179 OFFCURVE",
"106 170 OFFCURVE",
"123 170 CURVE SMOOTH"
);
}
);
width = 244;
}
);
note = periodcentered;
unicode = 00B7;
},
{
color = -1;
glyphname = bullet;
lastChange = "2016-02-26 16:05:11 +0000";
layers = (
{
layerId = "3B941797-445E-47EC-B390-6B41EAFC9AF2";
paths = (
{
closed = 1;
nodes = (
"202 96 OFFCURVE",
"244 137 OFFCURVE",
"244 196 CURVE SMOOTH",
"244 256 OFFCURVE",
"202 297 OFFCURVE",
"144 297 CURVE SMOOTH",
"86 297 OFFCURVE",
"44 256 OFFCURVE",
"44 196 CURVE SMOOTH",
"44 137 OFFCURVE",
"86 96 OFFCURVE",
"144 96 CURVE SMOOTH"
);
}
);
width = 287;
},
{
layerId = "F84B2E81-E30C-4BCF-B175-C3D49BDC99D5";
paths = (
{
closed = 1;
nodes = (
"145 144 OFFCURVE",
"167 165 OFFCURVE",
"167 196 CURVE SMOOTH",
"167 227 OFFCURVE",
"145 248 OFFCURVE",
"115 248 CURVE SMOOTH",
"84 248 OFFCURVE",
"62 227 OFFCURVE",
"62 196 CURVE SMOOTH",
"62 165 OFFCURVE",
"83 144 OFFCURVE",
"115 144 CURVE SMOOTH"
);
}
);
width = 228;
}
);
note = bullet;
unicode = 2022;
},
{
color = -1;
glyphname = colon;
lastChange = "2016-02-26 16:05:11 +0000";
layers = (
{
layerId = "3B941797-445E-47EC-B390-6B41EAFC9AF2";
paths = (
{
closed = 1;
nodes = (
"159 216 LINE",
"159 318 LINE",
"47 318 LINE",
"47 216 LINE"
);
},
{
closed = 1;
nodes = (
"159 0 LINE",
"159 102 LINE",
"47 102 LINE",
"47 0 LINE"
);
}
);
width = 206;
},
{
layerId = "F84B2E81-E30C-4BCF-B175-C3D49BDC99D5";
paths = (
{
closed = 1;
nodes = (
"104 259 LINE",
"104 298 LINE",
"65 298 LINE",
"65 259 LINE"
);
},
{
closed = 1;
nodes = (
"104 16 LINE",
"104 55 LINE",
"65 55 LINE",
"65 16 LINE"
);
}
);
width = 170;
}
);
note = colon;
unicode = 003A;
},
{
color = -1;
glyphname = comma;
lastChange = "2016-02-26 16:05:11 +0000";
layers = (
{
layerId = "3B941797-445E-47EC-B390-6B41EAFC9AF2";
paths = (
{
closed = 1;
nodes = (
"149 -62 OFFCURVE",
"167 -28 OFFCURVE",
"167 6 CURVE SMOOTH",
"167 48 OFFCURVE",
"145 68 OFFCURVE",
"99 68 CURVE SMOOTH",
"78 68 OFFCURVE",
"54 64 OFFCURVE",
"38 58 CURVE",
"38 -15 LINE",
"76 -15 LINE",
"74 -35 OFFCURVE",
"68 -50 OFFCURVE",
"54 -72 CURVE",
"124 -87 LINE"
);
}
);
width = 203;
},
{
layerId = "F84B2E81-E30C-4BCF-B175-C3D49BDC99D5";
paths = (
{
closed = 1;
nodes = (
"107 -42 OFFCURVE",
"118 -12 OFFCURVE",
"118 22 CURVE SMOOTH",
"118 49 OFFCURVE",
"105 64 OFFCURVE",
"80 64 CURVE SMOOTH",
"70 64 OFFCURVE",
"62 62 OFFCURVE",
"56 60 CURVE",
"56 43 LINE",
"96 43 LINE",
"96 -7 OFFCURVE",
"87 -36 OFFCURVE",
"70 -66 CURVE",
"86 -70 LINE"
);
}
);
width = 173;
}
);
note = comma;
unicode = 002C;
},
{
color = -1;
glyphname = ellipsis;
lastChange = "2016-02-26 16:05:11 +0000";
layers = (
{
layerId = "3B941797-445E-47EC-B390-6B41EAFC9AF2";
paths = (
{
closed = 1;
nodes = (
"448 0 LINE",
"448 102 LINE",
"336 102 LINE",
"336 0 LINE"
);
},
{
closed = 1;
nodes = (
"178 0 LINE",
"178 102 LINE",
"66 102 LINE",
"66 0 LINE"
);
},
{
closed = 1;
nodes = (
"313 0 LINE",
"313 102 LINE",
"201 102 LINE",
"201 0 LINE"
);
}
);
width = 504;
},
{
layerId = "F84B2E81-E30C-4BCF-B175-C3D49BDC99D5";
paths = (
{
closed = 1;
nodes = (
"357 0 LINE",
"357 39 LINE",
"318 39 LINE",
"318 0 LINE"
);
},
{
closed = 1;
nodes = (
"112 0 LINE",
"112 39 LINE",
"73 39 LINE",
"73 0 LINE"
);
},
{
closed = 1;
nodes = (
"234 0 LINE",
"234 39 LINE",
"195 39 LINE",
"195 0 LINE"
);
}
);
width = 429;
}
);
note = ellipsis;
unicode = 2026;
},
{
color = -1;
glyphname = exclam;
lastChange = "2016-02-26 16:05:11 +0000";
layers = (
{
layerId = "3B941797-445E-47EC-B390-6B41EAFC9AF2";
paths = (
{
closed = 1;
nodes = (
"154 121 LINE",
"160 309 LINE",
"160 450 LINE",
"48 450 LINE",
"48 309 LINE",
"54 121 LINE"
);
},
{
closed = 1;
nodes = (
"160 0 LINE",
"160 88 LINE",
"48 88 LINE",
"48 0 LINE"
);
}
);
width = 207;
},
{
layerId = "F84B2E81-E30C-4BCF-B175-C3D49BDC99D5";
paths = (
{
closed = 1;
nodes = (
"104 128 LINE",
"109 293 LINE",
"109 442 LINE",
"86 442 LINE",
"86 293 LINE",
"90 128 LINE"
);
},
{
closed = 1;
nodes = (
"110 0 LINE",
"110 54 LINE",
"84 54 LINE",
"84 0 LINE"
);
}
);
width = 194;
}
);
note = exclam;
unicode = 0021;
},
{
color = -1;
glyphname = exclamdown;
lastChange = "2016-02-26 16:05:11 +0000";
layers = (
{
layerId = "3B941797-445E-47EC-B390-6B41EAFC9AF2";
paths = (
{
closed = 1;
nodes = (
"160 -3 LINE",
"160 138 LINE",
"154 326 LINE",
"54 326 LINE",
"48 138 LINE",
"48 -3 LINE"
);
},
{
closed = 1;
nodes = (
"160 359 LINE",
"160 447 LINE",
"48 447 LINE",
"48 359 LINE"
);
}
);
width = 207;
},
{
layerId = "F84B2E81-E30C-4BCF-B175-C3D49BDC99D5";
paths = (
{
closed = 1;
nodes = (
"91 0 LINE",
"91 150 LINE",
"86 315 LINE",
"72 315 LINE",
"67 149 LINE",
"67 0 LINE"
);
},
{
closed = 1;
nodes = (
"92 389 LINE",
"92 442 LINE",
"66 442 LINE",
"66 389 LINE"
);
}
);
width = 158;
}
);
note = exclamdown;
unicode = 00A1;
},
{
color = -1;
glyphname = numbersign;
lastChange = "2016-02-26 16:05:11 +0000";
layers = (
{
layerId = "3B941797-445E-47EC-B390-6B41EAFC9AF2";
paths = (
{
closed = 1;
nodes = (
"239 102 LINE",
"295 102 LINE",
"281 0 LINE",
"386 -3 LINE",
"400 102 LINE",
"492 102 LINE",
"492 196 LINE",
"413 196 LINE",
"420 250 LINE",
"508 250 LINE",
"508 344 LINE",
"432 344 LINE",
"447 452 LINE",
"344 454 LINE",
"329 344 LINE",
"272 344 LINE",
"286 452 LINE",
"184 454 LINE",
"168 344 LINE",
"78 344 LINE",
"78 250 LINE",
"155 250 LINE",
"148 196 LINE",
"60 196 LINE",
"60 102 LINE",
"135 102 LINE",
"121 0 LINE",
"226 -3 LINE"
);
},
{
closed = 1;
nodes = (
"260 250 LINE",
"315 250 LINE",
"308 196 LINE",
"252 196 LINE"
);
}
);
width = 578;
},
{
layerId = "F84B2E81-E30C-4BCF-B175-C3D49BDC99D5";
paths = (
{
closed = 1;
nodes = (
"177 141 LINE",
"312 141 LINE",
"294 -1 LINE",
"318 -3 LINE",
"338 141 LINE",
"420 141 LINE",
"420 163 LINE",
"341 163 LINE",
"359 293 LINE",
"439 293 LINE",
"439 315 LINE",
"362 315 LINE",
"379 452 LINE",
"356 454 LINE",
"336 315 LINE",
"201 315 LINE",
"220 452 LINE",
"195 454 LINE",
"175 315 LINE",
"91 315 LINE",
"91 293 LINE",
"173 293 LINE",
"155 163 LINE",
"73 163 LINE",
"73 141 LINE",
"152 141 LINE",
"133 -1 LINE",
"157 -3 LINE"
);
},
{
closed = 1;
nodes = (
"198 293 LINE",
"334 293 LINE",
"316 163 LINE",
"180 163 LINE"
);
}
);
width = 518;
}
);
note = numbersign;
unicode = 0023;
},
{
color = -1;
glyphname = period;
lastChange = "2016-02-26 16:05:11 +0000";
layers = (
{
layerId = "3B941797-445E-47EC-B390-6B41EAFC9AF2";
paths = (
{
closed = 1;
nodes = (
"159 0 LINE",
"159 102 LINE",
"47 102 LINE",
"47 0 LINE"
);
}
);
width = 206;
},
{
layerId = "F84B2E81-E30C-4BCF-B175-C3D49BDC99D5";
paths = (
{
closed = 1;
nodes = (
"104 0 LINE",
"104 39 LINE",
"65 39 LINE",
"65 0 LINE"
);
}
);
width = 170;
}
);
note = period;
unicode = 002E;
},
{
color = -1;
glyphname = question;
lastChange = "2016-02-26 16:05:11 +0000";
layers = (
{
layerId = "3B941797-445E-47EC-B390-6B41EAFC9AF2";
paths = (
{
closed = 1;
nodes = (
"293 117 LINE",
"293 157 LINE SMOOTH",
"293 172 OFFCURVE",
"293 180 OFFCURVE",
"303 186 CURVE SMOOTH",
"377 234 LINE",
"415 263 OFFCURVE",
"426 291 OFFCURVE",
"426 336 CURVE SMOOTH",
"426 413 OFFCURVE",
"368 457 OFFCURVE",
"259 457 CURVE SMOOTH",
"189 457 OFFCURVE",
"131 438 OFFCURVE",
"90 416 CURVE",
"90 401 LINE SMOOTH",
"90 373 OFFCURVE",
"94 338 OFFCURVE",
"100 313 CURVE",
"192 313 LINE",
"192 347 LINE",
"214 354 OFFCURVE",
"229 356 OFFCURVE",
"258 356 CURVE SMOOTH",
"297 356 OFFCURVE",
"319 352 OFFCURVE",
"319 323 CURVE SMOOTH",
"319 305 LINE",
"208 228 LINE SMOOTH",
"190 216 OFFCURVE",
"185 205 OFFCURVE",
"185 183 CURVE SMOOTH",
"185 117 LINE"
);
},
{
closed = 1;
nodes = (
"295 0 LINE",
"295 88 LINE",
"184 88 LINE",
"184 0 LINE"
);
}
);
width = 516;
},
{
layerId = "F84B2E81-E30C-4BCF-B175-C3D49BDC99D5";
paths = (
{
closed = 1;
nodes = (
"207 112 LINE",
"207 154 LINE SMOOTH",
"207 174 OFFCURVE",
"209 178 OFFCURVE",
"224 189 CURVE SMOOTH",
"306 251 LINE SMOOTH",
"337 274 OFFCURVE",
"343 299 OFFCURVE",
"343 338 CURVE SMOOTH",
"343 415 OFFCURVE",
"308 450 OFFCURVE",
"223 450 CURVE SMOOTH",
"168 450 OFFCURVE",
"118 438 OFFCURVE",
"90 426 CURVE",
"90 410 LINE SMOOTH",
"90 392 OFFCURVE",
"93 373 OFFCURVE",
"99 357 CURVE",
"113 357 LINE",
"113 413 LINE",
"147 423 OFFCURVE",
"185 428 OFFCURVE",
"221 428 CURVE SMOOTH",
"292 428 OFFCURVE",
"319 402 OFFCURVE",
"319 341 CURVE SMOOTH",
"319 286 LINE",
"206 202 LINE SMOOTH",
"190 189 OFFCURVE",
"184 180 OFFCURVE",
"184 160 CURVE SMOOTH",
"184 112 LINE"
);
},
{
closed = 1;
nodes = (
"208 0 LINE",
"208 54 LINE",
"182 54 LINE",
"182 0 LINE"
);
}
);
width = 434;
}
);
note = question;
unicode = 003F;
},
{
color = -1;
glyphname = questiondown;
lastChange = "2016-02-26 16:05:11 +0000";
layers = (
{
layerId = "3B941797-445E-47EC-B390-6B41EAFC9AF2";
paths = (
{
closed = 1;
nodes = (
"307 -80 OFFCURVE",
"365 -60 OFFCURVE",
"406 -38 CURVE",
"406 -23 LINE SMOOTH",
"406 5 OFFCURVE",
"402 40 OFFCURVE",
"396 65 CURVE",
"304 65 LINE",
"304 30 LINE",
"282 24 OFFCURVE",
"267 22 OFFCURVE",
"238 22 CURVE SMOOTH",
"199 22 OFFCURVE",
"178 25 OFFCURVE",
"178 54 CURVE SMOOTH",
"178 73 LINE",
"288 149 LINE SMOOTH",
"306 162 OFFCURVE",
"312 173 OFFCURVE",
"312 194 CURVE SMOOTH",
"312 261 LINE",
"204 261 LINE",
"204 221 LINE SMOOTH",
"204 206 OFFCURVE",
"203 198 OFFCURVE",
"193 191 CURVE SMOOTH",
"120 144 LINE",
"81 115 OFFCURVE",
"70 87 OFFCURVE",
"70 42 CURVE SMOOTH",
"70 -36 OFFCURVE",
"128 -80 OFFCURVE",
"237 -80 CURVE SMOOTH"
);
},
{
closed = 1;
nodes = (
"312 290 LINE",
"312 378 LINE",
"201 378 LINE",
"201 290 LINE"
);
}
);
width = 476;
},
{
layerId = "F84B2E81-E30C-4BCF-B175-C3D49BDC99D5";
paths = (
{
closed = 1;
nodes = (
"255 -75 OFFCURVE",
"305 -63 OFFCURVE",
"333 -51 CURVE",
"333 -35 LINE SMOOTH",
"333 -17 OFFCURVE",
"330 1 OFFCURVE",
"324 18 CURVE",
"310 18 LINE",
"310 -38 LINE",
"276 -48 OFFCURVE",
"238 -53 OFFCURVE",
"201 -53 CURVE SMOOTH",
"131 -53 OFFCURVE",
"104 -28 OFFCURVE",
"104 34 CURVE SMOOTH",
"104 88 LINE",
"217 173 LINE SMOOTH",
"233 186 OFFCURVE",
"239 195 OFFCURVE",
"239 215 CURVE SMOOTH",
"239 263 LINE",
"216 263 LINE",
"216 221 LINE SMOOTH",
"216 201 OFFCURVE",
"214 197 OFFCURVE",
"199 186 CURVE SMOOTH",
"117 124 LINE SMOOTH",
"85 101 OFFCURVE",
"80 76 OFFCURVE",
"80 37 CURVE SMOOTH",
"80 -41 OFFCURVE",
"114 -75 OFFCURVE",
"200 -75 CURVE SMOOTH"
);
},
{
closed = 1;
nodes = (
"241 321 LINE",
"241 375 LINE",
"215 375 LINE",
"215 321 LINE"
);
}
);
width = 412;
}
);
note = questiondown;
unicode = 00BF;
},
{
color = -1;
glyphname = quotedbl;
lastChange = "2016-02-26 16:05:11 +0000";
layers = (
{
layerId = "3B941797-445E-47EC-B390-6B41EAFC9AF2";
paths = (
{
closed = 1;
nodes = (
"283 349 LINE",
"291 444 LINE SMOOTH",
"292 461 OFFCURVE",
"291 478 OFFCURVE",
"288 497 CURVE",
"201 497 LINE",
"198 478 OFFCURVE",
"197 461 OFFCURVE",
"198 444 CURVE SMOOTH",
"206 349 LINE"
);
},
{
closed = 1;
nodes = (
"166 349 LINE",
"173 444 LINE SMOOTH",
"174 461 OFFCURVE",
"174 478 OFFCURVE",
"171 497 CURVE",
"83 497 LINE",
"80 478 OFFCURVE",
"80 461 OFFCURVE",
"81 444 CURVE SMOOTH",
"88 349 LINE"
);
}
);
width = 371;
},
{
layerId = "F84B2E81-E30C-4BCF-B175-C3D49BDC99D5";
paths = (
{
closed = 1;
nodes = (
"198 347 LINE",
"204 442 LINE SMOOTH",
"205 454 OFFCURVE",
"204 468 OFFCURVE",
"202 482 CURVE",
"183 482 LINE",
"181 468 OFFCURVE",
"180 454 OFFCURVE",
"181 442 CURVE SMOOTH",
"187 347 LINE"
);
},
{
closed = 1;
nodes = (
"107 347 LINE",
"113 442 LINE SMOOTH",
"114 454 OFFCURVE",
"114 468 OFFCURVE",
"112 482 CURVE",
"92 482 LINE",
"90 468 OFFCURVE",
"90 454 OFFCURVE",
"91 442 CURVE SMOOTH",
"96 347 LINE"
);
}
);
width = 294;
}
);
note = quotedbl;
unicode = 0022;
},
{
color = -1;
glyphname = quotesingle;
lastChange = "2016-02-26 16:05:11 +0000";
layers = (
{
background = {
paths = (
{
closed = 1;
nodes = (
"312 349 LINE",
"320 444 LINE SMOOTH",
"321 461 OFFCURVE",
"320 478 OFFCURVE",
"317 497 CURVE",
"230 497 LINE",
"227 478 OFFCURVE",
"226 461 OFFCURVE",
"227 444 CURVE SMOOTH",
"235 349 LINE"
);
},
{
closed = 1;
nodes = (
"195 349 LINE",
"202 444 LINE SMOOTH",
"203 461 OFFCURVE",
"203 478 OFFCURVE",
"200 497 CURVE",
"112 497 LINE",
"109 478 OFFCURVE",
"109 461 OFFCURVE",
"110 444 CURVE SMOOTH",
"117 349 LINE"
);
}
);
};
layerId = "3B941797-445E-47EC-B390-6B41EAFC9AF2";
paths = (
{
closed = 1;
nodes = (
"165 349 LINE",
"173 444 LINE SMOOTH",
"175 461 OFFCURVE",
"173 478 OFFCURVE",
"170 497 CURVE",
"83 497 LINE",
"80 478 OFFCURVE",
"79 461 OFFCURVE",
"80 444 CURVE SMOOTH",
"88 349 LINE"
);
}
);
width = 254;
},
{
background = {
paths = (
{
closed = 1;
nodes = (
"198 337 LINE",
"204 432 LINE SMOOTH",
"205 444 OFFCURVE",
"204 458 OFFCURVE",
"202 472 CURVE",
"183 472 LINE",
"181 458 OFFCURVE",
"180 444 OFFCURVE",
"181 432 CURVE SMOOTH",
"187 337 LINE"
);
},
{
closed = 1;
nodes = (
"107 337 LINE",
"113 432 LINE SMOOTH",
"114 444 OFFCURVE",
"114 458 OFFCURVE",
"112 472 CURVE",
"92 472 LINE",
"90 458 OFFCURVE",
"90 444 OFFCURVE",
"91 432 CURVE SMOOTH",
"96 337 LINE"
);
}
);
};
layerId = "F84B2E81-E30C-4BCF-B175-C3D49BDC99D5";
paths = (
{
closed = 1;
nodes = (
"107 327 LINE",
"113 422 LINE SMOOTH",
"114 434 OFFCURVE",
"114 448 OFFCURVE",
"112 462 CURVE",
"92 462 LINE",
"90 448 OFFCURVE",
"90 434 OFFCURVE",
"91 422 CURVE SMOOTH",
"97 327 LINE"
);
}
);
width = 204;
}
);
note = quotesingle;
unicode = 0027;
},
